<svg xmlns="http://www.w3.org/2000/svg"
	xmlns:xlink="http://www.w3.org/1999/xlink" version="1.1" width="1000" height="1000" viewBox="0 0 1000 1000" xml:space="preserve">
	<desc>Created with Fabric.js 3.5.0</desc>
	<defs>
	</defs>
	<rect x="0" y="0" width="100%" height="100%" fill="#ffffff"/>
	<g transform="matrix(-0.0412 -0.7843 0.7843 -0.0412 613.8759 522.2498)" id="455778">
		<g style="" vector-effect="non-scaling-stroke">
			<g transform="matrix(1 0 0 1 479.9988 122.855)" id="Livello_1">
				<path style="stroke: none; stroke-width: 0; stroke-dasharray: none; stroke-linecap: butt; stroke-dashoffset: 0; stroke-linejoin: miter; stroke-miterlimit: 4; is-custom-font: none; font-file-url: none; fill: rgb(45,49,77); fill-rule: evenodd; opacity: 1;" transform=" translate(-1439.9988, -662.855)" d="m 1920 245.71 v 817.43 c -7.16 6.04 -14.62 11.67 -22.34 16.86 h -592.69 c -1.34 -14.08 3.38 -28.62 14.16 -39.4 c 9.21 -9.21 14.38 -21.69 14.38 -34.71 c 0.01 -27.12 -21.98 -49.11 -49.09 -49.11 l -194.68 -0.02 c -34.41 -0.01 -67.41 -13.68 -91.74 -38.01 c -50.67 -50.67 -50.67 -132.82 0 -183.49 l 408.36 -408.36 c 48.86 -48.86 115.14 -76.31 184.24 -76.3 l 279 0.03 c 17.05 0 33.92 -1.67 50.4 -4.92 Z" stroke-linecap="round"/>
			</g>
			<g transform="matrix(1 0 0 1 234.84 255.43)" id="Livello_1">
				<linearGradient id="SVGID_6" gradientUnits="userSpaceOnUse" gradientTransform="matrix(1 0 0 1 0 0)" x1="559.37" y1="1123.02" x2="1884.16" y2="755.75">
					<stop offset="0%" style="stop-color:rgb(51,211,94);stop-opacity: 1"/>
					<stop offset="100%" style="stop-color:rgb(42,182,217);stop-opacity: 1"/>
				</linearGradient>
				<path style="stroke: none; stroke-width: 0; stroke-dasharray: none; stroke-linecap: butt; stroke-dashoffset: 0; stroke-linejoin: miter; stroke-miterlimit: 4; is-custom-font: none; font-file-url: none; fill: url(#SVGID_6); fill-rule: evenodd; opacity: 1;" transform=" translate(-1194.84, -795.43)" d="m 1920 513.34 v 566.66 H 469.68 l 319.94 -319.95 c 48.86 -48.86 115.14 -76.31 184.25 -76.3 h 75.63 s 203.37 0.03 203.37 0.03 c 69.1 0.01 135.38 -27.44 184.24 -76.3 l 20.32 -20.32 c 48.87 -48.86 115.15 -76.31 184.25 -76.3 l 260.67 0.03 h 0.01 c 6.02 0 11.95 0.84 17.64 2.45 Z" stroke-linecap="round"/>
			</g>
		</g>
	</g>
</svg>