<?xml version="1.0" encoding="UTF-8"?><svg id="Livello_1" xmlns="http://www.w3.org/2000/svg" xmlns:xlink="http://www.w3.org/1999/xlink" viewBox="0 0 1920 1080"><defs><style>.cls-1{fill:url(#Sfumatura_senza_nome);}.cls-1,.cls-2{fill-rule:evenodd;stroke-width:0px;}.cls-3{filter:url(#drop-shadow-1);}.cls-2{fill:#2d314d;}</style><filter id="drop-shadow-1" filterUnits="userSpaceOnUse"><feOffset dx="-14.17" dy="-19.84"/><feGaussianBlur result="blur" stdDeviation="17.01"/><feFlood flood-color="#4e5982" flood-opacity=".4"/><feComposite in2="blur" operator="in"/><feComposite in="SourceGraphic"/></filter><linearGradient id="Sfumatura_senza_nome" x1="559.37" y1="1123.02" x2="1884.16" y2="755.75" gradientUnits="userSpaceOnUse"><stop offset="0" stop-color="#33d35e"/><stop offset="1" stop-color="#2ab6d9"/></linearGradient></defs><g class="cls-3"><path class="cls-2" d="m1920,245.71v817.43c-7.16,6.04-14.62,11.67-22.34,16.86h-592.69c-1.34-14.08,3.38-28.62,14.16-39.4,9.21-9.21,14.38-21.69,14.38-34.71.01-27.12-21.98-49.11-49.09-49.11l-194.68-.02c-34.41-.01-67.41-13.68-91.74-38.01-50.67-50.67-50.67-132.82,0-183.49l408.36-408.36c48.86-48.86,115.14-76.31,184.24-76.3l279,.03c17.05,0,33.92-1.67,50.4-4.92Z"/></g><path class="cls-1" d="m1920,513.34v566.66H469.68l319.94-319.95c48.86-48.86,115.14-76.31,184.25-76.3h75.63s203.37.03,203.37.03c69.1.01,135.38-27.44,184.24-76.3l20.32-20.32c48.87-48.86,115.15-76.31,184.25-76.3l260.67.03h.01c6.02,0,11.95.84,17.64,2.45Z"/></svg>