<svg xmlns="http://www.w3.org/2000/svg" width="512" height="512" viewBox="0 0 512 512" version="1.1"><path d="M 252.250 56.723 L 249 57.127 249 118.063 L 249 179 219.275 179 L 189.551 179 164.480 154 L 139.410 129 70.205 129 C 3.397 129, 1 129.064, 1 130.860 C 1 131.884, 0.714 134.809, 0.364 137.360 L -0.272 142 66.622 142 L 133.516 142 156.258 164.758 L 179 187.516 179 218.258 L 179 249 89.500 249 L 0 249 0 256 L 0 263 89.500 263 L 179 263 179 293.383 L 179 323.766 156.400 346.883 L 133.799 370 66.764 370 L -0.272 370 0.364 374.640 C 0.714 377.191, 1 380.116, 1 381.140 C 1 382.936, 3.397 383, 70.205 383 L 139.410 383 164.480 358 L 189.551 333 219.275 333 L 249 333 249 393.861 L 249 454.721 254.250 455.352 C 257.137 455.699, 260.288 455.987, 261.250 455.991 C 262.898 455.999, 263 452.408, 263 394.500 L 263 333 293.258 333 L 323.515 333 348.500 358 L 373.485 383 442.071 383 L 510.657 383 511.828 377.924 C 512.473 375.132, 513 371.982, 513 370.924 C 513 369.044, 511.444 369, 445.742 369 L 378.484 369 355.742 346.242 L 333 323.484 333 293.247 L 333 263.011 422.750 262.755 L 512.500 262.500 512.789 255.500 L 513.078 248.500 423.039 248.761 L 333 249.021 333 218.752 L 333 188.484 355.758 165.742 L 378.516 143 445.151 143 C 504.991 143, 511.848 142.839, 512.393 141.418 C 513.328 138.981, 513.113 135.188, 512 134.500 C 511.450 134.160, 511 132.784, 511 131.441 L 511 129 442.242 129 L 373.485 129 348.500 154 L 323.515 179 293.258 179 L 263 179 263 117.500 L 263 56 259.250 56.160 C 257.188 56.248, 254.037 56.502, 252.250 56.723 M 0.232 139 C 0.232 140.925, 0.438 141.713, 0.689 140.750 C 0.941 139.787, 0.941 138.213, 0.689 137.250 C 0.438 136.287, 0.232 137.075, 0.232 139 M 192.667 192.667 C 192.300 193.033, 192 221.608, 192 256.167 L 192 319 255.500 319 L 319 319 319 256.163 L 319 193.326 271.750 192.664 C 212.020 191.827, 193.505 191.828, 192.667 192.667 M 0.336 256 C 0.336 260.125, 0.513 261.813, 0.728 259.750 C 0.944 257.688, 0.944 254.313, 0.728 252.250 C 0.513 250.188, 0.336 251.875, 0.336 256 M 0.232 373 C 0.232 374.925, 0.438 375.712, 0.689 374.750 C 0.941 373.788, 0.941 372.212, 0.689 371.250 C 0.438 370.288, 0.232 371.075, 0.232 373" stroke="none" fill="#b8643f" fill-rule="evenodd"/><path d="M 24.929 57.367 C 14.382 60.211, 5.658 67.953, 2.008 77.708 C 0.163 82.639, 0.014 85.246, 0.168 109.788 C 0.261 124.479, 0.513 134.813, 0.728 132.750 L 1.121 129 70.265 129 L 139.410 129 164.480 154 L 189.551 179 219.275 179 L 249 179 249 118.063 L 249 57.127 252.250 56.723 C 254.037 56.502, 204.650 56.278, 142.500 56.228 C 55.856 56.157, 28.434 56.422, 24.929 57.367 M 263 117.479 L 263 179 293.258 179 L 323.515 179 348.500 154 L 373.485 129 442.176 129 L 510.867 129 511.284 131.750 C 511.513 133.262, 511.768 122.929, 511.850 108.788 C 511.988 85.168, 511.835 82.633, 509.967 77.640 C 507.105 69.992, 501.233 63.732, 493.219 59.787 L 486.543 56.500 374.772 56.229 L 263 55.958 263 117.479 M 0 195.500 L 0 249 89.500 249 L 179 249 179 218.242 L 179 187.484 156.242 164.742 L 133.484 142 66.742 142 L 0 142 0 195.500 M 355.742 165.758 L 333 188.516 333 218.758 L 333 249 422.500 249 L 512 249 512 196 L 512 143 445.242 143 L 378.484 143 355.742 165.758 M 192.667 192.667 C 192.300 193.033, 192 221.608, 192 256.167 L 192 319 255.500 319 L 319 319 319 256.163 L 319 193.326 271.750 192.664 C 212.020 191.827, 193.505 191.828, 192.667 192.667 M 0 316.500 L 0 370 66.900 370 L 133.799 370 156.400 346.883 L 179 323.766 179 293.383 L 179 263 89.500 263 L 0 263 0 316.500 M 333 293.258 L 333 323.516 355.758 346.258 L 378.516 369 445.258 369 L 512 369 512 316 L 512 263 422.500 263 L 333 263 333 293.258 M 164.459 358.005 L 139.419 383 70.270 383 L 1.121 383 0.728 379.250 C 0.513 377.188, 0.261 387.521, 0.168 402.212 C 0.013 426.926, 0.153 429.335, 2.049 434.401 C 4.779 441.699, 11.855 449.116, 19.500 452.693 L 25.500 455.500 141 455.592 C 204.525 455.643, 254.813 455.503, 252.750 455.282 L 249 454.879 249 393.940 L 249 333 219.250 333.005 L 189.500 333.011 164.459 358.005 M 263 394.521 L 263 456.042 374.772 455.771 L 486.543 455.500 493.219 452.213 C 501.233 448.268, 507.105 442.008, 509.967 434.360 C 511.829 429.381, 511.989 426.811, 511.864 403.712 C 511.789 389.846, 511.533 379.512, 511.294 380.750 L 510.861 383 442.173 383 L 373.485 383 348.500 358 L 323.515 333 293.258 333 L 263 333 263 394.521" stroke="none" fill="#fbbb34" fill-rule="evenodd"/></svg>