<svg version="1.1" id="Layer_1" xmlns="http://www.w3.org/2000/svg" xmlns:xlink="http://www.w3.org/1999/xlink" x="0px" y="0px"
	 width="100%" viewBox="0 0 1920 320" enable-background="new 0 0 1920 320" xml:space="preserve">
<path fill="#000000" opacity="1.000000" stroke="none" 
	d="
M1921.000000,169.999985 
	C1921.000000,220.313126 1921.000000,270.626251 1921.000000,321.000000 
	C1612.977417,321.000000 1304.954712,321.000000 996.124146,320.650879 
	C996.997131,319.867828 998.658142,319.172424 1000.362244,319.042908 
	C1010.376526,318.281830 1020.433289,317.959106 1030.413574,316.902130 
	C1043.065186,315.562195 1055.669434,313.749115 1068.271729,311.979767 
	C1081.966553,310.056946 1095.812622,308.745514 1109.277100,305.748840 
	C1133.247314,300.413971 1157.014160,294.144714 1180.801514,288.015808 
	C1203.388184,282.196350 1225.191772,273.963074 1246.102783,263.790375 
	C1264.301270,254.937195 1281.816650,244.659592 1299.481445,234.740036 
	C1305.646118,231.278244 1311.355835,227.006149 1317.273315,223.104080 
	C1317.179321,222.460587 1317.085205,221.817078 1316.991211,221.173569 
	C1313.302002,220.449051 1309.619751,219.142014 1305.922485,219.098465 
	C1287.593628,218.882507 1269.256104,218.782959 1250.933105,219.177704 
	C1247.133545,219.259567 1242.887695,220.888184 1239.708130,223.062408 
	C1232.051758,228.297821 1224.909302,234.284088 1217.552368,239.958023 
	C1192.699463,259.125397 1165.311157,273.800812 1135.883667,284.397247 
	C1114.644775,292.044983 1093.101440,298.998138 1071.350464,305.020477 
	C1056.539429,309.121338 1041.149048,311.157013 1025.985840,313.941620 
	C1022.052002,314.664032 1017.997803,314.731079 1014.952026,315.011444 
	C1031.031494,310.803864 1048.012817,306.807892 1064.720459,301.883331 
	C1089.683716,294.525391 1113.476807,284.166290 1135.196899,269.798035 
	C1148.471436,261.016602 1160.864990,250.868286 1173.370728,240.975388 
	C1179.052246,236.480804 1184.127441,231.199753 1189.321045,226.115479 
	C1192.289307,223.209610 1191.690674,221.236374 1187.706177,219.936646 
	C1186.341675,219.491547 1184.893433,219.044617 1183.482056,219.039917 
	C1165.484131,218.979935 1147.483765,218.874374 1129.489746,219.147751 
	C1127.035889,219.185028 1123.980225,220.628967 1122.298218,222.439133 
	C1117.973022,227.093872 1114.069702,232.180710 1110.343750,237.344528 
	C1099.744873,252.033264 1087.226196,265.010773 1072.640991,275.508667 
	C1049.564575,292.118195 1025.013672,306.225403 996.808533,312.552429 
	C988.850952,314.337524 980.845581,315.909607 972.862061,317.579376 
	C972.772583,317.172455 972.683044,316.765503 972.593506,316.358582 
	C974.090149,315.891174 975.603271,315.470642 977.080872,314.949371 
	C998.257935,307.478180 1017.143555,296.498291 1033.214966,280.477966 
	C1049.148315,264.595306 1061.174561,246.092560 1072.016724,226.654816 
	C1074.920654,221.448883 1073.338379,219.027863 1067.243652,219.011871 
	C1053.078491,218.974747 1038.901367,219.353668 1024.751953,218.881119 
	C1014.584106,218.541550 1012.125977,221.325302 1008.998413,231.763977 
	C1008.721313,232.688980 1008.415710,233.605545 1008.144409,234.532196 
	C1001.539551,257.085602 992.187866,278.389557 977.834473,297.099976 
	C972.582336,303.946411 966.720337,310.782532 958.314453,314.186707 
	C951.993225,316.746643 945.446411,318.749298 939.000000,321.000000 
	C626.333313,321.000000 313.666656,321.000000 1.000000,321.000000 
	C1.000000,287.570801 1.000000,254.251434 1.321481,220.123993 
	C3.494355,219.877151 5.340939,220.905716 7.197911,220.924820 
	C20.707420,221.063843 34.219688,221.080338 47.729702,220.968414 
	C55.446915,220.904495 59.075043,217.100769 60.064487,209.429321 
	C60.956001,202.517120 62.383553,195.673035 63.611237,188.805435 
	C65.725609,176.977768 68.106728,165.191467 69.913872,153.317490 
	C71.082619,145.638199 72.460281,143.926895 80.331619,144.014420 
	C106.910950,144.309998 133.489944,144.905106 160.068329,144.868195 
	C169.095123,144.855652 172.138580,143.445831 173.533035,136.679184 
	C175.633408,126.487015 176.876266,116.084686 177.884918,105.713470 
	C178.491486,99.476685 177.556702,99.003075 171.079620,99.002014 
	C142.429367,98.997307 113.779007,98.966545 85.128967,99.045685 
	C81.837502,99.054771 79.340706,98.702034 80.019508,94.561142 
	C82.331596,80.456451 84.507820,66.324532 87.193871,52.290665 
	C87.675957,49.771839 88.177612,46.008266 92.676735,45.943115 
	C103.433929,45.787342 114.185852,45.088387 124.941628,45.045940 
	C157.255951,44.918423 189.571106,44.998295 221.885941,45.001839 
	C226.813873,45.002380 231.237396,43.963970 232.238144,38.259373 
	C233.975601,28.355125 235.513626,18.413260 236.954620,8.461013 
	C237.478882,4.840304 235.780838,2.886781 231.860580,2.899707 
	C230.909149,2.902844 229.953644,1.666439 229.000000,1.000002 
	C257.022644,1.000000 285.045288,1.000000 313.874268,1.324760 
	C313.184235,2.099726 311.625397,2.407058 310.203888,3.028553 
	C306.767517,4.530950 302.224762,5.277814 300.189728,7.918265 
	C288.200226,23.474739 276.720581,39.428040 265.220612,55.357006 
	C246.510300,81.273247 227.906265,107.266273 209.276627,133.240677 
	C190.732742,159.095535 172.167099,184.935165 153.767822,210.892624 
	C152.286148,212.982956 150.716583,216.569443 151.561646,218.304550 
	C152.378128,219.980972 156.250595,220.829651 158.805954,220.885559 
	C170.627991,221.144119 182.464310,221.215652 194.284470,220.917099 
	C201.140076,220.743896 207.487503,218.661575 211.728836,212.658417 
	C220.245499,200.603958 228.635590,188.459396 237.226395,176.458313 
	C241.141693,170.988770 245.230835,165.899582 253.153290,165.931992 
	C290.468262,166.084732 327.784210,166.035233 365.099640,165.955399 
	C369.757538,165.945435 372.541046,167.663879 374.040863,172.218018 
	C377.829895,183.723663 382.418457,194.987656 385.746735,206.617462 
	C389.249573,218.857101 393.741272,220.573685 405.481354,220.925049 
	C416.983063,221.269272 428.503082,221.000183 440.015076,220.999878 
	C443.180237,220.999802 446.354156,221.149139 449.508728,220.965790 
	C456.031891,220.586670 457.490387,218.548920 455.132446,212.511795 
	C451.371307,202.881851 447.332581,193.359573 443.360016,183.813034 
	C431.504059,155.321457 419.622620,126.840500 407.752350,98.354866 
	C401.102753,82.397507 394.494202,66.422905 387.795532,50.486168 
	C382.159454,37.077328 376.477081,23.687222 370.696960,10.340009 
	C368.504700,5.277668 364.754364,2.490747 358.885315,2.950108 
	C355.408386,3.222237 351.884735,3.122777 348.399902,2.905088 
	C347.563538,2.852842 346.798096,1.665369 346.000000,0.999995 
	C482.689301,1.000000 619.378601,1.000000 756.868469,1.277914 
	C751.400635,3.810883 749.326355,8.513860 748.814514,14.895304 
	C748.325256,20.994326 746.814941,27.038212 745.431152,33.031937 
	C743.701172,40.525299 746.241760,43.996086 753.896545,43.997589 
	C782.379150,44.003185 810.861816,43.999760 839.344421,43.999722 
	C841.124390,43.999718 842.904358,43.999722 845.274231,43.999722 
	C844.930847,47.457321 844.790466,50.386471 844.325806,53.263245 
	C842.952759,61.764954 841.473999,70.249886 839.995056,78.734131 
	C837.819885,91.211761 835.608032,103.682976 833.413513,116.157227 
	C831.274719,128.314743 829.129395,140.471100 827.003174,152.630814 
	C824.822388,165.102859 822.578857,177.564774 820.521179,190.057220 
	C819.199463,198.080872 817.847839,206.123306 817.122070,214.212280 
	C816.701416,218.900436 819.318604,220.989502 823.997925,220.994751 
	C837.323120,221.009689 850.648376,221.017960 863.973511,220.991943 
	C870.032532,220.980118 872.680481,218.813110 873.984558,212.710968 
	C874.864868,208.591583 875.552551,204.431122 876.331787,200.290054 
	C878.551636,188.493317 880.916260,176.721649 882.961365,164.894730 
	C885.785767,148.561020 888.260986,132.166931 891.084717,115.833115 
	C894.624023,95.360809 897.984924,74.845383 902.160095,54.499878 
	C904.695618,42.144367 902.133850,44.031292 914.087524,44.013500 
	C942.736633,43.970860 971.386047,43.954147 1000.034973,44.046139 
	C1004.626892,44.060883 1007.679749,42.339535 1008.603455,37.822067 
	C1010.195007,30.039434 1012.005737,22.255207 1012.820862,14.378146 
	C1013.287537,9.868036 1015.299744,3.966380 1008.384949,1.676601 
	C1008.589966,1.451086 1008.794983,1.225557 1009.000000,1.000014 
	C1169.355957,1.000000 1329.712036,1.000000 1490.873901,1.320875 
	C1490.519409,2.094121 1489.382202,2.858293 1488.194580,2.947316 
	C1481.457153,3.452343 1479.115845,5.575361 1477.982910,12.387871 
	C1477.237183,16.871677 1476.408203,21.341686 1475.611084,25.816914 
	C1473.075806,40.048904 1470.452881,54.265934 1468.024902,68.516228 
	C1465.538940,83.108841 1463.338867,97.750282 1460.837158,112.340096 
	C1458.340332,126.900116 1455.479980,141.398407 1453.042725,155.967865 
	C1450.198608,172.969223 1447.742554,190.035416 1444.915649,207.039810 
	C1443.430786,215.971085 1447.618408,220.981583 1456.515259,221.041046 
	C1491.257935,221.273193 1525.999390,221.883118 1560.741821,221.926697 
	C1586.486938,221.958984 1612.232910,221.332504 1637.978516,220.999939 
	C1638.311646,220.995636 1638.647949,221.026321 1638.977539,220.991867 
	C1645.303345,220.330902 1647.877319,218.349335 1649.369873,212.123856 
	C1651.103882,204.892059 1653.283203,197.626846 1653.785522,190.274780 
	C1654.438965,180.710571 1655.869873,178.850616 1644.191162,178.911102 
	C1601.042725,179.134644 1557.892334,179.000122 1514.742676,178.999481 
	C1513.409912,178.999451 1511.883545,179.392319 1510.801758,178.869202 
	C1509.822754,178.395828 1508.701782,176.893784 1508.741943,175.889114 
	C1508.851318,173.147354 1509.517456,170.424606 1510.004517,167.701706 
	C1511.919434,156.995102 1514.173950,146.335495 1515.643188,135.568512 
	C1516.422241,129.859711 1519.348267,128.915085 1524.281006,128.931839 
	C1561.099365,129.056976 1597.918457,129.004181 1634.737305,128.995621 
	C1640.320557,128.994324 1643.605713,126.901695 1644.670288,121.575333 
	C1646.704834,111.394867 1648.467773,101.147049 1649.906128,90.865997 
	C1650.627197,85.713295 1648.541870,84.001816 1643.083252,84.001411 
	C1606.097778,83.998672 1569.112427,84.000114 1532.126953,83.999374 
	C1530.960815,83.999352 1529.746094,84.199615 1528.638428,83.942833 
	C1526.155518,83.367226 1524.422241,82.161682 1525.375244,79.106735 
	C1525.757935,77.880074 1525.758911,76.539307 1526.007202,75.264809 
	C1527.648438,66.839600 1529.116577,58.371601 1531.131836,50.036156 
	C1531.521973,48.422779 1534.011230,46.269405 1535.640137,46.172085 
	C1546.710327,45.510681 1557.808716,45.087788 1568.899658,45.045956 
	C1602.552612,44.919018 1636.206299,45.003311 1669.859741,44.996357 
	C1674.755981,44.995346 1679.225464,44.028423 1680.227417,38.277431 
	C1681.953613,28.370388 1683.512573,18.431534 1684.951660,8.478556 
	C1685.472290,4.878426 1683.807739,2.873878 1679.860107,2.899363 
	C1678.910767,2.905491 1677.953613,1.666405 1677.000000,0.999989 
	C1689.689331,1.000000 1702.378662,1.000000 1715.866455,1.258871 
	C1710.914185,4.383392 1707.537476,9.205951 1706.362427,15.307588 
	C1703.413452,30.620928 1700.729980,45.986019 1698.013794,61.343384 
	C1695.240234,77.024757 1692.640381,92.737198 1689.805786,108.407326 
	C1686.973389,124.064842 1683.836060,139.667374 1681.030640,155.329544 
	C1677.880249,172.917297 1675.015381,190.556076 1671.893433,208.149048 
	C1670.766724,214.498047 1672.495361,218.325378 1678.563477,219.898483 
	C1683.097168,221.073837 1687.859375,221.793304 1692.536255,221.886505 
	C1698.787598,222.011078 1705.054321,221.055634 1711.315308,221.044403 
	C1757.144653,220.962112 1802.974609,221.077805 1848.803589,220.912125 
	C1855.317383,220.888596 1861.886230,220.037659 1868.328003,218.962067 
	C1895.514404,214.422913 1911.587036,197.764984 1919.060669,171.876282 
	C1919.277100,171.126694 1920.334595,170.619934 1921.000000,169.999985 
M665.243896,178.999634 
	C658.327026,179.333084 651.410645,179.945923 644.493286,179.955811 
	C589.169617,180.034943 533.845459,180.089371 478.522400,179.887146 
	C471.590210,179.861801 470.173523,182.484329 469.007996,188.402008 
	C467.660583,195.243256 466.188019,202.066711 465.094177,208.949448 
	C463.397461,219.625748 463.355835,222.115891 476.141479,222.077713 
	C535.130737,221.901550 594.121460,222.127731 653.110107,221.865616 
	C662.212708,221.825165 671.456482,220.707626 680.374573,218.843063 
	C698.671021,215.017776 712.264832,204.453964 717.664978,186.312469 
	C723.314880,167.331909 724.808350,147.632690 721.951050,127.859512 
	C720.485413,117.717056 716.690613,108.385498 709.414001,101.029449 
	C699.743042,91.252983 687.247437,87.268158 673.968201,87.138779 
	C634.312134,86.752419 594.648865,87.133110 554.991516,86.818184 
	C550.440674,86.782036 545.121582,85.306076 541.534546,82.643906 
	C534.199219,77.199974 535.440918,68.743492 536.638611,60.920097 
	C537.643494,54.356461 541.342163,49.496525 547.919250,47.686508 
	C551.645874,46.660957 555.618530,46.076420 559.481873,46.068851 
	C611.805969,45.966297 664.130432,45.972126 716.454590,46.044792 
	C721.457703,46.051743 724.469055,44.610050 725.117249,39.079788 
	C726.138672,30.365545 727.848389,21.733690 728.958008,13.027616 
	C730.105957,4.020917 729.944946,4.000089 721.026184,4.000084 
	C666.868896,4.000058 612.711365,3.928483 558.554504,4.088224 
	C551.543457,4.108904 544.468994,4.919972 537.539307,6.063987 
	C517.040039,9.448199 503.766449,21.500134 496.967621,40.948959 
	C491.249725,57.305775 489.381134,74.131630 492.184723,91.195328 
	C493.181366,97.261276 495.535797,103.368217 498.481384,108.799690 
	C506.866394,124.261032 521.609192,129.588364 537.828308,129.814102 
	C578.313538,130.377640 618.811829,129.973358 659.304749,130.045990 
	C662.887756,130.052414 666.634949,130.160324 670.013855,131.184540 
	C675.267212,132.776947 680.824829,137.183884 680.110962,143.963013 
	C679.555603,149.236954 680.039734,154.616516 679.991089,159.948486 
	C679.905579,169.314209 676.379517,176.306412 665.243896,178.999634 
M1346.999023,15.436621 
	C1344.333008,28.946400 1342.096436,42.558750 1338.900635,55.942047 
	C1334.025391,76.357826 1328.512573,96.606438 1319.121338,115.571747 
	C1308.238770,137.548248 1295.292236,158.250305 1281.273682,178.330307 
	C1279.526978,180.832321 1278.639526,183.934250 1277.354126,186.758270 
	C1280.610107,187.505493 1283.859863,188.865860 1287.123169,188.899445 
	C1306.781738,189.101761 1326.445068,188.853851 1346.103516,189.061157 
	C1356.055908,189.166092 1363.744873,186.782379 1370.710327,178.304428 
	C1384.068604,162.045319 1397.506836,145.935806 1409.177002,128.384766 
	C1420.987183,110.623459 1430.355957,91.715729 1437.170532,71.513893 
	C1443.697388,52.164932 1448.894165,32.493622 1452.053223,12.296475 
	C1452.973022,6.416298 1452.006836,4.770348 1446.103760,4.027181 
	C1442.210327,3.536992 1438.281860,3.060907 1434.367188,3.044876 
	C1411.874512,2.952767 1389.380981,2.949207 1366.888306,3.050031 
	C1363.139771,3.066834 1359.336548,3.452357 1355.660156,4.180393 
	C1349.451050,5.409913 1347.078369,8.487901 1346.999023,15.436621 
M1270.993530,73.413879 
	C1272.997559,63.243904 1275.227905,53.111839 1276.940796,42.893085 
	C1278.582397,33.099922 1279.591553,23.202507 1281.058350,13.377717 
	C1282.214600,5.633164 1280.785767,3.124201 1273.500488,3.071895 
	C1248.187378,2.890153 1222.871704,2.920073 1197.558105,3.058511 
	C1191.192017,3.093326 1187.538818,6.650472 1186.994141,12.215810 
	C1185.687622,25.569714 1184.634033,38.957664 1182.917480,52.259499 
	C1181.274658,64.991089 1179.742065,77.829956 1176.720215,90.271782 
	C1169.704102,119.160545 1160.044556,147.242676 1148.696655,174.735352 
	C1147.015137,178.809265 1145.768677,183.062790 1144.201416,187.577591 
	C1147.198975,188.208206 1149.078613,188.940475 1150.961304,188.947983 
	C1171.612183,189.030334 1192.263916,189.074738 1212.914429,188.950577 
	C1218.565186,188.916611 1223.125977,186.820877 1225.559814,181.059097 
	C1227.192017,177.194519 1229.454102,173.581604 1231.584961,169.944397 
	C1242.821411,150.764648 1252.736084,130.938675 1259.971191,109.897865 
	C1264.010498,98.151085 1267.307495,86.149055 1270.993530,73.413879 
M1033.992310,87.244057 
	C1033.653931,90.329498 1033.389160,93.425117 1032.964478,96.498627 
	C1031.002319,110.700172 1029.021973,124.899307 1026.997437,139.092072 
	C1025.044189,152.785950 1023.103760,166.482483 1021.008423,180.154953 
	C1019.976929,186.885529 1021.584656,188.989044 1028.439575,188.995117 
	C1044.932861,189.009766 1061.429688,189.191971 1077.916992,188.879608 
	C1082.688599,188.789215 1088.858154,189.487961 1090.770874,183.324905 
	C1095.458862,168.219818 1100.222778,153.092117 1103.823730,137.708450 
	C1107.588989,121.622910 1110.335083,105.276474 1112.956177,88.952461 
	C1115.076782,75.745277 1116.369385,62.404430 1117.990967,49.118187 
	C1118.625122,43.922207 1119.328247,38.725452 1119.690063,33.507561 
	C1120.260986,25.277836 1120.768311,17.031071 1120.814087,8.788780 
	C1120.822632,7.246838 1118.840210,5.066727 1117.239990,4.298250 
	C1115.134644,3.287202 1112.499756,3.060831 1110.090210,3.051142 
	C1088.599365,2.964723 1067.108032,2.957676 1045.617065,3.034440 
	C1041.032104,3.050817 1038.165039,6.278582 1037.974121,10.760550 
	C1037.756958,15.853153 1037.280396,20.934196 1037.019775,26.025536 
	C1035.991089,46.121017 1035.002686,66.218567 1033.992310,87.244057 
z"/>
<path fill="#FFC800" opacity="1.000000" stroke="none" 
	d="
M1921.000000,169.531326 
	C1920.334595,170.619934 1919.277100,171.126694 1919.060669,171.876282 
	C1911.587036,197.764984 1895.514404,214.422913 1868.328003,218.962067 
	C1861.886230,220.037659 1855.317383,220.888596 1848.803589,220.912125 
	C1802.974609,221.077805 1757.144653,220.962112 1711.315308,221.044403 
	C1705.054321,221.055634 1698.787598,222.011078 1692.536255,221.886505 
	C1687.859375,221.793304 1683.097168,221.073837 1678.563477,219.898483 
	C1672.495361,218.325378 1670.766724,214.498047 1671.893433,208.149048 
	C1675.015381,190.556076 1677.880249,172.917297 1681.030640,155.329544 
	C1683.836060,139.667374 1686.973389,124.064842 1689.805786,108.407326 
	C1692.640381,92.737198 1695.240234,77.024757 1698.013794,61.343384 
	C1700.729980,45.986019 1703.413452,30.620928 1706.362427,15.307588 
	C1707.537476,9.205951 1710.914185,4.383392 1716.332397,1.258871 
	C1770.687622,1.000000 1825.375122,1.000000 1880.194092,1.299761 
	C1881.299316,2.067273 1882.227661,2.707899 1883.253540,2.976687 
	C1896.985596,6.574811 1907.865479,13.882060 1913.603882,27.268879 
	C1917.525513,36.417858 1918.566040,46.170105 1918.010864,56.101540 
	C1917.249512,69.722778 1911.488159,80.785812 1900.673340,88.973885 
	C1894.802979,93.418381 1888.420410,97.186462 1881.875366,101.520309 
	C1884.642212,103.228165 1887.443848,105.056572 1890.336914,106.726257 
	C1903.381470,114.254242 1914.164917,123.781960 1919.067139,138.651764 
	C1919.263794,139.248749 1920.335815,139.557144 1921.000000,140.000015 
	C1921.000000,149.687561 1921.000000,159.375122 1921.000000,169.531326 
M1863.000000,149.572723 
	C1863.862183,139.803070 1857.051147,128.245041 1845.769409,125.988602 
	C1839.574463,124.749550 1833.295044,123.215034 1827.036865,123.135002 
	C1801.714111,122.811172 1776.384888,123.016426 1751.057983,122.980247 
	C1747.853271,122.975670 1746.458618,124.226624 1745.916626,127.565498 
	C1743.079102,145.044022 1739.999878,162.483749 1736.932861,179.924332 
	C1735.864624,185.998795 1735.771240,186.051727 1741.754639,185.988174 
	C1770.673218,185.681030 1799.597656,185.599838 1828.507568,184.910645 
	C1849.388306,184.412842 1863.132935,172.327820 1863.000000,149.572723 
M1750.060913,74.783241 
	C1749.722534,76.871269 1749.430908,78.968124 1749.037354,81.045685 
	C1747.820801,87.469009 1749.715942,90.021973 1756.335815,89.962570 
	C1783.577759,89.718163 1810.829468,89.697266 1838.054932,88.857643 
	C1853.331909,88.386497 1862.834595,74.122330 1862.166260,60.594688 
	C1861.554688,48.220802 1851.762573,41.485168 1839.381958,41.191917 
	C1813.073242,40.568768 1786.739380,40.987133 1760.415894,41.027706 
	C1758.009033,41.031418 1756.339355,41.619816 1755.850098,44.797619 
	C1754.344116,54.575867 1752.318481,64.274071 1750.060913,74.783241 
z"/>
<path fill="#FFC800" opacity="1.000000" stroke="none" 
	d="
M1676.531372,0.999989 
	C1677.953613,1.666405 1678.910767,2.905491 1679.860107,2.899363 
	C1683.807739,2.873878 1685.472290,4.878426 1684.951660,8.478556 
	C1683.512573,18.431534 1681.953613,28.370388 1680.227417,38.277431 
	C1679.225464,44.028423 1674.755981,44.995346 1669.859741,44.996357 
	C1636.206299,45.003311 1602.552612,44.919018 1568.899658,45.045956 
	C1557.808716,45.087788 1546.710327,45.510681 1535.640137,46.172085 
	C1534.011230,46.269405 1531.521973,48.422779 1531.131836,50.036156 
	C1529.116577,58.371601 1527.648438,66.839600 1526.007202,75.264809 
	C1525.758911,76.539307 1525.757935,77.880074 1525.375244,79.106735 
	C1524.422241,82.161682 1526.155518,83.367226 1528.638428,83.942833 
	C1529.746094,84.199615 1530.960815,83.999352 1532.126953,83.999374 
	C1569.112427,84.000114 1606.097778,83.998672 1643.083252,84.001411 
	C1648.541870,84.001816 1650.627197,85.713295 1649.906128,90.865997 
	C1648.467773,101.147049 1646.704834,111.394867 1644.670288,121.575333 
	C1643.605713,126.901695 1640.320557,128.994324 1634.737305,128.995621 
	C1597.918457,129.004181 1561.099365,129.056976 1524.281006,128.931839 
	C1519.348267,128.915085 1516.422241,129.859711 1515.643188,135.568512 
	C1514.173950,146.335495 1511.919434,156.995102 1510.004517,167.701706 
	C1509.517456,170.424606 1508.851318,173.147354 1508.741943,175.889114 
	C1508.701782,176.893784 1509.822754,178.395828 1510.801758,178.869202 
	C1511.883545,179.392319 1513.409912,178.999451 1514.742676,178.999481 
	C1557.892334,179.000122 1601.042725,179.134644 1644.191162,178.911102 
	C1655.869873,178.850616 1654.438965,180.710571 1653.785522,190.274780 
	C1653.283203,197.626846 1651.103882,204.892059 1649.369873,212.123856 
	C1647.877319,218.349335 1645.303345,220.330902 1638.977539,220.991867 
	C1638.647949,221.026321 1638.311646,220.995636 1637.978516,220.999939 
	C1612.232910,221.332504 1586.486938,221.958984 1560.741821,221.926697 
	C1525.999390,221.883118 1491.257935,221.273193 1456.515259,221.041046 
	C1447.618408,220.981583 1443.430786,215.971085 1444.915649,207.039810 
	C1447.742554,190.035416 1450.198608,172.969223 1453.042725,155.967865 
	C1455.479980,141.398407 1458.340332,126.900116 1460.837158,112.340096 
	C1463.338867,97.750282 1465.538940,83.108841 1468.024902,68.516228 
	C1470.452881,54.265934 1473.075806,40.048904 1475.611084,25.816914 
	C1476.408203,21.341686 1477.237183,16.871677 1477.982910,12.387871 
	C1479.115845,5.575361 1481.457153,3.452343 1488.194580,2.947316 
	C1489.382202,2.858293 1490.519409,2.094121 1491.339844,1.320875 
	C1552.687622,1.000000 1614.375122,1.000000 1676.531372,0.999989 
z"/>
<path fill="#FFC800" opacity="1.000000" stroke="none" 
	d="
M345.531342,0.999995 
	C346.798096,1.665369 347.563538,2.852842 348.399902,2.905088 
	C351.884735,3.122777 355.408386,3.222237 358.885315,2.950108 
	C364.754364,2.490747 368.504700,5.277668 370.696960,10.340009 
	C376.477081,23.687222 382.159454,37.077328 387.795532,50.486168 
	C394.494202,66.422905 401.102753,82.397507 407.752350,98.354866 
	C419.622620,126.840500 431.504059,155.321457 443.360016,183.813034 
	C447.332581,193.359573 451.371307,202.881851 455.132446,212.511795 
	C457.490387,218.548920 456.031891,220.586670 449.508728,220.965790 
	C446.354156,221.149139 443.180237,220.999802 440.015076,220.999878 
	C428.503082,221.000183 416.983063,221.269272 405.481354,220.925049 
	C393.741272,220.573685 389.249573,218.857101 385.746735,206.617462 
	C382.418457,194.987656 377.829895,183.723663 374.040863,172.218018 
	C372.541046,167.663879 369.757538,165.945435 365.099640,165.955399 
	C327.784210,166.035233 290.468262,166.084732 253.153290,165.931992 
	C245.230835,165.899582 241.141693,170.988770 237.226395,176.458313 
	C228.635590,188.459396 220.245499,200.603958 211.728836,212.658417 
	C207.487503,218.661575 201.140076,220.743896 194.284470,220.917099 
	C182.464310,221.215652 170.627991,221.144119 158.805954,220.885559 
	C156.250595,220.829651 152.378128,219.980972 151.561646,218.304550 
	C150.716583,216.569443 152.286148,212.982956 153.767822,210.892624 
	C172.167099,184.935165 190.732742,159.095535 209.276627,133.240677 
	C227.906265,107.266273 246.510300,81.273247 265.220612,55.357006 
	C276.720581,39.428040 288.200226,23.474739 300.189728,7.918265 
	C302.224762,5.277814 306.767517,4.530950 310.203888,3.028553 
	C311.625397,2.407058 313.184235,2.099726 314.340332,1.324760 
	C324.354218,1.000000 334.708466,1.000000 345.531342,0.999995 
M282.478210,114.031860 
	C279.393890,118.504768 276.309570,122.977669 272.653534,128.279694 
	C301.987976,128.279694 330.346771,128.279694 359.062378,128.279694 
	C349.562836,101.052711 340.326447,74.579895 330.767670,47.183105 
	C326.510590,53.104439 322.830078,58.233410 319.139648,63.355263 
	C307.093445,80.073990 295.043579,96.790115 282.478210,114.031860 
z"/>
<path fill="#FFC800" opacity="1.000000" stroke="none" 
	d="
M228.531342,1.000002 
	C229.953644,1.666439 230.909149,2.902844 231.860580,2.899707 
	C235.780838,2.886781 237.478882,4.840304 236.954620,8.461013 
	C235.513626,18.413260 233.975601,28.355125 232.238144,38.259373 
	C231.237396,43.963970 226.813873,45.002380 221.885941,45.001839 
	C189.571106,44.998295 157.255951,44.918423 124.941628,45.045940 
	C114.185852,45.088387 103.433929,45.787342 92.676735,45.943115 
	C88.177612,46.008266 87.675957,49.771839 87.193871,52.290665 
	C84.507820,66.324532 82.331596,80.456451 80.019508,94.561142 
	C79.340706,98.702034 81.837502,99.054771 85.128967,99.045685 
	C113.779007,98.966545 142.429367,98.997307 171.079620,99.002014 
	C177.556702,99.003075 178.491486,99.476685 177.884918,105.713470 
	C176.876266,116.084686 175.633408,126.487015 173.533035,136.679184 
	C172.138580,143.445831 169.095123,144.855652 160.068329,144.868195 
	C133.489944,144.905106 106.910950,144.309998 80.331619,144.014420 
	C72.460281,143.926895 71.082619,145.638199 69.913872,153.317490 
	C68.106728,165.191467 65.725609,176.977768 63.611237,188.805435 
	C62.383553,195.673035 60.956001,202.517120 60.064487,209.429321 
	C59.075043,217.100769 55.446915,220.904495 47.729702,220.968414 
	C34.219688,221.080338 20.707420,221.063843 7.197911,220.924820 
	C5.340939,220.905716 3.494355,219.877151 1.321481,219.657959 
	C1.000000,213.978851 1.000000,207.957703 1.326328,201.795746 
	C2.101072,200.658432 2.786391,199.701950 2.962444,198.659454 
	C5.694354,182.482925 8.286705,166.282639 11.060656,150.113464 
	C14.297783,131.244431 17.740887,112.410744 20.975798,93.541351 
	C22.788809,82.965981 24.263153,72.332664 26.065973,61.755428 
	C28.627850,46.724766 31.502571,31.746311 33.955769,16.698622 
	C35.734371,5.788864 36.214344,5.037780 46.620220,2.901156 
	C47.186394,2.784904 47.544853,1.656994 48.000000,1.000000 
	C108.020897,1.000000 168.041794,1.000000 228.531342,1.000002 
z"/>
<path fill="#FFC800" opacity="1.000000" stroke="none" 
	d="
M1008.531372,1.000014 
	C1008.794983,1.225557 1008.589966,1.451086 1008.384949,1.676601 
	C1015.299744,3.966380 1013.287537,9.868036 1012.820862,14.378146 
	C1012.005737,22.255207 1010.195007,30.039434 1008.603455,37.822067 
	C1007.679749,42.339535 1004.626892,44.060883 1000.034973,44.046139 
	C971.386047,43.954147 942.736633,43.970860 914.087524,44.013500 
	C902.133850,44.031292 904.695618,42.144367 902.160095,54.499878 
	C897.984924,74.845383 894.624023,95.360809 891.084717,115.833115 
	C888.260986,132.166931 885.785767,148.561020 882.961365,164.894730 
	C880.916260,176.721649 878.551636,188.493317 876.331787,200.290054 
	C875.552551,204.431122 874.864868,208.591583 873.984558,212.710968 
	C872.680481,218.813110 870.032532,220.980118 863.973511,220.991943 
	C850.648376,221.017960 837.323120,221.009689 823.997925,220.994751 
	C819.318604,220.989502 816.701416,218.900436 817.122070,214.212280 
	C817.847839,206.123306 819.199463,198.080872 820.521179,190.057220 
	C822.578857,177.564774 824.822388,165.102859 827.003174,152.630814 
	C829.129395,140.471100 831.274719,128.314743 833.413513,116.157227 
	C835.608032,103.682976 837.819885,91.211761 839.995056,78.734131 
	C841.473999,70.249886 842.952759,61.764954 844.325806,53.263245 
	C844.790466,50.386471 844.930847,47.457321 845.274231,43.999722 
	C842.904358,43.999722 841.124390,43.999718 839.344421,43.999722 
	C810.861816,43.999760 782.379150,44.003185 753.896545,43.997589 
	C746.241760,43.996086 743.701172,40.525299 745.431152,33.031937 
	C746.814941,27.038212 748.325256,20.994326 748.814514,14.895304 
	C749.326355,8.513860 751.400635,3.810883 757.334534,1.277914 
	C840.687561,1.000000 924.375122,1.000000 1008.531372,1.000014 
z"/>
<path fill="#FFC800" opacity="1.000000" stroke="none" 
	d="
M939.468628,321.000000 
	C945.446411,318.749298 951.993225,316.746643 958.314453,314.186707 
	C966.720337,310.782532 972.582336,303.946411 977.834473,297.099976 
	C992.187866,278.389557 1001.539551,257.085602 1008.144409,234.532196 
	C1008.415710,233.605545 1008.721313,232.688980 1008.998413,231.763977 
	C1012.125977,221.325302 1014.584106,218.541550 1024.751953,218.881119 
	C1038.901367,219.353668 1053.078491,218.974747 1067.243652,219.011871 
	C1073.338379,219.027863 1074.920654,221.448883 1072.016724,226.654816 
	C1061.174561,246.092560 1049.148315,264.595306 1033.214966,280.477966 
	C1017.143555,296.498291 998.257935,307.478180 977.080872,314.949371 
	C975.603271,315.470642 974.090149,315.891174 972.593506,316.358582 
	C972.683044,316.765503 972.772583,317.172455 972.862061,317.579376 
	C980.845581,315.909607 988.850952,314.337524 996.808533,312.552429 
	C1025.013672,306.225403 1049.564575,292.118195 1072.640991,275.508667 
	C1087.226196,265.010773 1099.744873,252.033264 1110.343750,237.344528 
	C1114.069702,232.180710 1117.973022,227.093872 1122.298218,222.439133 
	C1123.980225,220.628967 1127.035889,219.185028 1129.489746,219.147751 
	C1147.483765,218.874374 1165.484131,218.979935 1183.482056,219.039917 
	C1184.893433,219.044617 1186.341675,219.491547 1187.706177,219.936646 
	C1191.690674,221.236374 1192.289307,223.209610 1189.321045,226.115479 
	C1184.127441,231.199753 1179.052246,236.480804 1173.370728,240.975388 
	C1160.864990,250.868286 1148.471436,261.016602 1135.196899,269.798035 
	C1113.476807,284.166290 1089.683716,294.525391 1064.720459,301.883331 
	C1048.012817,306.807892 1031.031494,310.803864 1014.952026,315.011444 
	C1017.997803,314.731079 1022.052002,314.664032 1025.985840,313.941620 
	C1041.149048,311.157013 1056.539429,309.121338 1071.350464,305.020477 
	C1093.101440,298.998138 1114.644775,292.044983 1135.883667,284.397247 
	C1165.311157,273.800812 1192.699463,259.125397 1217.552368,239.958023 
	C1224.909302,234.284088 1232.051758,228.297821 1239.708130,223.062408 
	C1242.887695,220.888184 1247.133545,219.259567 1250.933105,219.177704 
	C1269.256104,218.782959 1287.593628,218.882507 1305.922485,219.098465 
	C1309.619751,219.142014 1313.302002,220.449051 1316.991211,221.173569 
	C1317.085205,221.817078 1317.179321,222.460587 1317.273315,223.104080 
	C1311.355835,227.006149 1305.646118,231.278244 1299.481445,234.740036 
	C1281.816650,244.659592 1264.301270,254.937195 1246.102783,263.790375 
	C1225.191772,273.963074 1203.388184,282.196350 1180.801514,288.015808 
	C1157.014160,294.144714 1133.247314,300.413971 1109.277100,305.748840 
	C1095.812622,308.745514 1081.966553,310.056946 1068.271729,311.979767 
	C1055.669434,313.749115 1043.065186,315.562195 1030.413574,316.902130 
	C1020.433289,317.959106 1010.376526,318.281830 1000.362244,319.042908 
	C998.658142,319.172424 996.997131,319.867828 995.658081,320.650879 
	C977.312439,321.000000 958.624878,321.000000 939.468628,321.000000 
z"/>
<path fill="#000000" opacity="1.000000" stroke="none" 
	d="
M47.531342,1.000000 
	C47.544853,1.656994 47.186394,2.784904 46.620220,2.901156 
	C36.214344,5.037780 35.734371,5.788864 33.955769,16.698622 
	C31.502571,31.746311 28.627850,46.724766 26.065973,61.755428 
	C24.263153,72.332664 22.788809,82.965981 20.975798,93.541351 
	C17.740887,112.410744 14.297783,131.244431 11.060656,150.113464 
	C8.286705,166.282639 5.694354,182.482925 2.962444,198.659454 
	C2.786391,199.701950 2.101072,200.658432 1.326328,201.327469 
	C1.000000,134.451584 1.000000,67.903175 1.000000,1.000000 
	C16.352406,1.000000 31.707544,1.000000 47.531342,1.000000 
z"/>
<path fill="#000000" opacity="1.000000" stroke="none" 
	d="
M1921.000000,139.531357 
	C1920.335815,139.557144 1919.263794,139.248749 1919.067139,138.651764 
	C1914.164917,123.781960 1903.381470,114.254242 1890.336914,106.726257 
	C1887.443848,105.056572 1884.642212,103.228165 1881.875366,101.520309 
	C1888.420410,97.186462 1894.802979,93.418381 1900.673340,88.973885 
	C1911.488159,80.785812 1917.249512,69.722778 1918.010864,56.101540 
	C1918.566040,46.170105 1917.525513,36.417858 1913.603882,27.268879 
	C1907.865479,13.882060 1896.985596,6.574811 1883.253540,2.976687 
	C1882.227661,2.707899 1881.299316,2.067273 1880.662842,1.299761 
	C1894.300659,1.000000 1907.601318,1.000000 1921.000000,1.000000 
	C1921.000000,47.020851 1921.000000,93.041763 1921.000000,139.531357 
z"/>
<path fill="#FFC800" opacity="1.000000" stroke="none" 
	d="
M665.672119,178.998108 
	C676.379517,176.306412 679.905579,169.314209 679.991089,159.948486 
	C680.039734,154.616516 679.555603,149.236954 680.110962,143.963013 
	C680.824829,137.183884 675.267212,132.776947 670.013855,131.184540 
	C666.634949,130.160324 662.887756,130.052414 659.304749,130.045990 
	C618.811829,129.973358 578.313538,130.377640 537.828308,129.814102 
	C521.609192,129.588364 506.866394,124.261032 498.481384,108.799690 
	C495.535797,103.368217 493.181366,97.261276 492.184723,91.195328 
	C489.381134,74.131630 491.249725,57.305775 496.967621,40.948959 
	C503.766449,21.500134 517.040039,9.448199 537.539307,6.063987 
	C544.468994,4.919972 551.543457,4.108904 558.554504,4.088224 
	C612.711365,3.928483 666.868896,4.000058 721.026184,4.000084 
	C729.944946,4.000089 730.105957,4.020917 728.958008,13.027616 
	C727.848389,21.733690 726.138672,30.365545 725.117249,39.079788 
	C724.469055,44.610050 721.457703,46.051743 716.454590,46.044792 
	C664.130432,45.972126 611.805969,45.966297 559.481873,46.068851 
	C555.618530,46.076420 551.645874,46.660957 547.919250,47.686508 
	C541.342163,49.496525 537.643494,54.356461 536.638611,60.920097 
	C535.440918,68.743492 534.199219,77.199974 541.534546,82.643906 
	C545.121582,85.306076 550.440674,86.782036 554.991516,86.818184 
	C594.648865,87.133110 634.312134,86.752419 673.968201,87.138779 
	C687.247437,87.268158 699.743042,91.252983 709.414001,101.029449 
	C716.690613,108.385498 720.485413,117.717056 721.951050,127.859512 
	C724.808350,147.632690 723.314880,167.331909 717.664978,186.312469 
	C712.264832,204.453964 698.671021,215.017776 680.374573,218.843063 
	C671.456482,220.707626 662.212708,221.825165 653.110107,221.865616 
	C594.121460,222.127731 535.130737,221.901550 476.141479,222.077713 
	C463.355835,222.115891 463.397461,219.625748 465.094177,208.949448 
	C466.188019,202.066711 467.660583,195.243256 469.007996,188.402008 
	C470.173523,182.484329 471.590210,179.861801 478.522400,179.887146 
	C533.845459,180.089371 589.169617,180.034943 644.493286,179.955811 
	C651.410645,179.945923 658.327026,179.333084 665.672119,178.998108 
z"/>
<path fill="#FFC800" opacity="1.000000" stroke="none" 
	d="
M1346.999512,14.995446 
	C1347.078369,8.487901 1349.451050,5.409913 1355.660156,4.180393 
	C1359.336548,3.452357 1363.139771,3.066834 1366.888306,3.050031 
	C1389.380981,2.949207 1411.874512,2.952767 1434.367188,3.044876 
	C1438.281860,3.060907 1442.210327,3.536992 1446.103760,4.027181 
	C1452.006836,4.770348 1452.973022,6.416298 1452.053223,12.296475 
	C1448.894165,32.493622 1443.697388,52.164932 1437.170532,71.513893 
	C1430.355957,91.715729 1420.987183,110.623459 1409.177002,128.384766 
	C1397.506836,145.935806 1384.068604,162.045319 1370.710327,178.304428 
	C1363.744873,186.782379 1356.055908,189.166092 1346.103516,189.061157 
	C1326.445068,188.853851 1306.781738,189.101761 1287.123169,188.899445 
	C1283.859863,188.865860 1280.610107,187.505493 1277.354126,186.758270 
	C1278.639526,183.934250 1279.526978,180.832321 1281.273682,178.330307 
	C1295.292236,158.250305 1308.238770,137.548248 1319.121338,115.571747 
	C1328.512573,96.606438 1334.025391,76.357826 1338.900635,55.942047 
	C1342.096436,42.558750 1344.333008,28.946400 1346.999512,14.995446 
z"/>
<path fill="#FFC800" opacity="1.000000" stroke="none" 
	d="
M1270.966309,73.837982 
	C1267.307495,86.149055 1264.010498,98.151085 1259.971191,109.897865 
	C1252.736084,130.938675 1242.821411,150.764648 1231.584961,169.944397 
	C1229.454102,173.581604 1227.192017,177.194519 1225.559814,181.059097 
	C1223.125977,186.820877 1218.565186,188.916611 1212.914429,188.950577 
	C1192.263916,189.074738 1171.612183,189.030334 1150.961304,188.947983 
	C1149.078613,188.940475 1147.198975,188.208206 1144.201416,187.577591 
	C1145.768677,183.062790 1147.015137,178.809265 1148.696655,174.735352 
	C1160.044556,147.242676 1169.704102,119.160545 1176.720215,90.271782 
	C1179.742065,77.829956 1181.274658,64.991089 1182.917480,52.259499 
	C1184.634033,38.957664 1185.687622,25.569714 1186.994141,12.215810 
	C1187.538818,6.650472 1191.192017,3.093326 1197.558105,3.058511 
	C1222.871704,2.920073 1248.187378,2.890153 1273.500488,3.071895 
	C1280.785767,3.124201 1282.214600,5.633164 1281.058350,13.377717 
	C1279.591553,23.202507 1278.582397,33.099922 1276.940796,42.893085 
	C1275.227905,53.111839 1272.997559,63.243904 1270.966309,73.837982 
z"/>
<path fill="#FFC800" opacity="1.000000" stroke="none" 
	d="
M1033.995850,86.779694 
	C1035.002686,66.218567 1035.991089,46.121017 1037.019775,26.025536 
	C1037.280396,20.934196 1037.756958,15.853153 1037.974121,10.760550 
	C1038.165039,6.278582 1041.032104,3.050817 1045.617065,3.034440 
	C1067.108032,2.957676 1088.599365,2.964723 1110.090210,3.051142 
	C1112.499756,3.060831 1115.134644,3.287202 1117.239990,4.298250 
	C1118.840210,5.066727 1120.822632,7.246838 1120.814087,8.788780 
	C1120.768311,17.031071 1120.260986,25.277836 1119.690063,33.507561 
	C1119.328247,38.725452 1118.625122,43.922207 1117.990967,49.118187 
	C1116.369385,62.404430 1115.076782,75.745277 1112.956177,88.952461 
	C1110.335083,105.276474 1107.588989,121.622910 1103.823730,137.708450 
	C1100.222778,153.092117 1095.458862,168.219818 1090.770874,183.324905 
	C1088.858154,189.487961 1082.688599,188.789215 1077.916992,188.879608 
	C1061.429688,189.191971 1044.932861,189.009766 1028.439575,188.995117 
	C1021.584656,188.989044 1019.976929,186.885529 1021.008423,180.154953 
	C1023.103760,166.482483 1025.044189,152.785950 1026.997437,139.092072 
	C1029.021973,124.899307 1031.002319,110.700172 1032.964478,96.498627 
	C1033.389160,93.425117 1033.653931,90.329498 1033.995850,86.779694 
z"/>
<path fill="#000000" opacity="1.000000" stroke="none" 
	d="
M1863.000000,150.041992 
	C1863.132935,172.327820 1849.388306,184.412842 1828.507568,184.910645 
	C1799.597656,185.599838 1770.673218,185.681030 1741.754639,185.988174 
	C1735.771240,186.051727 1735.864624,185.998795 1736.932861,179.924332 
	C1739.999878,162.483749 1743.079102,145.044022 1745.916626,127.565498 
	C1746.458618,124.226624 1747.853271,122.975670 1751.057983,122.980247 
	C1776.384888,123.016426 1801.714111,122.811172 1827.036865,123.135002 
	C1833.295044,123.215034 1839.574463,124.749550 1845.769409,125.988602 
	C1857.051147,128.245041 1863.862183,139.803070 1863.000000,150.041992 
z"/>
<path fill="#000000" opacity="1.000000" stroke="none" 
	d="
M1750.277832,74.393318 
	C1752.318481,64.274071 1754.344116,54.575867 1755.850098,44.797619 
	C1756.339355,41.619816 1758.009033,41.031418 1760.415894,41.027706 
	C1786.739380,40.987133 1813.073242,40.568768 1839.381958,41.191917 
	C1851.762573,41.485168 1861.554688,48.220802 1862.166260,60.594688 
	C1862.834595,74.122330 1853.331909,88.386497 1838.054932,88.857643 
	C1810.829468,89.697266 1783.577759,89.718163 1756.335815,89.962570 
	C1749.715942,90.021973 1747.820801,87.469009 1749.037354,81.045685 
	C1749.430908,78.968124 1749.722534,76.871269 1750.277832,74.393318 
z"/>
<path fill="#000000" opacity="1.000000" stroke="none" 
	d="
M282.736694,113.769547 
	C295.043579,96.790115 307.093445,80.073990 319.139648,63.355263 
	C322.830078,58.233410 326.510590,53.104439 330.767670,47.183105 
	C340.326447,74.579895 349.562836,101.052711 359.062378,128.279694 
	C330.346771,128.279694 301.987976,128.279694 272.653534,128.279694 
	C276.309570,122.977669 279.393890,118.504768 282.736694,113.769547 
z"/>
</svg>