<?xml version="1.0" standalone="no"?>
<!DOCTYPE svg PUBLIC "-//W3C//DTD SVG 20010904//EN"
 "http://www.w3.org/TR/2001/REC-SVG-20010904/DTD/svg10.dtd">
<svg version="1.0" xmlns="http://www.w3.org/2000/svg"
 width="5000.000000pt" height="3000.000000pt" viewBox="0 0 5000.000000 3000.000000"
 preserveAspectRatio="xMidYMid meet">

<g transform="translate(0.000000,3000.000000) scale(0.100000,-0.100000)"
fill="#000000" stroke="none">
<path d="M35000 28505 l0 -1495 -1997 -2 -1998 -3 -3 -2002 -2 -2003 -2000 0
-2000 0 0 -1995 0 -1995 -1994 0 c-1809 0 -1994 -1 -2000 -16 -3 -9 -6 -909
-6 -2000 l0 -1984 -1997 -2 -1998 -3 -3 -1997 c-1 -1099 -5 -1998 -10 -1998
-4 0 -904 897 -2000 1993 l-1992 1992 2 -1995 3 -1995 -1994 3 c-1591 2 -1996
0 -2003 -10 -4 -7 -8 -908 -8 -2003 l0 -1990 -1993 1993 c-1095 1095 -1995
1992 -2000 1992 -4 0 -7 -900 -7 -2000 0 -1595 -3 -1999 -12 -1995 -7 2 -1582
6 -3500 10 l-3488 7 0 -3506 0 -3506 25000 0 25000 0 0 15000 0 15000 -7500 0
-7500 0 0 -1495z"/>
</g>
</svg>
