<svg version="1.1" id="Layer_1" xmlns="http://www.w3.org/2000/svg" xmlns:xlink="http://www.w3.org/1999/xlink" x="0px" y="0px"
	 width="100%" viewBox="0 0 800 527" enable-background="new 0 0 800 527" xml:space="preserve">
<path fill="#000000" opacity="1.000000" stroke="none" 
	d="
M801.000000,481.000000 
	C801.000000,496.659119 801.000000,512.318237 801.000000,527.954407 
	C534.333313,527.954407 267.666656,527.954407 1.000000,527.954407 
	C1.000000,513.249207 1.000000,498.589630 1.359762,483.296417 
	C2.475914,484.242737 3.397420,485.766144 3.961130,487.412048 
	C6.973514,496.207581 11.831690,504.026428 19.215240,509.440643 
	C38.354366,523.474915 58.725674,525.417542 79.504257,513.040100 
	C89.523094,507.071991 96.864365,498.579681 100.419136,486.821777 
	C101.815819,481.330231 103.735359,476.078705 103.843330,470.790222 
	C104.195663,453.534302 103.887093,436.264862 103.896271,418.535706 
	C104.657265,399.415009 105.354759,380.759216 106.371262,361.865601 
	C110.055740,342.714966 115.975685,324.984497 130.399872,310.903931 
	C132.346283,309.406616 133.817078,307.713440 135.669403,306.766876 
	C143.048187,302.996124 150.545837,299.457977 158.420624,295.895935 
	C170.825256,293.470795 182.869415,293.545746 195.177704,295.411560 
	C218.066223,300.176636 233.349152,313.584869 243.176788,334.182800 
	C251.635223,351.910980 254.074585,370.772675 255.104156,390.464966 
	C255.027649,417.595245 254.796738,444.263184 255.110352,470.924683 
	C255.232025,481.267853 258.676758,490.873596 264.840088,499.348114 
	C273.379700,511.090027 284.518036,518.237793 299.180725,520.264038 
	C310.175995,521.783508 320.368652,520.546570 330.392883,515.057861 
	C342.773926,509.177795 350.182098,499.405975 355.087921,487.249786 
	C359.606659,476.052887 357.603912,464.466705 357.895508,452.534668 
	C357.972198,447.576141 358.055573,443.081512 357.988525,438.589111 
	C357.524933,407.532227 359.843445,376.377441 353.109497,345.586456 
	C348.093109,322.649048 340.260803,300.942535 327.954407,280.941895 
	C315.529114,260.748108 299.635742,243.778244 279.868164,230.583344 
	C264.294281,220.187759 247.286667,212.814148 229.190140,208.271912 
	C220.654434,206.129425 211.741821,205.488464 202.628159,203.954285 
	C200.665344,203.494217 199.075607,203.042343 197.483215,203.032867 
	C186.807800,202.969330 176.104095,202.533691 165.465973,203.166809 
	C158.578827,203.576691 151.787354,205.593674 144.553925,206.932800 
	C133.401917,211.633163 122.649002,216.291214 111.544044,220.988556 
	C108.957321,222.170151 106.722633,223.312469 103.831848,224.790146 
	C103.831848,201.616592 103.831848,179.308853 103.895096,156.536133 
	C103.972565,121.115868 104.401794,86.152191 103.693436,51.211571 
	C103.527527,43.028088 100.608521,34.395439 97.012001,26.902613 
	C91.351158,15.109058 81.271797,7.433300 68.870689,2.980714 
	C68.108345,2.706997 67.617279,1.677730 67.000000,1.000000 
	C311.577759,1.000000 556.155518,1.000000 801.000000,1.000000 
	C801.000000,150.689880 801.000000,300.379944 800.648682,450.728943 
	C799.784851,450.414917 799.167664,449.482117 798.776184,448.462677 
	C794.747803,437.972351 788.068665,429.771606 778.505981,423.717224 
	C771.631348,419.364746 764.268005,417.570160 756.267761,416.804108 
	C746.552612,415.873901 737.442993,416.879333 728.593018,421.946533 
	C724.442383,424.544891 720.191772,426.606995 716.936829,429.712616 
	C701.455139,444.484100 697.419861,469.900574 707.438721,489.790802 
	C715.219421,505.237640 728.366760,513.812012 745.227600,515.811768 
	C757.488342,517.265869 769.610107,515.710754 780.329834,507.781891 
	C789.998291,501.152649 796.348511,492.457367 799.438843,481.411072 
	C799.512207,481.148987 800.460022,481.131531 801.000000,481.000000 
M424.346161,236.267517 
	C417.529572,244.161469 410.712982,252.055435 403.289520,260.250183 
	C401.347107,262.865204 399.048370,265.289764 397.529877,268.131317 
	C393.166748,276.296021 389.119202,284.629364 384.342010,293.286407 
	C383.768921,294.473755 383.088989,295.622070 382.638580,296.854248 
	C373.656555,321.427216 369.253052,346.538544 371.802521,372.881226 
	C373.365814,389.033844 376.239532,404.729584 382.087463,419.826965 
	C390.030640,440.333710 401.529510,458.673157 416.954987,474.366821 
	C430.903259,488.557617 446.923950,499.879425 465.154816,508.094269 
	C483.910492,516.545654 503.288116,522.283691 524.507996,523.767578 
	C535.747986,523.517944 547.035645,523.817078 558.212952,522.845825 
	C567.226318,522.062683 576.106323,519.745789 585.854675,518.022034 
	C605.364685,513.916992 622.771545,505.140289 639.730957,493.733948 
	C649.823730,484.651672 660.204956,475.863007 669.880554,466.356232 
	C674.334106,461.980408 677.405640,456.198029 681.714050,450.744568 
	C685.828735,443.518982 690.846130,436.647919 693.854797,428.987885 
	C698.855835,416.255127 702.567444,403.015839 706.958435,389.137878 
	C706.997314,388.139282 706.980652,387.134888 707.083984,386.143005 
	C708.039185,376.976685 709.804138,367.809601 709.770508,358.648499 
	C709.734497,348.833588 708.318359,338.982178 706.960999,329.222290 
	C704.006470,307.977539 696.256531,288.445984 685.068970,270.207855 
	C676.001221,255.425583 664.472290,242.889648 651.283020,231.671661 
	C632.687195,215.855225 611.436951,205.441330 587.220764,198.995865 
	C566.115723,193.384201 544.745361,191.300171 522.136047,194.036240 
	C515.374512,195.026093 508.403259,195.288635 501.897156,197.164429 
	C490.104309,200.564484 478.588623,204.925690 466.233276,209.002579 
	C451.036224,215.850967 437.254913,224.848236 424.346161,236.267517 
z"/>
<path fill="#6D4395" opacity="1.000000" stroke="none" 
	d="
M103.831848,157.001114 
	C103.831848,179.308853 103.831848,201.616592 103.831848,224.790146 
	C106.722633,223.312469 108.957321,222.170151 111.803574,221.210434 
	C113.441414,222.697495 114.603165,223.917831 115.473358,225.319214 
	C126.369690,242.866943 137.289169,260.400970 148.051605,278.030762 
	C151.591034,283.828644 154.695892,289.891846 157.999481,295.833710 
	C150.545837,299.457977 143.048187,302.996124 135.669403,306.766876 
	C133.817078,307.713440 132.346283,309.406616 130.180405,310.639587 
	C129.096359,309.698517 128.498123,308.895538 127.972565,308.047485 
	C87.522957,242.778732 47.095173,177.496429 6.562152,112.279541 
	C5.256538,110.178833 2.878246,108.744812 1.000000,107.000000 
	C1.000000,84.312439 1.000000,61.624878 1.360498,38.632462 
	C2.474570,36.771030 3.121574,35.151184 4.001183,33.669422 
	C6.943655,28.712631 9.969307,23.805220 13.147828,19.173153 
	C21.837624,33.178955 30.348583,46.886852 38.846569,60.602791 
	C58.295650,91.994041 77.759918,123.375946 97.146973,154.805466 
	C98.887703,157.627487 100.606224,159.287323 103.831848,157.001114 
z"/>
<path fill="#81378C" opacity="1.000000" stroke="none" 
	d="
M100.112411,487.044922 
	C96.864365,498.579681 89.523094,507.071991 79.504257,513.040100 
	C58.725674,525.417542 38.354366,523.474915 19.215240,509.440643 
	C11.831690,504.026428 6.973514,496.207581 3.961130,487.412048 
	C3.397420,485.766144 2.475914,484.242737 1.359762,482.831421 
	C1.000000,432.312439 1.000000,381.624878 1.290917,330.631195 
	C3.072778,332.087006 4.812383,333.694397 6.017547,335.633911 
	C25.609070,367.163452 45.106838,398.751251 64.681725,430.291138 
	C76.442116,449.239990 88.298935,468.129028 100.112411,487.044922 
z"/>
<path fill="#733F92" opacity="1.000000" stroke="none" 
	d="
M1.000000,107.468658 
	C2.878246,108.744812 5.256538,110.178833 6.562152,112.279541 
	C47.095173,177.496429 87.522957,242.778732 127.972565,308.047485 
	C128.498123,308.895538 129.096359,309.698517 129.880127,310.786896 
	C115.975685,324.984497 110.055740,342.714966 106.240013,361.479248 
	C104.825699,357.512878 104.736832,353.156067 102.767044,349.957642 
	C70.340485,297.305420 37.686275,244.793335 5.023654,192.286819 
	C4.008556,190.655014 2.355592,189.419998 1.000002,188.000000 
	C1.000000,161.312439 1.000000,134.624878 1.000000,107.468658 
z"/>
<path fill="#664798" opacity="1.000000" stroke="none" 
	d="
M103.895096,156.536133 
	C100.606224,159.287323 98.887703,157.627487 97.146973,154.805466 
	C77.759918,123.375946 58.295650,91.994041 38.846569,60.602791 
	C30.348583,46.886852 21.837624,33.178955 13.293410,18.876930 
	C19.421419,10.977164 27.076361,5.922153 36.176533,2.979693 
	C36.919998,2.739300 37.398422,1.679210 38.000000,1.000000 
	C47.354229,1.000000 56.708454,1.000000 66.531342,1.000000 
	C67.617279,1.677730 68.108345,2.706997 68.870689,2.980714 
	C81.271797,7.433300 91.351158,15.109058 97.012001,26.902613 
	C100.608521,34.395439 103.527527,43.028088 103.693436,51.211571 
	C104.401794,86.152191 103.972565,121.115868 103.895096,156.536133 
z"/>
<path fill="#7D3A8E" opacity="1.000000" stroke="none" 
	d="
M100.419128,486.821777 
	C88.298935,468.129028 76.442116,449.239990 64.681725,430.291138 
	C45.106838,398.751251 25.609070,367.163452 6.017547,335.633911 
	C4.812383,333.694397 3.072778,332.087006 1.290917,330.162537 
	C1.000000,306.645782 1.000000,283.291534 1.316430,259.592224 
	C3.398004,261.171722 5.522679,262.873199 6.875504,265.053589 
	C37.757076,314.826630 68.542084,364.659546 99.417953,414.436096 
	C100.508408,416.194061 102.344299,417.489594 103.832764,419.000641 
	C103.887093,436.264862 104.195663,453.534302 103.843330,470.790222 
	C103.735359,476.078705 101.815819,481.330231 100.419128,486.821777 
z"/>
<path fill="#793C90" opacity="1.000000" stroke="none" 
	d="
M103.896263,418.535706 
	C102.344299,417.489594 100.508408,416.194061 99.417953,414.436096 
	C68.542084,364.659546 37.757076,314.826630 6.875504,265.053589 
	C5.522679,262.873199 3.398004,261.171722 1.316430,259.123596 
	C1.000000,235.645767 1.000000,212.291550 1.000002,188.468658 
	C2.355592,189.419998 4.008556,190.655014 5.023654,192.286819 
	C37.686275,244.793335 70.340485,297.305420 102.767044,349.957642 
	C104.736832,353.156067 104.825699,357.512878 105.921005,361.717072 
	C105.354759,380.759216 104.657265,399.415009 103.896263,418.535706 
z"/>
<path fill="#3564AE" opacity="1.000000" stroke="none" 
	d="
M728.951965,421.891113 
	C737.442993,416.879333 746.552612,415.873901 756.267761,416.804108 
	C764.268005,417.570160 771.631348,419.364746 778.505981,423.717224 
	C788.068665,429.771606 794.747803,437.972351 798.776184,448.462677 
	C799.167664,449.482117 799.784851,450.414917 800.648682,451.193970 
	C801.000000,460.687561 801.000000,470.375122 801.000000,480.531311 
	C800.460022,481.131531 799.512207,481.148987 799.438843,481.411072 
	C796.348511,492.457367 789.998291,501.152649 780.270752,507.424561 
	C778.676819,504.392944 777.737793,501.507111 776.219666,498.967468 
	C771.606140,491.249878 766.725891,483.692291 762.027161,476.024841 
	C750.978088,457.994934 739.974182,439.937439 728.951965,421.891113 
z"/>
<path fill="#000000" opacity="1.000000" stroke="none" 
	d="
M37.531342,1.000000 
	C37.398422,1.679210 36.919998,2.739300 36.176533,2.979693 
	C27.076361,5.922153 19.421419,10.977164 13.108684,18.582676 
	C9.969307,23.805220 6.943655,28.712631 4.001183,33.669422 
	C3.121574,35.151184 2.474570,36.771030 1.360498,38.163803 
	C1.000000,25.740049 1.000000,13.480098 1.000000,1.000000 
	C13.020000,1.000000 25.041342,1.000000 37.531342,1.000000 
z"/>
<path fill="#654899" opacity="1.000000" stroke="none" 
	d="
M357.832581,452.999573 
	C357.603912,464.466705 359.606659,476.052887 355.087921,487.249786 
	C350.182098,499.405975 342.773926,509.177795 330.461792,514.699341 
	C329.481628,511.608643 329.431915,508.420044 327.997253,506.080902 
	C308.089996,473.623077 288.033813,441.256226 267.907471,408.933533 
	C263.889130,402.480164 259.425568,396.304047 255.167297,390.000061 
	C254.074585,370.772675 251.635223,351.910980 243.176788,334.182800 
	C233.349152,313.584869 218.066223,300.176636 195.350250,295.122742 
	C197.462128,291.603668 195.765213,289.276794 194.237732,286.804779 
	C177.786469,260.180939 161.375198,233.532333 144.953003,206.890518 
	C151.787354,205.593674 158.578827,203.576691 165.465973,203.166809 
	C176.104095,202.533691 186.807800,202.969330 197.483215,203.032867 
	C199.075607,203.042343 200.665344,203.494217 202.687103,204.307434 
	C207.391876,212.375778 211.435120,220.020874 215.975525,227.358337 
	C261.298615,300.602203 306.690247,373.803680 352.147064,446.964600 
	C353.576691,449.265472 355.916901,451.000671 357.832581,452.999573 
z"/>
<path fill="#57509F" opacity="1.000000" stroke="none" 
	d="
M523.956543,523.109619 
	C503.288116,522.283691 483.910492,516.545654 465.154816,508.094269 
	C446.923950,499.879425 430.903259,488.557617 416.954987,474.366821 
	C401.529510,458.673157 390.030640,440.333710 382.087463,419.826965 
	C376.239532,404.729584 373.365814,389.033844 371.802521,372.881226 
	C369.253052,346.538544 373.656555,321.427216 382.638580,296.854248 
	C383.088989,295.622070 383.768921,294.473755 384.832214,293.383667 
	C405.940979,326.744080 426.556946,360.008850 447.178833,393.270020 
	C472.451477,434.032532 497.766663,474.768860 522.889832,515.623291 
	C524.100830,517.592712 523.639221,520.590637 523.956543,523.109619 
z"/>
<path fill="#5E4C9C" opacity="1.000000" stroke="none" 
	d="
M357.895508,452.534668 
	C355.916901,451.000671 353.576691,449.265472 352.147064,446.964600 
	C306.690247,373.803680 261.298615,300.602203 215.975525,227.358337 
	C211.435120,220.020874 207.391876,212.375778 203.058960,204.520294 
	C211.741821,205.488464 220.654434,206.129425 229.190140,208.271912 
	C247.286667,212.814148 264.294281,220.187759 279.868164,230.583344 
	C299.635742,243.778244 315.529114,260.748108 327.954407,280.941895 
	C340.260803,300.942535 348.093109,322.649048 353.109497,345.586456 
	C359.843445,376.377441 357.524933,407.532227 357.988525,438.589111 
	C358.055573,443.081512 357.972198,447.576141 357.895508,452.534668 
z"/>
<path fill="#3B60AB" opacity="1.000000" stroke="none" 
	d="
M706.822083,389.989899 
	C702.567444,403.015839 698.855835,416.255127 693.854797,428.987885 
	C690.846130,436.647919 685.828735,443.518982 681.189087,450.632355 
	C662.655212,421.426117 644.672668,392.315674 626.587158,363.269318 
	C625.144104,360.951752 622.989502,359.077209 621.102844,356.541229 
	C620.022400,348.637543 619.614014,341.042511 617.860962,333.771667 
	C614.130615,318.299072 606.391541,304.647522 594.907959,293.784607 
	C588.224243,287.462158 579.699707,283.085785 571.969604,277.466888 
	C570.899780,274.684143 570.146729,272.094025 568.783142,269.879913 
	C557.647522,251.798920 546.315674,233.838547 535.224426,215.730682 
	C530.911316,208.688995 527.062866,201.362732 523.002747,194.166092 
	C544.745361,191.300171 566.115723,193.384201 587.616821,199.478210 
	C588.957031,202.735077 589.419128,205.806503 590.917664,208.239624 
	C614.198486,246.040543 637.615662,283.757538 660.996765,321.496704 
	C673.957092,342.415863 686.829285,363.390564 699.972534,384.194000 
	C701.496277,386.605774 704.502930,388.080658 706.822083,389.989899 
z"/>
<path fill="#5154A2" opacity="1.000000" stroke="none" 
	d="
M524.232300,523.438599 
	C523.639221,520.590637 524.100830,517.592712 522.889832,515.623291 
	C497.766663,474.768860 472.451477,434.032532 447.178833,393.270020 
	C426.556946,360.008850 405.940979,326.744080 385.135010,293.188660 
	C389.119202,284.629364 393.166748,276.296021 397.529877,268.131317 
	C399.048370,265.289764 401.347107,262.865204 403.871338,260.297791 
	C406.276245,262.474731 408.410156,264.410614 409.874298,266.763336 
	C424.203613,289.788666 438.363678,312.919434 452.740814,335.914612 
	C454.616516,338.914734 457.444916,341.319183 459.895874,344.449371 
	C459.645477,350.164062 458.579468,355.516785 459.181915,360.674561 
	C460.260590,369.909363 461.499481,379.283386 464.190094,388.137756 
	C469.178192,404.553070 478.621948,418.294312 492.184784,429.069641 
	C506.787628,440.671234 523.820923,445.058289 542.124023,446.481689 
	C549.215576,458.112946 556.290344,469.366028 563.124939,480.763245 
	C570.548218,493.142090 577.748169,505.654907 585.045532,518.109314 
	C576.106323,519.745789 567.226318,522.062683 558.212952,522.845825 
	C547.035645,523.817078 535.747986,523.517944 524.232300,523.438599 
z"/>
<path fill="#3564AE" opacity="1.000000" stroke="none" 
	d="
M706.890259,389.563904 
	C704.502930,388.080658 701.496277,386.605774 699.972534,384.194000 
	C686.829285,363.390564 673.957092,342.415863 660.996765,321.496704 
	C637.615662,283.757538 614.198486,246.040543 590.917664,208.239624 
	C589.419128,205.806503 588.957031,202.735077 588.007263,199.562622 
	C611.436951,205.441330 632.687195,215.855225 651.283020,231.671661 
	C664.472290,242.889648 676.001221,255.425583 685.068970,270.207855 
	C696.256531,288.445984 704.006470,307.977539 706.960999,329.222290 
	C708.318359,338.982178 709.734497,348.833588 709.770508,358.648499 
	C709.804138,367.809601 708.039185,376.976685 707.083984,386.143005 
	C706.980652,387.134888 706.997314,388.139282 706.890259,389.563904 
z"/>
<path fill="#425CA8" opacity="1.000000" stroke="none" 
	d="
M621.165588,356.996796 
	C622.989502,359.077209 625.144104,360.951752 626.587158,363.269318 
	C644.672668,392.315674 662.655212,421.426117 680.883911,450.786804 
	C677.405640,456.198029 674.334106,461.980408 669.880554,466.356232 
	C660.204956,475.863007 649.823730,484.651672 639.350586,493.521301 
	C635.877197,487.649017 633.027771,481.839111 629.646118,476.357483 
	C618.830872,458.826141 607.818298,441.416534 597.033813,423.650726 
	C598.394165,421.792786 599.733765,420.328003 600.788025,418.680542 
	C604.918274,412.226532 609.566162,406.010864 612.902283,399.161407 
	C619.344482,385.934967 621.546265,371.668243 621.165588,356.996796 
z"/>
<path fill="#425CA8" opacity="1.000000" stroke="none" 
	d="
M522.569397,194.101166 
	C527.062866,201.362732 530.911316,208.688995 535.224426,215.730682 
	C546.315674,233.838547 557.647522,251.798920 568.783142,269.879913 
	C570.146729,272.094025 570.899780,274.684143 571.714600,277.511536 
	C571.325073,277.885223 571.156738,277.847412 570.811462,277.672516 
	C570.393982,277.358948 570.147949,277.190399 569.518799,276.997314 
	C554.601196,271.358887 539.647217,269.976257 524.389587,273.032745 
	C518.188049,274.275085 512.125732,276.212311 505.941223,277.480408 
	C505.259644,275.605530 504.836365,273.960388 503.983795,272.580444 
	C493.187592,255.105103 482.233704,237.726212 471.569885,220.170914 
	C469.486328,216.740829 468.467255,212.664139 466.957214,208.885681 
	C478.588623,204.925690 490.104309,200.564484 501.897156,197.164429 
	C508.403259,195.288635 515.374512,195.026093 522.569397,194.101166 
z"/>
<path fill="#6B4496" opacity="1.000000" stroke="none" 
	d="
M255.104156,390.464966 
	C259.425568,396.304047 263.889130,402.480164 267.907471,408.933533 
	C288.033813,441.256226 308.089996,473.623077 327.997253,506.080902 
	C329.431915,508.420044 329.481628,511.608643 330.106384,514.760742 
	C320.368652,520.546570 310.175995,521.783508 299.180725,520.264038 
	C284.518036,518.237793 273.379700,511.090027 264.840088,499.348114 
	C258.676758,490.873596 255.232025,481.267853 255.110352,470.924683 
	C254.796738,444.263184 255.027649,417.595245 255.104156,390.464966 
z"/>
<path fill="#4958A5" opacity="1.000000" stroke="none" 
	d="
M596.881958,423.959930 
	C607.818298,441.416534 618.830872,458.826141 629.646118,476.357483 
	C633.027771,481.839111 635.877197,487.649017 639.050781,493.673157 
	C622.771545,505.140289 605.364685,513.916992 585.450073,518.065674 
	C577.748169,505.654907 570.548218,493.142090 563.124939,480.763245 
	C556.290344,469.366028 549.215576,458.112946 542.548279,446.417969 
	C548.530273,445.221191 554.267151,444.678864 559.879822,443.530182 
	C574.085022,440.622986 586.040222,433.307373 596.881958,423.959930 
z"/>
<path fill="#3B60AB" opacity="1.000000" stroke="none" 
	d="
M728.593018,421.946533 
	C739.974182,439.937439 750.978088,457.994934 762.027161,476.024841 
	C766.725891,483.692291 771.606140,491.249878 776.219666,498.967468 
	C777.737793,501.507111 778.676819,504.392944 779.939697,507.477783 
	C769.610107,515.710754 757.488342,517.265869 745.227600,515.811768 
	C728.366760,513.812012 715.219421,505.237640 707.438721,489.790802 
	C697.419861,469.900574 701.455139,444.484100 716.936829,429.712616 
	C720.191772,426.606995 724.442383,424.544891 728.593018,421.946533 
z"/>
<path fill="#4958A5" opacity="1.000000" stroke="none" 
	d="
M466.595245,208.944122 
	C468.467255,212.664139 469.486328,216.740829 471.569885,220.170914 
	C482.233704,237.726212 493.187592,255.105103 503.983795,272.580444 
	C504.836365,273.960388 505.259644,275.605530 505.630707,277.646179 
	C504.606750,278.768280 503.911713,279.528931 503.050720,279.951385 
	C489.423828,286.637329 479.210724,296.911224 471.279053,309.504791 
	C455.707336,284.839508 440.354950,260.502899 425.002594,236.166275 
	C437.254913,224.848236 451.036224,215.850967 466.595245,208.944122 
z"/>
<path fill="#6B4496" opacity="1.000000" stroke="none" 
	d="
M144.553925,206.932800 
	C161.375198,233.532333 177.786469,260.180939 194.237732,286.804779 
	C195.765213,289.276794 197.462128,291.603668 195.121216,294.814331 
	C182.869415,293.545746 170.825256,293.470795 158.420624,295.895935 
	C154.695892,289.891846 151.591034,283.828644 148.051605,278.030762 
	C137.289169,260.400970 126.369690,242.866943 115.473358,225.319214 
	C114.603165,223.917831 113.441414,222.697495 112.155609,221.171143 
	C122.649002,216.291214 133.401917,211.633163 144.553925,206.932800 
z"/>
<path fill="#4E55A3" opacity="1.000000" stroke="none" 
	d="
M424.674377,236.216888 
	C440.354950,260.502899 455.707336,284.839508 471.101440,309.792358 
	C467.372803,321.605591 463.602417,332.802582 459.832062,343.999542 
	C457.444916,341.319183 454.616516,338.914734 452.740814,335.914612 
	C438.363678,312.919434 424.203613,289.788666 409.874298,266.763336 
	C408.410156,264.410614 406.276245,262.474731 404.174744,260.147400 
	C410.712982,252.055435 417.529572,244.161469 424.674377,236.216888 
z"/>
<path fill="#000000" opacity="1.000000" stroke="none" 
	d="
M459.895874,344.449371 
	C463.602417,332.802582 467.372803,321.605591 471.320770,310.121033 
	C479.210724,296.911224 489.423828,286.637329 503.050720,279.951385 
	C503.911713,279.528931 504.606750,278.768280 505.689514,277.999176 
	C512.125732,276.212311 518.188049,274.275085 524.389587,273.032745 
	C539.647217,269.976257 554.601196,271.358887 569.627075,277.222107 
	C570.322571,277.807220 570.614380,277.917328 570.988342,277.809631 
	C571.156738,277.847412 571.325073,277.885223 571.748413,277.878418 
	C579.699707,283.085785 588.224243,287.462158 594.907959,293.784607 
	C606.391541,304.647522 614.130615,318.299072 617.860962,333.771667 
	C619.614014,341.042511 620.022400,348.637543 621.102844,356.541229 
	C621.546265,371.668243 619.344482,385.934967 612.902283,399.161407 
	C609.566162,406.010864 604.918274,412.226532 600.788025,418.680542 
	C599.733765,420.328003 598.394165,421.792786 597.033813,423.650726 
	C586.040222,433.307373 574.085022,440.622986 559.879822,443.530182 
	C554.267151,444.678864 548.530273,445.221191 542.425781,446.103271 
	C523.820923,445.058289 506.787628,440.671234 492.184784,429.069641 
	C478.621948,418.294312 469.178192,404.553070 464.190094,388.137756 
	C461.499481,379.283386 460.260590,369.909363 459.181915,360.674561 
	C458.579468,355.516785 459.645477,350.164062 459.895874,344.449371 
z"/>
<path fill="#3B60AB" opacity="1.000000" stroke="none" 
	d="
M570.811462,277.672516 
	C570.614380,277.917328 570.322571,277.807220 570.004761,277.254547 
	C570.147949,277.190399 570.393982,277.358948 570.811462,277.672516 
z"/>
</svg>