<svg version="1.1" id="Layer_1" xmlns="http://www.w3.org/2000/svg" xmlns:xlink="http://www.w3.org/1999/xlink" x="0px" y="0px"
	 width="100%" viewBox="0 0 1024 424" enable-background="new 0 0 1024 424" xml:space="preserve">
<path fill="#000000" opacity="1.000000" stroke="none" 
	d="
M498.000000,425.000000 
	C332.415009,425.000000 166.829987,425.000000 1.000000,425.000000 
	C1.000000,298.644135 1.000000,172.288101 1.341010,45.302376 
	C2.068419,44.984459 2.610190,45.216038 2.818589,45.619717 
	C8.656881,56.928761 17.810362,62.221493 30.638880,62.101433 
	C42.573410,61.989735 52.575294,55.230019 56.425877,44.914345 
	C60.310898,34.506413 60.344814,22.620998 51.019176,13.039795 
	C37.784618,-0.557442 12.124313,1.662309 3.472516,19.924284 
	C3.053731,20.808247 1.842312,21.316689 1.000000,22.000000 
	C1.000000,15.021227 1.000000,8.042454 1.000000,1.000000 
	C41.355949,1.000000 81.711937,1.000000 122.524811,1.468583 
	C122.981697,141.844635 122.981697,281.752106 122.981697,421.674866 
	C141.033371,421.674866 158.281418,421.674866 176.000000,421.674866 
	C176.000000,281.232971 176.000000,141.116486 176.000000,1.000000 
	C441.022614,1.000000 706.045227,1.000000 971.533936,1.468657 
	C972.000061,48.159641 972.000061,94.381966 972.000061,141.882172 
	C969.040710,138.351349 967.055786,135.759399 964.842651,133.379791 
	C952.726501,120.352425 938.636597,110.186035 922.431274,102.625809 
	C902.143738,93.161095 880.663574,88.431671 858.666687,87.370438 
	C845.341980,86.727585 831.698059,88.882301 818.457092,91.238449 
	C799.933655,94.534599 782.622070,101.673027 766.875000,112.094276 
	C753.892944,120.685646 741.814819,130.503784 732.530151,143.121216 
	C724.591003,153.910278 716.820251,164.911758 710.054077,176.451935 
	C702.398315,189.509552 697.681641,203.962799 695.154663,218.869934 
	C693.151978,230.684418 691.639465,242.700592 691.391785,254.657913 
	C691.178345,264.963257 692.665100,275.366699 694.100159,285.628906 
	C696.387878,301.989044 701.714294,317.599640 709.213745,332.183472 
	C714.345947,342.163910 720.640991,351.866028 728.010193,360.299713 
	C738.382568,372.170349 749.099365,384.287567 761.686218,393.561310 
	C787.508484,412.586487 817.043518,422.602173 849.467407,423.085114 
	C850.654175,423.102783 851.822876,424.334229 853.000000,425.000000 
	C738.310669,425.000000 623.621399,425.000000 508.382202,424.573303 
	C508.844238,423.766571 509.829468,423.168213 510.872253,423.040863 
	C519.506653,421.985840 528.253357,421.550232 536.774597,419.924194 
	C562.418030,415.030731 585.295410,403.953583 605.726807,387.763916 
	C609.594543,384.699158 613.415344,381.575165 618.186340,377.730194 
	C618.186340,392.928314 618.186340,406.701569 618.186340,420.594391 
	C635.293518,420.594391 651.991882,420.594391 669.000000,420.594391 
	C669.000000,418.040588 669.000000,415.890686 669.000000,413.740784 
	C668.999939,359.915009 669.027893,306.089172 668.957153,252.263474 
	C668.950012,246.821136 668.432495,241.372940 668.006470,235.938873 
	C666.485107,216.532089 660.874207,198.180252 652.279297,180.887894 
	C642.316956,160.844162 629.286560,143.078278 612.063904,128.316345 
	C597.905090,116.180458 582.510864,106.314133 565.388245,99.281448 
	C549.378906,92.706055 532.627502,89.307625 515.260498,87.696541 
	C499.711884,86.254166 484.450012,87.277054 469.544525,90.483971 
	C433.596405,98.218216 402.673553,115.202843 378.175934,143.232971 
	C361.749115,162.028549 349.455933,182.965805 342.457672,207.011459 
	C335.796570,229.898666 333.960236,253.018570 336.829742,276.739624 
	C339.068268,295.244781 344.415894,312.704834 352.316528,329.372681 
	C362.874939,351.647491 378.283508,370.266663 397.341614,385.837463 
	C425.614319,408.936859 457.792419,421.911896 494.506165,423.082581 
	C495.689941,423.120300 496.836243,424.334320 498.000000,425.000000 
M3.999030,355.500000 
	C3.999030,377.573425 3.999030,399.646820 3.999030,421.654724 
	C21.748053,421.654724 38.660145,421.654724 55.581924,421.654724 
	C55.581924,310.635864 55.581924,199.963623 55.581924,89.346588 
	C38.250507,89.346588 21.338852,89.346588 3.999030,89.346588 
	C3.999030,177.961624 3.999030,266.230804 3.999030,355.500000 
M294.000824,389.500000 
	C294.000824,289.448761 294.000824,189.397507 294.000824,89.317368 
	C276.310272,89.317368 259.398804,89.317368 242.389038,89.317368 
	C242.389038,200.307358 242.389038,310.979584 242.389038,421.682983 
	C259.690887,421.682983 276.602264,421.682983 294.000824,421.682983 
	C294.000824,411.081543 294.000824,400.790771 294.000824,389.500000 
M280.345825,60.021870 
	C296.885742,53.036545 302.521545,33.360191 294.178223,18.969091 
	C285.927704,4.738040 270.956818,0.104572 256.172424,6.605694 
	C242.596603,12.575376 236.341324,26.785475 240.841553,42.541149 
	C245.268112,58.038902 263.255524,66.403915 280.345825,60.021870 
z"/>
<path fill="#C11923" opacity="1.000000" stroke="none" 
	d="
M853.460632,425.000000 
	C851.822876,424.334229 850.654175,423.102783 849.467407,423.085114 
	C817.043518,422.602173 787.508484,412.586487 761.686218,393.561310 
	C749.099365,384.287567 738.382568,372.170349 728.010193,360.299713 
	C720.640991,351.866028 714.345947,342.163910 709.213745,332.183472 
	C701.714294,317.599640 696.387878,301.989044 694.100159,285.628906 
	C692.665100,275.366699 691.178345,264.963257 691.391785,254.657913 
	C691.639465,242.700592 693.151978,230.684418 695.154663,218.869934 
	C697.681641,203.962799 702.398315,189.509552 710.054077,176.451935 
	C716.820251,164.911758 724.591003,153.910278 732.530151,143.121216 
	C741.814819,130.503784 753.892944,120.685646 766.875000,112.094276 
	C782.622070,101.673027 799.933655,94.534599 818.457092,91.238449 
	C831.698059,88.882301 845.341980,86.727585 858.666687,87.370438 
	C880.663574,88.431671 902.143738,93.161095 922.431274,102.625809 
	C938.636597,110.186035 952.726501,120.352425 964.842651,133.379791 
	C967.055786,135.759399 969.040710,138.351349 972.000061,141.882172 
	C972.000061,94.381966 972.000061,48.159641 972.000000,1.468657 
	C989.643921,1.000000 1007.287842,1.000000 1025.000000,1.000000 
	C1025.000000,96.354218 1025.000000,191.708450 1024.610352,287.377533 
	C1023.818848,288.524384 1023.288086,289.319122 1023.035217,290.194122 
	C1020.414612,299.261719 1018.513611,308.604431 1015.109924,317.364532 
	C1008.044434,335.549316 997.885559,351.905518 985.004822,366.739655 
	C972.468323,381.177307 958.436829,393.695435 941.822327,402.982697 
	C919.116760,415.674774 894.701111,422.779480 868.491089,423.086395 
	C867.320129,423.100098 866.163391,424.334320 865.000000,425.000000 
	C861.307068,425.000000 857.614197,425.000000 853.460632,425.000000 
M842.722717,372.994843 
	C853.764160,374.638092 864.732788,374.154114 875.669250,372.005737 
	C894.921875,368.223724 912.319824,360.283691 926.975525,347.316833 
	C940.099121,335.705566 951.052429,322.353790 958.563416,306.064545 
	C969.661194,281.996399 973.046875,257.165955 967.569092,231.476715 
	C961.659973,203.764847 947.725403,180.573227 925.309204,162.765900 
	C900.016785,142.673676 871.285156,134.191467 839.444885,139.259674 
	C812.534180,143.543228 789.885864,156.318787 771.967957,177.395142 
	C759.907959,191.580933 751.292175,207.387939 746.435730,225.236298 
	C742.339539,240.290268 740.889465,255.691818 743.112854,271.174835 
	C745.171753,285.512695 749.746094,299.063049 756.494385,312.024475 
	C767.651917,333.454742 784.140869,349.349579 805.007812,360.961304 
	C816.464783,367.336700 828.944763,370.816437 842.722717,372.994843 
z"/>
<path fill="#C11923" opacity="1.000000" stroke="none" 
	d="
M498.454102,425.000000 
	C496.836243,424.334320 495.689941,423.120300 494.506165,423.082581 
	C457.792419,421.911896 425.614319,408.936859 397.341614,385.837463 
	C378.283508,370.266663 362.874939,351.647491 352.316528,329.372681 
	C344.415894,312.704834 339.068268,295.244781 336.829742,276.739624 
	C333.960236,253.018570 335.796570,229.898666 342.457672,207.011459 
	C349.455933,182.965805 361.749115,162.028549 378.175934,143.232971 
	C402.673553,115.202843 433.596405,98.218216 469.544525,90.483971 
	C484.450012,87.277054 499.711884,86.254166 515.260498,87.696541 
	C532.627502,89.307625 549.378906,92.706055 565.388245,99.281448 
	C582.510864,106.314133 597.905090,116.180458 612.063904,128.316345 
	C629.286560,143.078278 642.316956,160.844162 652.279297,180.887894 
	C660.874207,198.180252 666.485107,216.532089 668.006470,235.938873 
	C668.432495,241.372940 668.950012,246.821136 668.957153,252.263474 
	C669.027893,306.089172 668.999939,359.915009 669.000000,413.740784 
	C669.000000,415.890686 669.000000,418.040588 669.000000,420.594391 
	C651.991882,420.594391 635.293518,420.594391 618.186340,420.594391 
	C618.186340,406.701569 618.186340,392.928314 618.186340,377.730194 
	C613.415344,381.575165 609.594543,384.699158 605.726807,387.763916 
	C585.295410,403.953583 562.418030,415.030731 536.774597,419.924194 
	C528.253357,421.550232 519.506653,421.985840 510.872253,423.040863 
	C509.829468,423.168213 508.844238,423.766571 507.916138,424.573303 
	C504.969391,425.000000 501.938812,425.000000 498.454102,425.000000 
M402.482727,198.067902 
	C401.173126,201.069504 399.924286,204.099350 398.544250,207.068207 
	C387.834808,230.107773 385.109283,254.308197 390.274078,278.920776 
	C396.296478,307.620361 410.213257,331.903809 434.215240,349.803314 
	C461.204010,369.930145 491.359222,377.463989 524.147400,370.631744 
	C555.116943,364.178497 579.672546,346.799377 596.783020,320.181244 
	C613.828796,293.663971 619.754272,264.330566 613.800781,233.232742 
	C608.648865,206.322128 596.012512,183.418198 574.954346,165.338989 
	C556.365417,149.379745 534.890259,140.254288 510.688873,138.152740 
	C491.159912,136.456924 472.331146,140.293411 454.590424,148.794083 
	C432.207123,159.519302 415.350800,176.153336 402.482727,198.067902 
z"/>
<path fill="#C11923" opacity="1.000000" stroke="none" 
	d="
M175.531342,1.000000 
	C176.000000,141.116486 176.000000,281.232971 176.000000,421.674866 
	C158.281418,421.674866 141.033371,421.674866 122.981697,421.674866 
	C122.981697,281.752106 122.981697,141.844635 122.990845,1.468583 
	C140.354233,1.000000 157.708450,1.000000 175.531342,1.000000 
z"/>
<path fill="#000000" opacity="1.000000" stroke="none" 
	d="
M865.468628,425.000000 
	C866.163391,424.334320 867.320129,423.100098 868.491089,423.086395 
	C894.701111,422.779480 919.116760,415.674774 941.822327,402.982697 
	C958.436829,393.695435 972.468323,381.177307 985.004822,366.739655 
	C997.885559,351.905518 1008.044434,335.549316 1015.109924,317.364532 
	C1018.513611,308.604431 1020.414612,299.261719 1023.035217,290.194122 
	C1023.288086,289.319122 1023.818848,288.524384 1024.610352,287.846191 
	C1025.000000,333.599304 1025.000000,379.198639 1025.000000,425.000000 
	C971.979248,425.000000 918.958313,425.000000 865.468628,425.000000 
z"/>
<path fill="#C11923" opacity="1.000000" stroke="none" 
	d="
M1.000000,22.468622 
	C1.842312,21.316689 3.053731,20.808247 3.472516,19.924284 
	C12.124313,1.662309 37.784618,-0.557442 51.019176,13.039795 
	C60.344814,22.620998 60.310898,34.506413 56.425877,44.914345 
	C52.575294,55.230019 42.573410,61.989735 30.638880,62.101433 
	C17.810362,62.221493 8.656881,56.928761 2.818589,45.619717 
	C2.610190,45.216038 2.068419,44.984459 1.341010,44.836334 
	C1.000000,37.645748 1.000000,30.291496 1.000000,22.468622 
z"/>
<path fill="#C11923" opacity="1.000000" stroke="none" 
	d="
M3.999030,355.000000 
	C3.999030,266.230804 3.999030,177.961624 3.999030,89.346588 
	C21.338852,89.346588 38.250507,89.346588 55.581924,89.346588 
	C55.581924,199.963623 55.581924,310.635864 55.581924,421.654724 
	C38.660145,421.654724 21.748053,421.654724 3.999030,421.654724 
	C3.999030,399.646820 3.999030,377.573425 3.999030,355.000000 
z"/>
<path fill="#C11923" opacity="1.000000" stroke="none" 
	d="
M294.000824,390.000000 
	C294.000824,400.790771 294.000824,411.081543 294.000824,421.682983 
	C276.602264,421.682983 259.690887,421.682983 242.389038,421.682983 
	C242.389038,310.979584 242.389038,200.307358 242.389038,89.317368 
	C259.398804,89.317368 276.310272,89.317368 294.000824,89.317368 
	C294.000824,189.397507 294.000824,289.448761 294.000824,390.000000 
z"/>
<path fill="#C11923" opacity="1.000000" stroke="none" 
	d="
M279.947174,60.084751 
	C263.255524,66.403915 245.268112,58.038902 240.841553,42.541149 
	C236.341324,26.785475 242.596603,12.575376 256.172424,6.605694 
	C270.956818,0.104572 285.927704,4.738040 294.178223,18.969091 
	C302.521545,33.360191 296.885742,53.036545 279.947174,60.084751 
z"/>
<path fill="#000000" opacity="1.000000" stroke="none" 
	d="
M842.269897,372.986450 
	C828.944763,370.816437 816.464783,367.336700 805.007812,360.961304 
	C784.140869,349.349579 767.651917,333.454742 756.494385,312.024475 
	C749.746094,299.063049 745.171753,285.512695 743.112854,271.174835 
	C740.889465,255.691818 742.339539,240.290268 746.435730,225.236298 
	C751.292175,207.387939 759.907959,191.580933 771.967957,177.395142 
	C789.885864,156.318787 812.534180,143.543228 839.444885,139.259674 
	C871.285156,134.191467 900.016785,142.673676 925.309204,162.765900 
	C947.725403,180.573227 961.659973,203.764847 967.569092,231.476715 
	C973.046875,257.165955 969.661194,281.996399 958.563416,306.064545 
	C951.052429,322.353790 940.099121,335.705566 926.975525,347.316833 
	C912.319824,360.283691 894.921875,368.223724 875.669250,372.005737 
	C864.732788,374.154114 853.764160,374.638092 842.269897,372.986450 
z"/>
<path fill="#000000" opacity="1.000000" stroke="none" 
	d="
M402.734802,197.792923 
	C415.350800,176.153336 432.207123,159.519302 454.590424,148.794083 
	C472.331146,140.293411 491.159912,136.456924 510.688873,138.152740 
	C534.890259,140.254288 556.365417,149.379745 574.954346,165.338989 
	C596.012512,183.418198 608.648865,206.322128 613.800781,233.232742 
	C619.754272,264.330566 613.828796,293.663971 596.783020,320.181244 
	C579.672546,346.799377 555.116943,364.178497 524.147400,370.631744 
	C491.359222,377.463989 461.204010,369.930145 434.215240,349.803314 
	C410.213257,331.903809 396.296478,307.620361 390.274078,278.920776 
	C385.109283,254.308197 387.834808,230.107773 398.544250,207.068207 
	C399.924286,204.099350 401.173126,201.069504 402.734802,197.792923 
z"/>
</svg>