<svg xmlns="http://www.w3.org/2000/svg" width="2560" height="619" viewBox="0 0 2560 619" version="1.1"><path d="M 2317.051 36.148 C 2285.247 39.469, 2250.690 51.563, 2225.146 68.312 C 2180.626 97.502, 2152.314 140.945, 2142.908 194.500 C 2139.933 211.437, 2139.648 243.853, 2142.336 259.500 C 2150.378 306.317, 2170.950 342.749, 2206.102 372.431 C 2240.589 401.551, 2286.586 419.342, 2333.181 421.583 C 2376.077 423.646, 2432.514 404.144, 2459.250 378.019 L 2466 371.424 2466 391.712 L 2466 412 2513 412 L 2560 412 2560 232.500 L 2560 53 2513 53 L 2466 53 2465.976 70.750 L 2465.951 88.500 2461.343 83.201 C 2451.962 72.413, 2433.195 59.565, 2415 51.475 C 2383.891 37.644, 2351.407 32.560, 2317.051 36.148 M 1377 39.072 C 1280.991 45.172, 1199.133 120.585, 1189.067 212.211 C 1180.770 287.729, 1225.901 362.564, 1302.365 400.078 C 1335.381 416.276, 1366.724 422.887, 1404.956 421.715 C 1439.404 420.659, 1470.669 413.183, 1498.096 399.442 C 1518.276 389.331, 1539.647 372.134, 1553.289 355.028 L 1559.248 347.557 1553.827 342.528 C 1539.001 328.777, 1495.068 290.003, 1494.336 290.024 C 1493.876 290.037, 1492.150 291.884, 1490.500 294.129 C 1484.114 302.817, 1468.742 315.072, 1456.500 321.235 C 1441.255 328.909, 1424.596 332.891, 1404.409 333.684 C 1386.275 334.396, 1376.481 333.186, 1362.329 328.486 C 1343.580 322.260, 1330.117 314.118, 1316.907 301.020 C 1301.767 286.008, 1293.267 270.322, 1290.480 252.253 L 1289.825 248.007 1435.663 247.753 L 1581.500 247.500 1582.435 240.534 C 1583.616 231.732, 1581.811 207.372, 1578.948 193.500 C 1574.535 172.112, 1564.479 147.997, 1552.259 129.500 C 1532.143 99.052, 1503.580 74.052, 1470.500 57.938 C 1450.209 48.055, 1425.459 40.871, 1406.984 39.503 C 1392.189 38.408, 1388.331 38.352, 1377 39.072 M 1853 38.617 C 1798.744 43.579, 1751.124 65.632, 1717.137 101.536 C 1697.058 122.748, 1683.282 148.455, 1676.803 176.801 C 1674.596 186.458, 1674.585 186.985, 1674.261 299.250 L 1673.935 412 1724.924 412 L 1775.914 412 1776.282 307.250 C 1776.609 213.993, 1776.832 201.680, 1778.317 195.029 C 1787.187 155.285, 1809.804 130.513, 1844.689 122.332 C 1856.178 119.637, 1881.445 119.913, 1892.500 122.853 C 1920.899 130.405, 1941.290 149.858, 1950.912 178.578 C 1957.011 196.782, 1956.992 196.369, 1956.996 309.250 L 1957 412 2006.536 412 L 2056.073 412 2055.739 299.250 L 2055.405 186.500 2053.137 176.500 C 2049.852 162.017, 2046.685 153.056, 2040.063 139.500 C 2032.558 124.138, 2024.160 112.334, 2011 98.651 C 1974.986 61.205, 1926.238 40.226, 1871.500 38.617 C 1863.800 38.391, 1855.475 38.391, 1853 38.617 M 740 230.500 L 740 412 791 412 L 842 412 842 333.107 C 842 258.907, 842.104 254.172, 843.750 253.507 C 844.712 253.118, 852.368 252.555, 860.763 252.256 C 930.358 249.776, 979.056 283.241, 995.103 344.576 C 999.134 359.985, 1000.929 373.559, 1001.672 394.250 L 1002.310 412 1056.311 412 L 1110.312 412 1109.621 392.764 C 1108.662 366.054, 1106.532 351.775, 1100.334 330.500 C 1087.251 285.593, 1056.204 241.060, 1025.303 222.876 L 1021.106 220.406 1029.303 215.024 C 1040.171 207.890, 1059.731 188.218, 1067.806 176.302 C 1079.864 158.507, 1088.477 138.041, 1092.972 116.500 C 1096.540 99.398, 1096.708 71.193, 1093.353 52.250 L 1092.777 49 1042.396 49 L 992.014 49 992.641 63.750 C 995.343 127.265, 972.415 164.001, 921.863 177.152 C 914.216 179.141, 910.440 179.363, 877.750 179.741 L 842 180.155 842 114.577 L 842 49 791 49 L 740 49 740 230.500 M 2333.286 118.099 C 2292.943 122.796, 2260.602 148.023, 2246.282 185.965 C 2239.893 202.894, 2237.393 227.666, 2240.362 244.636 C 2244.623 268.991, 2254.434 288.973, 2270.374 305.759 C 2292.624 329.191, 2320.492 340.147, 2354 338.636 C 2381.140 337.412, 2402.825 328.518, 2421.267 311.046 C 2438.919 294.322, 2450.075 274.155, 2455.036 250 C 2456.903 240.906, 2457.125 237.290, 2456.688 223 C 2456.125 204.579, 2454.462 196.077, 2448.561 181.442 C 2430.657 137.042, 2385.188 112.057, 2333.286 118.099 M 1371.583 121.036 C 1337.158 126.467, 1309.292 146.047, 1293.005 176.250 L 1288.826 184 1385.413 184 C 1438.536 184, 1482 183.718, 1482 183.374 C 1482 183.029, 1480.615 180.022, 1478.922 176.691 C 1465.798 150.864, 1440.381 130.789, 1411.500 123.439 C 1400.241 120.574, 1381.619 119.453, 1371.583 121.036" stroke="none" fill="#fcb404" fill-rule="evenodd"/><path d="M 499 23.943 L 499 48 417.750 48.018 L 336.500 48.036 341.984 51.059 C 356.067 58.820, 370.629 72.902, 378 85.885 C 379.925 89.276, 381.950 92.718, 382.500 93.533 C 383.376 94.832, 398.008 94.984, 500.296 94.758 L 617.091 94.500 559.906 48.500 C 528.454 23.200, 501.884 1.912, 500.861 1.193 C 499.062 -0.070, 499 0.686, 499 23.943 M -0.010 48.750 C -0.015 49.163, 4.372 59.727, 9.740 72.226 L 19.500 94.953 73.002 94.976 L 126.503 95 129.002 90.265 C 132.958 82.767, 142.115 70.982, 148.571 65.079 C 153.591 60.489, 158.619 56.892, 170.616 49.309 C 172.082 48.382, 153.386 48.105, 86.250 48.059 C 38.813 48.026, -0.004 48.337, -0.010 48.750 M 248.322 124.032 C 224.125 128.381, 203.790 147.152, 197.440 171 C 195.157 179.572, 195.157 194.428, 197.440 203 C 203.216 224.693, 220.239 241.905, 242.560 248.621 C 251.508 251.314, 267.348 251.095, 277 248.145 C 296.322 242.241, 312.617 226.901, 319.070 208.542 C 331.039 174.486, 312.730 137.245, 278.715 126.460 C 269.525 123.546, 256.717 122.523, 248.322 124.032 M 19.626 187.797 C 18.293 189.952, 16.003 217.291, 16.006 231 C 16.020 294.233, 44.441 351.737, 91.307 383.353 C 95.263 386.022, 98.632 388.555, 98.793 388.982 C 98.954 389.410, 97.063 390.945, 94.591 392.394 C 92.118 393.843, 86.811 397.649, 82.797 400.852 C 42.781 432.783, 13.789 486.915, 2.919 550 C 1.218 559.871, 0.661 568.126, 0.267 589.250 L -0.232 616 57.884 616 L 116 616 116.010 604.250 C 116.055 550.282, 126.690 506.342, 147.169 475.500 C 157.318 460.217, 174.973 444.587, 191.500 436.254 C 212.721 425.554, 241.303 420.441, 270.327 422.153 C 337.045 426.088, 379.862 464.738, 395.338 535 C 399.298 552.979, 401.107 569.632, 401.722 593.750 L 402.289 616 460.798 616 L 519.307 616 518.711 593.250 C 517.787 558.036, 514.073 535.351, 504.450 506.154 C 498.667 488.604, 487.784 464.990, 479.033 451 C 464.729 428.133, 444.933 406.529, 428.177 395.500 C 423.163 392.200, 419.053 389.275, 419.044 389 C 419.034 388.725, 422.283 386.379, 426.263 383.786 C 462.170 360.397, 488.900 318.605, 498.401 271 C 502.440 250.759, 504.134 218.226, 502.346 195.250 L 501.704 187 452.602 187 L 403.500 187 403.470 213.250 C 403.437 241.648, 402.344 251.269, 397.307 267.500 C 382.512 315.165, 332.773 342, 259.217 342 C 214.218 342, 179.156 332.501, 153.738 313.424 C 135.948 300.073, 125.111 283.922, 119.507 262.406 C 115.418 246.710, 114.575 237.970, 114.620 211.750 L 114.662 187 67.390 187 C 41.391 187, 19.896 187.359, 19.626 187.797 M 1137.500 492.485 C 1116.579 497.111, 1101.504 512.302, 1095.311 535 C 1092.873 543.938, 1092.856 564.953, 1095.279 574 C 1101.049 595.541, 1115.162 610.421, 1134.631 615.492 C 1139.181 616.677, 1146.981 617, 1171.074 617 C 1187.933 617, 1204.151 616.551, 1207.114 616.001 C 1226.788 612.353, 1243.842 595.134, 1249.700 573 C 1252.054 564.107, 1252.056 543.910, 1249.705 535 C 1243.759 512.470, 1228.404 496.737, 1208.174 492.449 C 1199.107 490.528, 1146.233 490.555, 1137.500 492.485 M 740 554 L 740 615 748.990 615 L 757.981 615 758.240 566.473 L 758.500 517.946 788.323 547.128 L 818.145 576.310 847.823 546.905 L 877.500 517.500 877.760 566.250 L 878.019 615 886.510 615 L 895 615 895 554 L 895 493 888.434 493 C 884.823 493, 880.886 493.497, 879.684 494.105 C 878.483 494.713, 864.116 508.544, 847.758 524.841 L 818.016 554.471 788.258 524.794 C 771.891 508.472, 757.233 494.641, 755.685 494.059 C 754.137 493.476, 749.974 493, 746.435 493 L 740 493 740 554 M 1489 553.991 L 1489 615.077 1546.750 614.788 C 1604.248 614.501, 1604.525 614.490, 1610.147 612.217 C 1634.505 602.368, 1639.359 568.024, 1618.359 554.115 C 1615.773 552.402, 1613.277 551, 1612.812 551 C 1612.347 551, 1613.520 548.742, 1615.418 545.983 C 1620.501 538.593, 1623.117 530.758, 1623.276 522.443 C 1623.523 509.519, 1616.322 499.534, 1603.706 495.307 C 1599.060 493.751, 1592.608 493.527, 1543.750 493.234 L 1489 492.905 1489 553.991 M 1855 554 L 1855 615 1864 615 L 1873 615 1873 554 L 1873 493 1864 493 L 1855 493 1855 554 M 2094 554 L 2094 615 2161.044 615 L 2228.088 615 2227.794 607.750 L 2227.500 600.500 2169.250 600.242 L 2111 599.984 2111 546.492 L 2111 493 2102.500 493 L 2094 493 2094 554 M 2430 554 L 2430 615 2495 615 L 2560 615 2560 607.500 L 2560 600 2504 600 L 2448 600 2448 579.500 L 2448 559 2502 559 L 2556 559 2556 552 L 2556 545 2502 545 L 2448 545 2448 526.500 L 2448 508 2504 508 L 2560 508 2560 500.500 L 2560 493 2495 493 L 2430 493 2430 554 M 1139.079 509.508 C 1126.411 512.341, 1118.057 520.575, 1113.735 534.486 C 1110.611 544.543, 1110.611 564.467, 1113.736 574.500 C 1118.007 588.209, 1125.061 595.520, 1136.958 598.568 C 1141.987 599.856, 1148.551 600.072, 1174.772 599.813 L 1206.500 599.500 1212.148 596.852 C 1222.679 591.915, 1229.431 582.541, 1232.038 569.239 C 1232.816 565.269, 1233.079 558.315, 1232.759 550.239 C 1231.995 531.026, 1227.436 520.403, 1217.153 513.882 C 1209.419 508.977, 1207.417 508.713, 1175.500 508.382 C 1152.157 508.141, 1144.075 508.390, 1139.079 509.508 M 1507 526.961 L 1507 546 1552 546 C 1596.387 546, 1597.029 545.971, 1599.101 543.899 C 1604.900 538.100, 1607.793 522.654, 1604.313 516.071 C 1603.316 514.185, 1601.230 511.710, 1599.678 510.571 C 1596.937 508.560, 1595.559 508.492, 1551.928 508.211 L 1507 507.922 1507 526.961 M 1507 580.463 L 1507 600 1552.750 599.978 C 1595.090 599.958, 1598.798 599.818, 1602.500 598.110 C 1610.241 594.537, 1613 589.620, 1613 579.395 C 1613 571.532, 1610.436 565.836, 1605.740 563.271 C 1602.790 561.659, 1598.221 561.474, 1554.750 561.213 L 1507 560.926 1507 580.463" stroke="none" fill="#646464" fill-rule="evenodd"/></svg>