<svg version="1.1" id="Layer_1" xmlns="http://www.w3.org/2000/svg" xmlns:xlink="http://www.w3.org/1999/xlink" x="0px" y="0px"
	 width="100%" viewBox="0 0 2560 619" enable-background="new 0 0 2560 619" xml:space="preserve">
<path fill="#000000" opacity="1.000000" stroke="none" 
	d="
M2561.000000,616.000000 
	C2561.000000,617.333069 2561.000000,618.666138 2561.000000,619.999634 
	C1709.166016,620.000000 857.332031,620.001526 5.498071,619.859070 
	C4.209933,619.858887 0.871684,622.327332 1.468657,617.499512 
	C40.179672,616.999084 78.422035,616.999084 116.469574,616.999084 
	C117.007713,606.544495 117.196846,596.919800 118.065193,587.356812 
	C119.464424,571.947449 120.313629,556.390564 123.172623,541.231140 
	C129.556229,507.382996 142.033295,476.266205 169.345139,453.385101 
	C177.001770,446.970642 185.447617,441.181152 194.297546,436.577789 
	C210.093842,428.361176 227.459290,424.319244 245.073456,423.249603 
	C269.396759,421.772522 293.376556,423.726471 316.650208,432.718262 
	C344.158752,443.346283 364.377899,461.689789 378.457794,487.068268 
	C393.278290,513.781677 399.290985,543.095093 401.865784,573.154419 
	C402.969208,586.036072 402.660614,599.038391 403.009247,611.985474 
	C403.052002,613.572876 403.192291,615.157654 403.278473,616.594849 
	C442.472046,616.594849 481.043518,616.594849 520.836365,616.594849 
	C519.881836,598.633606 519.241394,581.109680 517.943359,563.634705 
	C516.535583,544.681763 511.997559,526.320862 506.146606,508.266266 
	C500.495911,490.829773 493.377075,474.042694 484.058350,458.246399 
	C475.485321,443.714111 465.776062,430.001221 454.190552,417.659576 
	C444.196716,407.013428 433.042847,397.838135 419.948578,390.265289 
	C421.345154,389.302032 422.383392,388.547913 423.458191,387.850189 
	C442.426758,375.536316 458.413605,360.153839 471.078766,341.393677 
	C484.874878,320.958435 494.616150,298.755188 498.960602,274.437347 
	C500.896698,263.600189 501.834961,252.576935 503.027039,241.616501 
	C504.950592,223.930542 504.298035,206.254883 502.799774,188.412903 
	C469.734985,188.412903 437.038910,188.412903 403.694489,188.412903 
	C404.156708,193.628067 404.875214,198.372177 404.944427,203.125732 
	C405.183258,219.532425 404.808533,235.862457 402.147949,252.172714 
	C397.022736,283.592346 380.761353,306.869232 353.125702,322.437347 
	C329.310791,335.853088 303.268219,341.336090 276.435974,342.802155 
	C255.445374,343.949005 234.352020,343.475891 213.601471,339.007935 
	C195.637848,335.140076 178.165329,329.775818 162.609192,319.755493 
	C143.039551,307.149902 128.183090,290.517181 121.910286,267.543152 
	C119.583069,259.019806 117.583900,250.255722 116.856140,241.483521 
	C115.851166,229.370010 116.158295,217.145416 115.969742,204.967377 
	C115.883385,199.390533 115.955055,193.811234 115.955055,188.387543 
	C83.482025,188.387543 51.894554,188.387543 20.233351,188.387543 
	C19.125242,197.243408 17.436386,205.703720 17.119804,214.215088 
	C16.170406,239.739792 17.406868,265.042389 24.899338,289.807068 
	C33.160355,317.112061 46.150005,341.730560 66.000908,362.177399 
	C76.117630,372.597809 87.953644,381.349121 98.584061,390.486633 
	C91.311348,396.061493 82.643768,401.776825 75.079315,408.697845 
	C59.412853,423.031677 46.716934,439.836487 36.244678,458.347260 
	C19.767775,487.471863 8.704969,518.429504 3.851601,551.588318 
	C3.429869,554.469604 1.974987,557.199707 1.000000,560.000000 
	C1.000000,391.970642 1.000000,223.941269 1.359095,55.363304 
	C2.473996,55.862846 3.448037,56.816067 3.951650,57.973904 
	C8.674283,68.831543 13.338831,79.714676 17.966671,90.613159 
	C19.184162,93.480309 19.909424,96.126358 24.219061,96.102089 
	C57.515625,95.914551 90.813843,95.959839 124.111122,96.065918 
	C127.050240,96.075272 128.632507,95.036819 129.888443,92.520805 
	C137.493652,77.285263 148.432190,65.035156 162.975250,56.087566 
	C166.224426,54.088524 169.531616,52.183788 172.812103,50.235638 
	C172.705841,49.823757 172.599594,49.411880 172.493332,49.000000 
	C115.328888,49.000000 58.164444,49.000000 1.000000,49.000000 
	C1.000000,33.012085 1.000000,17.024168 1.000000,1.000000 
	C166.696030,1.000000 332.392059,1.000000 498.577118,1.251641 
	C499.117798,1.664411 499.169434,1.825540 499.171387,2.453673 
	C499.121674,18.166100 499.121674,33.411518 499.121674,49.155975 
	C445.203033,49.155975 392.205200,49.155975 338.306091,49.155975 
	C339.657043,50.139771 340.139740,50.573116 340.692139,50.881680 
	C358.429626,60.789883 372.436432,74.450775 382.032867,92.414909 
	C383.520905,95.200439 385.242249,96.056686 388.259125,96.053886 
	C463.416840,95.984116 538.574646,96.000984 613.732422,95.981461 
	C614.904480,95.981155 616.076355,95.717422 617.804871,95.509773 
	C616.270630,93.863083 615.369263,92.632126 614.222473,91.704651 
	C598.859802,79.279785 583.501343,66.849068 568.064636,54.516487 
	C548.542114,38.919662 528.918640,23.449133 509.424957,7.816575 
	C507.012543,5.882014 505.128754,3.288280 503.000000,0.999998 
	C1189.000000,1.000000 1875.000000,1.000000 2561.000000,1.000000 
	C2561.000000,18.428226 2561.000000,35.758163 2560.531250,53.544170 
	C2529.138184,54.000244 2498.213623,54.000244 2466.743164,54.000244 
	C2466.743164,65.908340 2466.743164,77.224167 2466.743164,87.280014 
	C2458.153320,80.049316 2449.927734,71.577507 2440.276123,65.298332 
	C2413.967529,48.182846 2384.740967,38.605225 2353.484863,36.159931 
	C2336.355957,34.819878 2319.106934,35.969227 2302.183350,39.130951 
	C2278.613281,43.534393 2256.191650,51.289886 2235.241211,63.242481 
	C2213.952637,75.388237 2195.832275,91.274773 2180.602295,110.198349 
	C2169.625488,123.837311 2161.255615,139.281799 2154.691895,155.648315 
	C2146.177246,176.878342 2142.058838,198.994232 2141.110352,221.708282 
	C2140.759766,230.105225 2141.393066,238.576889 2142.076172,246.973938 
	C2142.764648,255.436447 2143.342529,264.016846 2145.241211,272.252289 
	C2151.851562,300.924866 2163.884766,327.014496 2183.068115,349.678345 
	C2199.927002,369.595856 2219.538574,386.153656 2242.828369,397.752625 
	C2256.504639,404.563873 2270.999756,409.927856 2285.502197,414.831238 
	C2301.462891,420.227539 2318.238037,422.115723 2335.033936,422.942383 
	C2352.028076,423.778900 2368.673096,421.090027 2385.129150,417.008698 
	C2405.713867,411.903381 2425.439453,404.567322 2443.163086,392.826477 
	C2451.547363,387.272278 2458.985352,380.289215 2467.098145,373.755249 
	C2467.098145,386.648804 2467.098145,399.686035 2467.098145,413.000000 
	C2498.734131,413.000000 2529.866943,413.000000 2561.000000,413.000000 
	C2561.000000,439.696045 2561.000000,466.392059 2560.531250,493.543701 
	C2517.164551,493.999329 2474.266602,493.999329 2431.341797,493.999329 
	C2431.341797,535.041809 2431.341797,575.268799 2431.341797,616.000000 
	C2474.787598,616.000000 2517.893799,616.000000 2561.000000,616.000000 
M2113.018555,600.060120 
	C2113.012451,566.439697 2113.020020,532.819336 2112.959961,499.198975 
	C2112.956787,497.517761 2112.366455,495.837616 2111.113281,494.042023 
	C2105.526611,494.042023 2099.939941,494.042023 2094.408203,494.042023 
	C2094.408203,535.085205 2094.408203,575.326904 2094.408203,615.663086 
	C2139.347900,615.663086 2183.918701,615.663086 2228.712402,615.663086 
	C2228.712402,610.750122 2228.712402,606.175659 2228.712402,600.994446 
	C2189.981934,600.994446 2151.536865,600.994446 2113.018555,600.060120 
M1300.483887,278.985809 
	C1295.430298,269.782379 1292.297119,259.971344 1291.101196,248.980515 
	C1388.380493,248.980515 1485.599365,248.980515 1582.799927,248.980515 
	C1583.241943,245.190750 1583.864868,241.948944 1583.958252,238.691971 
	C1584.388794,223.677505 1583.044067,208.806763 1580.009521,194.088776 
	C1575.881348,174.066513 1568.724365,155.202606 1558.155151,137.700684 
	C1547.777832,120.516510 1535.326782,105.058731 1520.268677,91.636726 
	C1507.776855,80.502434 1494.291016,71.001976 1479.671509,62.868046 
	C1452.830200,47.934105 1424.026611,40.247646 1393.516479,39.167419 
	C1383.367920,38.808102 1373.028931,39.608295 1362.992188,41.219288 
	C1344.739746,44.148998 1326.977295,48.996681 1309.894653,56.452412 
	C1286.592163,66.622696 1265.882324,80.514351 1247.616333,98.034981 
	C1241.096802,104.288559 1235.219727,111.252174 1229.396484,118.183281 
	C1217.818848,131.963715 1208.995361,147.511597 1202.099487,164.036591 
	C1194.673340,181.832153 1190.432861,200.575775 1189.123047,219.794601 
	C1187.954834,236.937988 1189.210938,254.106781 1193.488770,270.763519 
	C1198.133057,288.846863 1204.976074,306.106018 1214.933350,322.121796 
	C1230.021484,346.389984 1248.962402,366.826233 1272.436279,383.167938 
	C1288.110962,394.080048 1304.667236,403.182709 1322.551636,409.929901 
	C1341.548950,417.097015 1361.204956,421.756897 1381.377197,422.779266 
	C1401.788208,423.813721 1422.218018,423.125671 1442.516479,419.178223 
	C1464.140137,414.973053 1484.815918,408.598175 1504.187744,398.006348 
	C1525.766968,386.207733 1544.126099,370.801910 1558.726440,350.922607 
	C1560.556763,348.430420 1559.891479,347.192017 1558.059326,345.569855 
	C1543.398560,332.588806 1528.758423,319.584290 1514.099243,306.601349 
	C1507.887695,301.100067 1501.645508,295.633331 1495.334717,290.078217 
	C1494.337891,291.127106 1493.402710,291.880554 1492.752930,292.829468 
	C1484.324951,305.135864 1472.557373,313.542847 1459.772827,320.586639 
	C1445.813232,328.277679 1430.817993,332.574554 1414.863159,334.136200 
	C1400.982178,335.494873 1387.347534,335.371887 1373.690674,332.365936 
	C1356.097534,328.493591 1340.386230,320.738464 1326.344849,309.664093 
	C1315.879517,301.410248 1307.172119,291.504883 1300.483887,278.985809 
M1095.999878,63.618286 
	C1095.338501,59.162868 1094.677002,54.707451 1094.020020,50.282043 
	C1060.134888,50.282043 1026.725342,50.282043 992.650696,50.282043 
	C993.119263,55.832851 994.141113,61.077480 993.887146,66.259575 
	C993.219482,79.881493 993.061584,93.660431 990.747314,107.038918 
	C987.203491,127.524910 978.230591,145.409882 961.617371,159.064316 
	C943.828613,173.684952 923.192932,179.712112 900.781616,180.930573 
	C892.806763,181.364151 884.788574,180.999786 876.790161,180.999741 
	C865.672485,180.999695 854.554871,180.999725 842.966431,180.999725 
	C842.966431,137.161713 842.966431,93.771400 842.966431,50.284973 
	C808.767639,50.284973 775.044800,50.284973 741.297241,50.284973 
	C741.297241,171.280457 741.297241,291.990967 741.297241,412.672119 
	C775.318726,412.672119 809.041870,412.672119 843.000000,412.672119 
	C843.000000,410.531036 843.000000,408.716400 843.000000,406.901764 
	C843.000000,357.744873 843.017761,308.587952 842.955750,259.431152 
	C842.952026,256.482239 843.226746,254.241364 846.820740,253.989532 
	C850.419983,253.737350 854.005981,253.089157 857.602966,253.045914 
	C871.615051,252.877411 885.542603,253.151520 899.440979,255.857956 
	C926.952698,261.215302 950.951233,272.495056 969.625916,294.038269 
	C979.593445,305.536774 986.752502,318.561096 991.971680,332.693848 
	C1000.410645,355.545227 1002.714417,379.404388 1002.995056,403.551697 
	C1003.031006,406.642212 1003.000000,409.733490 1003.000000,412.621429 
	C1039.420776,412.621429 1075.144287,412.621429 1111.231445,412.621429 
	C1112.154297,334.633514 1088.869019,268.275940 1024.348511,221.212662 
	C1031.228760,215.585846 1039.067627,209.905792 1046.015015,203.289597 
	C1053.093384,196.548569 1059.851196,189.311646 1065.779297,181.550812 
	C1085.963745,155.125732 1095.970337,124.951569 1096.910278,91.819687 
	C1097.167725,82.743820 1096.333374,73.636986 1095.999878,63.618286 
M1958.000122,229.500061 
	C1958.000122,290.581268 1958.000122,351.662476 1958.000122,412.652100 
	C1991.359253,412.652100 2024.082642,412.652100 2057.000000,412.652100 
	C2057.000000,410.318512 2057.000000,408.331879 2057.000000,406.345245 
	C2057.000000,338.359192 2057.022461,270.373138 2056.955811,202.387161 
	C2056.950684,197.127609 2056.754150,191.796936 2055.901123,186.622253 
	C2052.798340,167.803833 2047.343872,149.760559 2037.642944,133.143143 
	C2028.164307,116.906578 2016.793457,102.379860 2002.588989,89.868484 
	C1986.519409,75.714287 1968.785034,64.539894 1949.222046,55.995049 
	C1925.195923,45.500744 1899.939331,40.197487 1873.943726,39.251804 
	C1861.220459,38.788960 1848.362915,40.641197 1835.632935,42.048653 
	C1813.801147,44.462402 1793.279541,51.706150 1773.713989,61.262875 
	C1753.104492,71.329559 1734.719849,84.649162 1718.837402,101.477722 
	C1704.888550,116.257614 1693.734497,132.604111 1685.847656,151.362610 
	C1679.726562,165.921021 1675.334961,181.059906 1675.222534,196.636429 
	C1674.713867,267.118286 1675.000000,337.605896 1675.000000,408.091431 
	C1675.000000,409.674347 1675.000000,411.257263 1675.000000,412.783875 
	C1709.330444,412.783875 1742.935425,412.783875 1777.000000,412.783875 
	C1777.000000,410.789764 1777.000000,409.003784 1777.000000,407.217773 
	C1777.000000,350.895996 1776.956787,294.574158 1777.044800,238.252533 
	C1777.058716,229.325775 1777.655273,220.399567 1777.999756,211.473785 
	C1778.669556,194.116119 1783.104614,177.915314 1791.986694,162.840561 
	C1802.523071,144.958420 1817.343506,132.604782 1836.989746,125.949188 
	C1855.659058,119.624557 1874.613892,119.293999 1893.517212,124.104813 
	C1921.313965,131.179001 1939.721558,148.915771 1950.171143,175.442291 
	C1956.918945,192.571487 1958.573608,210.345383 1958.000122,229.500061 
M323.871918,195.025238 
	C325.229889,176.017288 320.409760,158.874298 307.234314,144.878189 
	C292.031403,128.728348 273.371979,121.662857 250.972702,124.900124 
	C229.259323,128.038269 213.473785,139.587219 203.401047,158.525970 
	C197.145981,170.286789 194.735962,183.084473 196.836273,196.774689 
	C199.282547,212.719849 206.108139,226.302536 218.179062,236.427200 
	C232.857101,248.738647 250.072067,254.080826 269.640564,251.136963 
	C282.519928,249.199417 293.525726,243.907806 303.034119,235.384613 
	C314.787842,224.848740 321.432037,211.496353 323.871918,195.025238 
M1525.500000,616.000000 
	C1548.666626,616.000000 1571.833618,616.075806 1594.999268,615.928650 
	C1599.063843,615.902832 1603.178467,615.207214 1607.174683,614.367615 
	C1628.135254,609.963684 1636.700317,588.103455 1631.351685,570.744507 
	C1628.483643,561.436157 1622.271484,555.279846 1613.387451,551.666504 
	C1615.525879,548.593384 1617.888672,545.945007 1619.409790,542.879150 
	C1625.199463,531.209900 1627.959351,519.338135 1620.110352,507.365295 
	C1613.277588,496.942719 1602.519531,494.251770 1591.249756,494.125671 
	C1559.253906,493.767609 1527.251587,493.997162 1495.251709,494.014008 
	C1493.645630,494.014832 1492.039551,494.191132 1490.319824,494.292419 
	C1490.319824,534.969604 1490.319824,575.209656 1490.319824,616.000000 
	C1501.920898,616.000000 1513.210449,616.000000 1525.500000,616.000000 
M1096.964966,577.502625 
	C1098.673950,581.771851 1099.972778,586.265198 1102.162720,590.271545 
	C1111.776367,607.858276 1126.373901,617.783691 1146.789673,617.966797 
	C1164.604492,618.126587 1182.425903,618.235901 1200.236938,617.932861 
	C1217.672607,617.636230 1231.381470,609.461304 1241.096924,595.459839 
	C1253.821533,577.121460 1255.726074,556.542053 1250.560303,535.267151 
	C1244.526123,510.414612 1228.924927,494.519440 1203.257446,492.462067 
	C1182.664795,490.811401 1161.760254,492.075714 1141.053345,493.169922 
	C1127.185181,493.902740 1115.726685,501.374207 1107.602417,512.261780 
	C1093.135254,531.649353 1090.744019,553.589111 1096.964966,577.502625 
M794.999939,531.500061 
	C784.630127,521.129211 773.881470,511.102966 764.022217,500.267548 
	C757.328247,492.910858 749.609802,493.657288 741.375244,494.405975 
	C741.375244,535.082886 741.375244,575.320801 741.375244,615.668945 
	C747.326904,615.668945 752.899719,615.668945 759.105225,615.668945 
	C759.105225,583.508179 759.105225,551.671570 759.105225,518.995422 
	C779.527283,538.920532 799.202026,558.116516 818.844971,577.281433 
	C838.945679,557.689331 858.523926,538.606567 879.122681,518.529114 
	C879.122681,551.813599 879.122681,583.679382 879.122681,615.680542 
	C884.972290,615.680542 890.212219,615.680542 895.553284,615.680542 
	C895.553284,575.002136 895.553284,534.644836 895.553284,494.594574 
	C885.039307,492.106201 877.387878,495.721100 870.343567,503.055786 
	C854.647949,519.398499 838.397888,535.208862 822.363525,551.225830 
	C821.125732,552.462280 819.807434,553.618103 818.296448,555.025757 
	C810.500366,547.151428 803.000061,539.575806 794.999939,531.500061 
M1858.785767,494.014771 
	C1854.758057,493.994781 1856.052368,497.088715 1856.048706,499.074524 
	C1855.981445,536.347534 1855.996094,573.620789 1856.010010,610.893982 
	C1856.010620,612.485657 1856.168335,614.077393 1856.251343,615.642090 
	C1862.396362,615.642090 1867.963379,615.642090 1873.578491,615.642090 
	C1873.578491,574.972046 1873.578491,534.659851 1873.578491,494.002106 
	C1868.685547,494.002106 1864.210205,494.002106 1858.785767,494.014771 
z"/>
<path fill="#636363" opacity="1.000000" stroke="none" 
	d="
M1.000000,560.468628 
	C1.974987,557.199707 3.429869,554.469604 3.851601,551.588318 
	C8.704969,518.429504 19.767775,487.471863 36.244678,458.347260 
	C46.716934,439.836487 59.412853,423.031677 75.079315,408.697845 
	C82.643768,401.776825 91.311348,396.061493 98.584061,390.486633 
	C87.953644,381.349121 76.117630,372.597809 66.000908,362.177399 
	C46.150005,341.730560 33.160355,317.112061 24.899338,289.807068 
	C17.406868,265.042389 16.170406,239.739792 17.119804,214.215088 
	C17.436386,205.703720 19.125242,197.243408 20.233351,188.387543 
	C51.894554,188.387543 83.482025,188.387543 115.955055,188.387543 
	C115.955055,193.811234 115.883385,199.390533 115.969742,204.967377 
	C116.158295,217.145416 115.851166,229.370010 116.856140,241.483521 
	C117.583900,250.255722 119.583069,259.019806 121.910286,267.543152 
	C128.183090,290.517181 143.039551,307.149902 162.609192,319.755493 
	C178.165329,329.775818 195.637848,335.140076 213.601471,339.007935 
	C234.352020,343.475891 255.445374,343.949005 276.435974,342.802155 
	C303.268219,341.336090 329.310791,335.853088 353.125702,322.437347 
	C380.761353,306.869232 397.022736,283.592346 402.147949,252.172714 
	C404.808533,235.862457 405.183258,219.532425 404.944427,203.125732 
	C404.875214,198.372177 404.156708,193.628067 403.694489,188.412903 
	C437.038910,188.412903 469.734985,188.412903 502.799774,188.412903 
	C504.298035,206.254883 504.950592,223.930542 503.027039,241.616501 
	C501.834961,252.576935 500.896698,263.600189 498.960602,274.437347 
	C494.616150,298.755188 484.874878,320.958435 471.078766,341.393677 
	C458.413605,360.153839 442.426758,375.536316 423.458191,387.850189 
	C422.383392,388.547913 421.345154,389.302032 419.948578,390.265289 
	C433.042847,397.838135 444.196716,407.013428 454.190552,417.659576 
	C465.776062,430.001221 475.485321,443.714111 484.058350,458.246399 
	C493.377075,474.042694 500.495911,490.829773 506.146606,508.266266 
	C511.997559,526.320862 516.535583,544.681763 517.943359,563.634705 
	C519.241394,581.109680 519.881836,598.633606 520.836365,616.594849 
	C481.043518,616.594849 442.472046,616.594849 403.278473,616.594849 
	C403.192291,615.157654 403.052002,613.572876 403.009247,611.985474 
	C402.660614,599.038391 402.969208,586.036072 401.865784,573.154419 
	C399.290985,543.095093 393.278290,513.781677 378.457794,487.068268 
	C364.377899,461.689789 344.158752,443.346283 316.650208,432.718262 
	C293.376556,423.726471 269.396759,421.772522 245.073456,423.249603 
	C227.459290,424.319244 210.093842,428.361176 194.297546,436.577789 
	C185.447617,441.181152 177.001770,446.970642 169.345139,453.385101 
	C142.033295,476.266205 129.556229,507.382996 123.172623,541.231140 
	C120.313629,556.390564 119.464424,571.947449 118.065193,587.356812 
	C117.196846,596.919800 117.007713,606.544495 116.469574,616.999084 
	C78.422035,616.999084 40.179672,616.999084 1.468657,616.999512 
	C1.000000,598.312439 1.000000,579.624878 1.000000,560.468628 
z"/>
<path fill="#FFAF00" opacity="1.000000" stroke="none" 
	d="
M2561.000000,412.531342 
	C2529.866943,413.000000 2498.734131,413.000000 2467.098145,413.000000 
	C2467.098145,399.686035 2467.098145,386.648804 2467.098145,373.755249 
	C2458.985352,380.289215 2451.547363,387.272278 2443.163086,392.826477 
	C2425.439453,404.567322 2405.713867,411.903381 2385.129150,417.008698 
	C2368.673096,421.090027 2352.028076,423.778900 2335.033936,422.942383 
	C2318.238037,422.115723 2301.462891,420.227539 2285.502197,414.831238 
	C2270.999756,409.927856 2256.504639,404.563873 2242.828369,397.752625 
	C2219.538574,386.153656 2199.927002,369.595856 2183.068115,349.678345 
	C2163.884766,327.014496 2151.851562,300.924866 2145.241211,272.252289 
	C2143.342529,264.016846 2142.764648,255.436447 2142.076172,246.973938 
	C2141.393066,238.576889 2140.759766,230.105225 2141.110352,221.708282 
	C2142.058838,198.994232 2146.177246,176.878342 2154.691895,155.648315 
	C2161.255615,139.281799 2169.625488,123.837311 2180.602295,110.198349 
	C2195.832275,91.274773 2213.952637,75.388237 2235.241211,63.242481 
	C2256.191650,51.289886 2278.613281,43.534393 2302.183350,39.130951 
	C2319.106934,35.969227 2336.355957,34.819878 2353.484863,36.159931 
	C2384.740967,38.605225 2413.967529,48.182846 2440.276123,65.298332 
	C2449.927734,71.577507 2458.153320,80.049316 2466.743164,87.280014 
	C2466.743164,77.224167 2466.743164,65.908340 2466.743164,54.000244 
	C2498.213623,54.000244 2529.138184,54.000244 2560.531250,54.000122 
	C2561.000000,173.354233 2561.000000,292.708466 2561.000000,412.531342 
M2309.058594,332.561523 
	C2328.656250,339.554565 2348.572754,341.862274 2369.278320,338.127167 
	C2398.810791,332.799774 2421.681885,317.722748 2438.471436,293.036194 
	C2449.379883,276.997498 2455.974609,259.154297 2457.674561,240.067856 
	C2458.729980,228.215164 2457.714111,215.909897 2455.758545,204.117828 
	C2452.543701,184.732834 2444.273193,167.223953 2430.959961,152.564026 
	C2409.452881,128.881393 2381.747803,118.939384 2350.490723,118.184280 
	C2341.750977,117.973160 2332.871338,119.518974 2324.206299,121.088821 
	C2305.037354,124.561569 2288.314941,133.262787 2274.051514,146.498184 
	C2262.882568,156.862411 2254.759521,169.366379 2248.906738,183.420807 
	C2243.798096,195.688538 2240.819824,208.502838 2240.108887,221.667664 
	C2238.854736,244.885864 2244.395752,266.639771 2256.282715,286.648834 
	C2268.659424,307.482208 2285.590332,323.195526 2309.058594,332.561523 
z"/>
<path fill="#636363" opacity="1.000000" stroke="none" 
	d="
M502.625000,0.999998 
	C505.128754,3.288280 507.012543,5.882014 509.424957,7.816575 
	C528.918640,23.449133 548.542114,38.919662 568.064636,54.516487 
	C583.501343,66.849068 598.859802,79.279785 614.222473,91.704651 
	C615.369263,92.632126 616.270630,93.863083 617.804871,95.509773 
	C616.076355,95.717422 614.904480,95.981155 613.732422,95.981461 
	C538.574646,96.000984 463.416840,95.984116 388.259125,96.053886 
	C385.242249,96.056686 383.520905,95.200439 382.032867,92.414909 
	C372.436432,74.450775 358.429626,60.789883 340.692139,50.881680 
	C340.139740,50.573116 339.657043,50.139771 338.306091,49.155975 
	C392.205200,49.155975 445.203033,49.155975 499.121674,49.155975 
	C499.121674,33.411518 499.121674,18.166100 499.323669,2.307983 
	C499.712738,1.483253 499.870819,1.251490 500.000000,1.000000 
	C500.750000,1.000000 501.500000,1.000000 502.625000,0.999998 
z"/>
<path fill="#000000" opacity="1.000000" stroke="none" 
	d="
M2561.000000,509.000000 
	C2561.000000,539.354248 2561.000000,569.708435 2560.531250,600.529907 
	C2523.158691,600.997070 2486.255127,600.997070 2449.368164,600.997070 
	C2449.368164,587.257751 2449.368164,574.353333 2449.368164,560.917725 
	C2485.300293,560.917725 2520.868896,560.917725 2556.560059,560.917725 
	C2556.560059,555.681946 2556.560059,550.989197 2556.560059,545.772949 
	C2520.555176,545.772949 2484.987061,545.772949 2449.333496,545.772949 
	C2449.333496,533.328613 2449.333496,521.424500 2449.333496,509.000000 
	C2486.776611,509.000000 2523.888184,509.000000 2561.000000,509.000000 
z"/>
<path fill="#636363" opacity="1.000000" stroke="none" 
	d="
M2561.000000,508.533875 
	C2523.888184,509.000000 2486.776611,509.000000 2449.333496,509.000000 
	C2449.333496,521.424500 2449.333496,533.328613 2449.333496,545.772949 
	C2484.987061,545.772949 2520.555176,545.772949 2556.560059,545.772949 
	C2556.560059,550.989197 2556.560059,555.681946 2556.560059,560.917725 
	C2520.868896,560.917725 2485.300293,560.917725 2449.368164,560.917725 
	C2449.368164,574.353333 2449.368164,587.257751 2449.368164,600.997070 
	C2486.255127,600.997070 2523.158691,600.997070 2560.531250,600.998535 
	C2561.000000,605.689270 2561.000000,610.378479 2561.000000,615.533875 
	C2517.893799,616.000000 2474.787598,616.000000 2431.341797,616.000000 
	C2431.341797,575.268799 2431.341797,535.041809 2431.341797,493.999329 
	C2474.266602,493.999329 2517.164551,493.999329 2560.531250,493.999664 
	C2561.000000,498.689240 2561.000000,503.378510 2561.000000,508.533875 
z"/>
<path fill="#636363" opacity="1.000000" stroke="none" 
	d="
M1.000000,49.428463 
	C58.164444,49.000000 115.328888,49.000000 172.493332,49.000000 
	C172.599594,49.411880 172.705841,49.823757 172.812103,50.235638 
	C169.531616,52.183788 166.224426,54.088524 162.975250,56.087566 
	C148.432190,65.035156 137.493652,77.285263 129.888443,92.520805 
	C128.632507,95.036819 127.050240,96.075272 124.111122,96.065918 
	C90.813843,95.959839 57.515625,95.914551 24.219061,96.102089 
	C19.909424,96.126358 19.184162,93.480309 17.966671,90.613159 
	C13.338831,79.714676 8.674283,68.831543 3.951650,57.973904 
	C3.448037,56.816067 2.473996,55.862846 1.359095,54.907352 
	C1.000000,53.285641 1.000000,51.571285 1.000000,49.428463 
z"/>
<path fill="#555555" opacity="1.000000" stroke="none" 
	d="
M499.750000,1.000000 
	C499.870819,1.251490 499.712738,1.483253 499.373413,1.840978 
	C499.169434,1.825540 499.117798,1.664411 499.033081,1.251641 
	C499.000000,1.000000 499.500000,1.000000 499.750000,1.000000 
z"/>
<path fill="#FFAF00" opacity="1.000000" stroke="none" 
	d="
M1300.710327,279.290161 
	C1307.172119,291.504883 1315.879517,301.410248 1326.344849,309.664093 
	C1340.386230,320.738464 1356.097534,328.493591 1373.690674,332.365936 
	C1387.347534,335.371887 1400.982178,335.494873 1414.863159,334.136200 
	C1430.817993,332.574554 1445.813232,328.277679 1459.772827,320.586639 
	C1472.557373,313.542847 1484.324951,305.135864 1492.752930,292.829468 
	C1493.402710,291.880554 1494.337891,291.127106 1495.334717,290.078217 
	C1501.645508,295.633331 1507.887695,301.100067 1514.099243,306.601349 
	C1528.758423,319.584290 1543.398560,332.588806 1558.059326,345.569855 
	C1559.891479,347.192017 1560.556763,348.430420 1558.726440,350.922607 
	C1544.126099,370.801910 1525.766968,386.207733 1504.187744,398.006348 
	C1484.815918,408.598175 1464.140137,414.973053 1442.516479,419.178223 
	C1422.218018,423.125671 1401.788208,423.813721 1381.377197,422.779266 
	C1361.204956,421.756897 1341.548950,417.097015 1322.551636,409.929901 
	C1304.667236,403.182709 1288.110962,394.080048 1272.436279,383.167938 
	C1248.962402,366.826233 1230.021484,346.389984 1214.933350,322.121796 
	C1204.976074,306.106018 1198.133057,288.846863 1193.488770,270.763519 
	C1189.210938,254.106781 1187.954834,236.937988 1189.123047,219.794601 
	C1190.432861,200.575775 1194.673340,181.832153 1202.099487,164.036591 
	C1208.995361,147.511597 1217.818848,131.963715 1229.396484,118.183281 
	C1235.219727,111.252174 1241.096802,104.288559 1247.616333,98.034981 
	C1265.882324,80.514351 1286.592163,66.622696 1309.894653,56.452412 
	C1326.977295,48.996681 1344.739746,44.148998 1362.992188,41.219288 
	C1373.028931,39.608295 1383.367920,38.808102 1393.516479,39.167419 
	C1424.026611,40.247646 1452.830200,47.934105 1479.671509,62.868046 
	C1494.291016,71.001976 1507.776855,80.502434 1520.268677,91.636726 
	C1535.326782,105.058731 1547.777832,120.516510 1558.155151,137.700684 
	C1568.724365,155.202606 1575.881348,174.066513 1580.009521,194.088776 
	C1583.044067,208.806763 1584.388794,223.677505 1583.958252,238.691971 
	C1583.864868,241.948944 1583.241943,245.190750 1582.799927,248.980515 
	C1485.599365,248.980515 1388.380493,248.980515 1291.101196,248.980515 
	C1292.297119,259.971344 1295.430298,269.782379 1300.710327,279.290161 
M1438.500000,185.000000 
	C1453.248413,185.000000 1467.996704,185.000000 1482.962891,185.000000 
	C1468.167725,148.909058 1430.419312,120.067444 1383.797607,121.162064 
	C1343.396118,122.110641 1305.206177,147.992233 1291.067749,185.000000 
	C1340.009644,185.000000 1388.754883,185.000000 1438.500000,185.000000 
z"/>
<path fill="#FFAF00" opacity="1.000000" stroke="none" 
	d="
M1096.000000,64.081322 
	C1096.333374,73.636986 1097.167725,82.743820 1096.910278,91.819687 
	C1095.970337,124.951569 1085.963745,155.125732 1065.779297,181.550812 
	C1059.851196,189.311646 1053.093384,196.548569 1046.015015,203.289597 
	C1039.067627,209.905792 1031.228760,215.585846 1024.348511,221.212662 
	C1088.869019,268.275940 1112.154297,334.633514 1111.231445,412.621429 
	C1075.144287,412.621429 1039.420776,412.621429 1003.000000,412.621429 
	C1003.000000,409.733490 1003.031006,406.642212 1002.995056,403.551697 
	C1002.714417,379.404388 1000.410645,355.545227 991.971680,332.693848 
	C986.752502,318.561096 979.593445,305.536774 969.625916,294.038269 
	C950.951233,272.495056 926.952698,261.215302 899.440979,255.857956 
	C885.542603,253.151520 871.615051,252.877411 857.602966,253.045914 
	C854.005981,253.089157 850.419983,253.737350 846.820740,253.989532 
	C843.226746,254.241364 842.952026,256.482239 842.955750,259.431152 
	C843.017761,308.587952 843.000000,357.744873 843.000000,406.901764 
	C843.000000,408.716400 843.000000,410.531036 843.000000,412.672119 
	C809.041870,412.672119 775.318726,412.672119 741.297241,412.672119 
	C741.297241,291.990967 741.297241,171.280457 741.297241,50.284973 
	C775.044800,50.284973 808.767639,50.284973 842.966431,50.284973 
	C842.966431,93.771400 842.966431,137.161713 842.966431,180.999725 
	C854.554871,180.999725 865.672485,180.999695 876.790161,180.999741 
	C884.788574,180.999786 892.806763,181.364151 900.781616,180.930573 
	C923.192932,179.712112 943.828613,173.684952 961.617371,159.064316 
	C978.230591,145.409882 987.203491,127.524910 990.747314,107.038918 
	C993.061584,93.660431 993.219482,79.881493 993.887146,66.259575 
	C994.141113,61.077480 993.119263,55.832851 992.650696,50.282043 
	C1026.725342,50.282043 1060.134888,50.282043 1094.020020,50.282043 
	C1094.677002,54.707451 1095.338501,59.162868 1096.000000,64.081322 
z"/>
<path fill="#FFAF00" opacity="1.000000" stroke="none" 
	d="
M1958.000122,229.000107 
	C1958.573608,210.345383 1956.918945,192.571487 1950.171143,175.442291 
	C1939.721558,148.915771 1921.313965,131.179001 1893.517212,124.104813 
	C1874.613892,119.293999 1855.659058,119.624557 1836.989746,125.949188 
	C1817.343506,132.604782 1802.523071,144.958420 1791.986694,162.840561 
	C1783.104614,177.915314 1778.669556,194.116119 1777.999756,211.473785 
	C1777.655273,220.399567 1777.058716,229.325775 1777.044800,238.252533 
	C1776.956787,294.574158 1777.000000,350.895996 1777.000000,407.217773 
	C1777.000000,409.003784 1777.000000,410.789764 1777.000000,412.783875 
	C1742.935425,412.783875 1709.330444,412.783875 1675.000000,412.783875 
	C1675.000000,411.257263 1675.000000,409.674347 1675.000000,408.091431 
	C1675.000000,337.605896 1674.713867,267.118286 1675.222534,196.636429 
	C1675.334961,181.059906 1679.726562,165.921021 1685.847656,151.362610 
	C1693.734497,132.604111 1704.888550,116.257614 1718.837402,101.477722 
	C1734.719849,84.649162 1753.104492,71.329559 1773.713989,61.262875 
	C1793.279541,51.706150 1813.801147,44.462402 1835.632935,42.048653 
	C1848.362915,40.641197 1861.220459,38.788960 1873.943726,39.251804 
	C1899.939331,40.197487 1925.195923,45.500744 1949.222046,55.995049 
	C1968.785034,64.539894 1986.519409,75.714287 2002.588989,89.868484 
	C2016.793457,102.379860 2028.164307,116.906578 2037.642944,133.143143 
	C2047.343872,149.760559 2052.798340,167.803833 2055.901123,186.622253 
	C2056.754150,191.796936 2056.950684,197.127609 2056.955811,202.387161 
	C2057.022461,270.373138 2057.000000,338.359192 2057.000000,406.345245 
	C2057.000000,408.331879 2057.000000,410.318512 2057.000000,412.652100 
	C2024.082642,412.652100 1991.359253,412.652100 1958.000122,412.652100 
	C1958.000122,351.662476 1958.000122,290.581268 1958.000122,229.000107 
z"/>
<path fill="#636363" opacity="1.000000" stroke="none" 
	d="
M323.717102,195.451874 
	C321.432037,211.496353 314.787842,224.848740 303.034119,235.384613 
	C293.525726,243.907806 282.519928,249.199417 269.640564,251.136963 
	C250.072067,254.080826 232.857101,248.738647 218.179062,236.427200 
	C206.108139,226.302536 199.282547,212.719849 196.836273,196.774689 
	C194.735962,183.084473 197.145981,170.286789 203.401047,158.525970 
	C213.473785,139.587219 229.259323,128.038269 250.972702,124.900124 
	C273.371979,121.662857 292.031403,128.728348 307.234314,144.878189 
	C320.409760,158.874298 325.229889,176.017288 323.717102,195.451874 
z"/>
<path fill="#636363" opacity="1.000000" stroke="none" 
	d="
M1525.000000,616.000000 
	C1513.210449,616.000000 1501.920898,616.000000 1490.319824,616.000000 
	C1490.319824,575.209656 1490.319824,534.969604 1490.319824,494.292419 
	C1492.039551,494.191132 1493.645630,494.014832 1495.251709,494.014008 
	C1527.251587,493.997162 1559.253906,493.767609 1591.249756,494.125671 
	C1602.519531,494.251770 1613.277588,496.942719 1620.110352,507.365295 
	C1627.959351,519.338135 1625.199463,531.209900 1619.409790,542.879150 
	C1617.888672,545.945007 1615.525879,548.593384 1613.387451,551.666504 
	C1622.271484,555.279846 1628.483643,561.436157 1631.351685,570.744507 
	C1636.700317,588.103455 1628.135254,609.963684 1607.174683,614.367615 
	C1603.178467,615.207214 1599.063843,615.902832 1594.999268,615.928650 
	C1571.833618,616.075806 1548.666626,616.000000 1525.000000,616.000000 
M1613.239624,587.401367 
	C1616.464478,572.467529 1611.112915,561.750793 1593.979126,561.927307 
	C1567.332886,562.202026 1540.681641,561.999146 1514.032593,561.998718 
	C1512.122437,561.998718 1510.212158,561.998779 1508.385498,561.998779 
	C1508.385498,575.450928 1508.385498,588.019653 1508.385498,600.655090 
	C1509.397949,600.797974 1510.041748,600.967957 1510.685669,600.968384 
	C1539.000244,600.987244 1567.316406,601.160217 1595.628418,600.892883 
	C1604.017578,600.813660 1610.563232,596.995117 1613.239624,587.401367 
M1605.987061,519.787842 
	C1603.254761,512.235291 1598.623657,509.039307 1589.822998,509.020508 
	C1564.033203,508.965454 1538.243286,508.995850 1512.453369,509.019775 
	C1511.040405,509.021088 1509.627563,509.268188 1508.401123,509.383392 
	C1508.401123,522.167847 1508.401123,534.393494 1508.401123,546.491943 
	C1509.110352,546.712891 1509.420898,546.893982 1509.731567,546.894409 
	C1538.182129,546.936401 1566.632812,546.979309 1595.083252,546.942322 
	C1596.292603,546.940796 1597.715332,546.471497 1598.675049,545.741882 
	C1605.111450,540.848999 1608.604614,528.817932 1605.987061,519.787842 
z"/>
<path fill="#636363" opacity="1.000000" stroke="none" 
	d="
M1096.905273,577.093872 
	C1090.744019,553.589111 1093.135254,531.649353 1107.602417,512.261780 
	C1115.726685,501.374207 1127.185181,493.902740 1141.053345,493.169922 
	C1161.760254,492.075714 1182.664795,490.811401 1203.257446,492.462067 
	C1228.924927,494.519440 1244.526123,510.414612 1250.560303,535.267151 
	C1255.726074,556.542053 1253.821533,577.121460 1241.096924,595.459839 
	C1231.381470,609.461304 1217.672607,617.636230 1200.236938,617.932861 
	C1182.425903,618.235901 1164.604492,618.126587 1146.789673,617.966797 
	C1126.373901,617.783691 1111.776367,607.858276 1102.162720,590.271545 
	C1099.972778,586.265198 1098.673950,581.771851 1096.905273,577.093872 
M1222.534912,591.035034 
	C1227.644409,586.427612 1230.264648,580.429199 1232.006348,573.962585 
	C1235.128174,562.372620 1234.861938,550.585571 1232.731201,538.993530 
	C1231.014648,529.654846 1227.028931,521.173706 1218.842773,515.275452 
	C1212.044067,510.376984 1204.116821,509.262665 1196.316772,509.168640 
	C1179.211426,508.962402 1162.082764,509.371033 1144.987061,510.084808 
	C1131.494507,510.648132 1122.103394,517.871887 1116.875244,530.195618 
	C1110.705811,544.737854 1110.693115,559.870483 1114.536743,574.844238 
	C1119.017090,592.298523 1131.146973,600.998169 1149.295410,600.999756 
	C1165.625244,601.001099 1181.960205,601.240295 1198.283081,600.903687 
	C1207.176147,600.720215 1215.586060,598.395081 1222.534912,591.035034 
z"/>
<path fill="#636363" opacity="1.000000" stroke="none" 
	d="
M795.249878,531.750122 
	C803.000061,539.575806 810.500366,547.151428 818.296448,555.025757 
	C819.807434,553.618103 821.125732,552.462280 822.363525,551.225830 
	C838.397888,535.208862 854.647949,519.398499 870.343567,503.055786 
	C877.387878,495.721100 885.039307,492.106201 895.553284,494.594574 
	C895.553284,534.644836 895.553284,575.002136 895.553284,615.680542 
	C890.212219,615.680542 884.972290,615.680542 879.122681,615.680542 
	C879.122681,583.679382 879.122681,551.813599 879.122681,518.529114 
	C858.523926,538.606567 838.945679,557.689331 818.844971,577.281433 
	C799.202026,558.116516 779.527283,538.920532 759.105225,518.995422 
	C759.105225,551.671570 759.105225,583.508179 759.105225,615.668945 
	C752.899719,615.668945 747.326904,615.668945 741.375244,615.668945 
	C741.375244,575.320801 741.375244,535.082886 741.375244,494.405975 
	C749.609802,493.657288 757.328247,492.910858 764.022217,500.267548 
	C773.881470,511.102966 784.630127,521.129211 795.249878,531.750122 
z"/>
<path fill="#636363" opacity="1.000000" stroke="none" 
	d="
M2113.091553,600.994446 
	C2151.536865,600.994446 2189.981934,600.994446 2228.712402,600.994446 
	C2228.712402,606.175659 2228.712402,610.750122 2228.712402,615.663086 
	C2183.918701,615.663086 2139.347900,615.663086 2094.408203,615.663086 
	C2094.408203,575.326904 2094.408203,535.085205 2094.408203,494.042023 
	C2099.939941,494.042023 2105.526611,494.042023 2111.568359,494.557617 
	C2112.015625,528.475769 2111.989990,561.878296 2112.046631,595.280762 
	C2112.049805,597.185913 2112.727783,599.089905 2113.091553,600.994446 
z"/>
<path fill="#636363" opacity="1.000000" stroke="none" 
	d="
M1859.260376,494.008423 
	C1864.210205,494.002106 1868.685547,494.002106 1873.578491,494.002106 
	C1873.578491,534.659851 1873.578491,574.972046 1873.578491,615.642090 
	C1867.963379,615.642090 1862.396362,615.642090 1856.251343,615.642090 
	C1856.168335,614.077393 1856.010620,612.485657 1856.010010,610.893982 
	C1855.996094,573.620789 1855.981445,536.347534 1856.048706,499.074524 
	C1856.052368,497.088715 1854.758057,493.994781 1859.260376,494.008423 
z"/>
<path fill="#808080" opacity="1.000000" stroke="none" 
	d="
M2113.055176,600.527283 
	C2112.727783,599.089905 2112.049805,597.185913 2112.046631,595.280762 
	C2111.989990,561.878296 2112.015625,528.475769 2112.036621,494.615112 
	C2112.366455,495.837616 2112.956787,497.517761 2112.959961,499.198975 
	C2113.020020,532.819336 2113.012451,566.439697 2113.055176,600.527283 
z"/>
<path fill="#000000" opacity="1.000000" stroke="none" 
	d="
M2308.744629,332.315430 
	C2285.590332,323.195526 2268.659424,307.482208 2256.282715,286.648834 
	C2244.395752,266.639771 2238.854736,244.885864 2240.108887,221.667664 
	C2240.819824,208.502838 2243.798096,195.688538 2248.906738,183.420807 
	C2254.759521,169.366379 2262.882568,156.862411 2274.051514,146.498184 
	C2288.314941,133.262787 2305.037354,124.561569 2324.206299,121.088821 
	C2332.871338,119.518974 2341.750977,117.973160 2350.490723,118.184280 
	C2381.747803,118.939384 2409.452881,128.881393 2430.959961,152.564026 
	C2444.273193,167.223953 2452.543701,184.732834 2455.758545,204.117828 
	C2457.714111,215.909897 2458.729980,228.215164 2457.674561,240.067856 
	C2455.974609,259.154297 2449.379883,276.997498 2438.471436,293.036194 
	C2421.681885,317.722748 2398.810791,332.799774 2369.278320,338.127167 
	C2348.572754,341.862274 2328.656250,339.554565 2308.744629,332.315430 
z"/>
<path fill="#000000" opacity="1.000000" stroke="none" 
	d="
M1438.000000,185.000000 
	C1388.754883,185.000000 1340.009644,185.000000 1291.067749,185.000000 
	C1305.206177,147.992233 1343.396118,122.110641 1383.797607,121.162064 
	C1430.419312,120.067444 1468.167725,148.909058 1482.962891,185.000000 
	C1467.996704,185.000000 1453.248413,185.000000 1438.000000,185.000000 
z"/>
<path fill="#000000" opacity="1.000000" stroke="none" 
	d="
M1613.142212,587.803833 
	C1610.563232,596.995117 1604.017578,600.813660 1595.628418,600.892883 
	C1567.316406,601.160217 1539.000244,600.987244 1510.685669,600.968384 
	C1510.041748,600.967957 1509.397949,600.797974 1508.385498,600.655090 
	C1508.385498,588.019653 1508.385498,575.450928 1508.385498,561.998779 
	C1510.212158,561.998779 1512.122437,561.998718 1514.032593,561.998718 
	C1540.681641,561.999146 1567.332886,562.202026 1593.979126,561.927307 
	C1611.112915,561.750793 1616.464478,572.467529 1613.142212,587.803833 
z"/>
<path fill="#000000" opacity="1.000000" stroke="none" 
	d="
M1606.050537,520.196838 
	C1608.604614,528.817932 1605.111450,540.848999 1598.675049,545.741882 
	C1597.715332,546.471497 1596.292603,546.940796 1595.083252,546.942322 
	C1566.632812,546.979309 1538.182129,546.936401 1509.731567,546.894409 
	C1509.420898,546.893982 1509.110352,546.712891 1508.401123,546.491943 
	C1508.401123,534.393494 1508.401123,522.167847 1508.401123,509.383392 
	C1509.627563,509.268188 1511.040405,509.021088 1512.453369,509.019775 
	C1538.243286,508.995850 1564.033203,508.965454 1589.822998,509.020508 
	C1598.623657,509.039307 1603.254761,512.235291 1606.050537,520.196838 
z"/>
<path fill="#000000" opacity="1.000000" stroke="none" 
	d="
M1222.281616,591.290771 
	C1215.586060,598.395081 1207.176147,600.720215 1198.283081,600.903687 
	C1181.960205,601.240295 1165.625244,601.001099 1149.295410,600.999756 
	C1131.146973,600.998169 1119.017090,592.298523 1114.536743,574.844238 
	C1110.693115,559.870483 1110.705811,544.737854 1116.875244,530.195618 
	C1122.103394,517.871887 1131.494507,510.648132 1144.987061,510.084808 
	C1162.082764,509.371033 1179.211426,508.962402 1196.316772,509.168640 
	C1204.116821,509.262665 1212.044067,510.376984 1218.842773,515.275452 
	C1227.028931,521.173706 1231.014648,529.654846 1232.731201,538.993530 
	C1234.861938,550.585571 1235.128174,562.372620 1232.006348,573.962585 
	C1230.264648,580.429199 1227.644409,586.427612 1222.281616,591.290771 
z"/>
</svg>