<?xml version="1.0" encoding="UTF-8" standalone="no"?>
<svg
   xmlns:dc="http://purl.org/dc/elements/1.1/"
   xmlns:cc="http://creativecommons.org/ns#"
   xmlns:rdf="http://www.w3.org/1999/02/22-rdf-syntax-ns#"
   xmlns:svg="http://www.w3.org/2000/svg"
   xmlns="http://www.w3.org/2000/svg"
   xmlns:sodipodi="http://sodipodi.sourceforge.net/DTD/sodipodi-0.dtd"
   xmlns:inkscape="http://www.inkscape.org/namespaces/inkscape"
   inkscape:version="1.0 (4035a4f, 2020-05-01)"
   sodipodi:docname="291855.svg"
   id="svg84640"
   version="1.1"
   viewBox="0 0 364.16397 57.549479"
   height="57.54948pt"
   width="364.16397pt">
  <metadata
     id="metadata84646">
    <rdf:RDF>
      <cc:Work
         rdf:about="">
        <dc:format>image/svg+xml</dc:format>
        <dc:type
           rdf:resource="http://purl.org/dc/dcmitype/StillImage" />
        <dc:title></dc:title>
      </cc:Work>
    </rdf:RDF>
  </metadata>
  <defs
     id="defs84644" />
  <sodipodi:namedview
     inkscape:current-layer="svg84640"
     inkscape:window-maximized="1"
     inkscape:window-y="25"
     inkscape:window-x="0"
     inkscape:cy="-7.5529655"
     inkscape:cx="335.22714"
     inkscape:zoom="0.92684849"
     inkscape:pagecheckerboard="true"
     fit-margin-bottom="0"
     fit-margin-right="0"
     fit-margin-left="0"
     fit-margin-top="0"
     showgrid="false"
     id="namedview84642"
     inkscape:window-height="791"
     inkscape:window-width="1440"
     inkscape:pageshadow="2"
     inkscape:pageopacity="0"
     guidetolerance="10"
     gridtolerance="10"
     objecttolerance="10"
     borderopacity="1"
     bordercolor="#666666"
     pagecolor="#ffffff" />
  <g
     style="font-size:62.9265px;line-height:1.25;font-family:'SF Pro Rounded';-inkscape-font-specification:'SF Pro Rounded';fill:#005cab;fill-opacity:1;stroke-width:0.327742"
     id="text85211"
     aria-label="postemobile">
    <path
       id="path85237"
       style="font-style:normal;font-variant:normal;font-weight:normal;font-stretch:normal;font-family:Arial;-inkscape-font-specification:Arial;letter-spacing:0px;fill:#005cab;fill-opacity:1;stroke-width:0.327742"
       d="M 6.7055225e-8,57.54948 V 12.413237 H 5.0390361 v 4.240164 q 1.7820981,-2.488792 4.0250836,-3.717825 2.2429853,-1.259759 5.4384713,-1.259759 4.178713,0 7.3742,2.150808 3.195486,2.150808 4.823955,6.083714 1.628469,3.90218 1.628469,8.572506 0,5.008311 -1.812824,9.033394 -1.782098,3.994358 -5.223391,6.145166 -3.410567,2.120082 -7.189844,2.120082 -2.765325,0 -4.9775846,-1.167581 -2.1815339,-1.167582 -3.5949221,-2.94968 V 57.54948 Z M 5.0083102,28.913007 q 0,6.298795 2.5502439,9.309926 2.5502439,3.011132 6.1758919,3.011132 3.687099,0 6.298795,-3.103309 2.642421,-3.134035 2.642421,-9.678636 0,-6.237344 -2.58097,-9.340653 -2.550243,-3.103308 -6.11444,-3.103308 -3.53347,0 -6.2680688,3.318389 -2.703873,3.287664 -2.703873,9.586459 z" />
    <path
       id="path85239"
       style="font-style:normal;font-variant:normal;font-weight:normal;font-stretch:normal;font-family:Arial;-inkscape-font-specification:Arial;letter-spacing:0px;fill:#005cab;fill-opacity:1;stroke-width:0.327742"
       d="m 32.968816,28.728652 q 0,-9.06412 5.039036,-13.427187 4.209439,-3.625648 10.262427,-3.625648 6.728957,0 10.999847,4.424519 4.27089,4.393794 4.27089,12.167429 0,6.298795 -1.905001,9.924442 -1.874276,3.594922 -5.499923,5.592101 -3.594922,1.997179 -7.865813,1.997179 -6.85186,0 -11.092024,-4.393793 Q 32.968816,36.9939 32.968816,28.728652 Z m 5.684279,0 q 0,6.268069 2.734598,9.402104 2.734599,3.103309 6.882586,3.103309 4.117261,0 6.85186,-3.134035 2.734599,-3.134035 2.734599,-9.555733 0,-6.052988 -2.765325,-9.156297 -2.734598,-3.134035 -6.821134,-3.134035 -4.147987,0 -6.882586,3.103309 -2.734598,3.103309 -2.734598,9.371378 z" />
    <path
       id="path85241"
       style="font-style:normal;font-variant:normal;font-weight:normal;font-stretch:normal;font-family:Arial;-inkscape-font-specification:Arial;letter-spacing:0px;fill:#005cab;fill-opacity:1;stroke-width:0.327742"
       d="m 67.842634,35.303979 5.469197,-0.860323 q 0.460888,3.287664 2.550244,5.039036 2.120083,1.751373 5.89936,1.751373 3.810002,0 5.653552,-1.536292 1.84355,-1.567017 1.84355,-3.656374 0,-1.874275 -1.628469,-2.949679 -1.136856,-0.73742 -5.653553,-1.874276 -6.083714,-1.536291 -8.449603,-2.642421 -2.335163,-1.136856 -3.564196,-3.103309 -1.198307,-1.997179 -1.198307,-4.393793 0,-2.181534 0.983226,-4.025084 1.013953,-1.874276 2.734599,-3.103309 1.290485,-0.952501 3.502745,-1.597743 2.242985,-0.675968 4.793229,-0.675968 3.840729,0 6.728957,1.10613 2.918953,1.106129 4.301616,3.011131 1.382662,1.874275 1.905001,5.039036 l -5.407746,0.73742 q -0.36871,-2.519518 -2.150808,-3.932906 -1.751372,-1.413389 -4.977584,-1.413389 -3.810003,0 -5.438472,1.259759 -1.628469,1.259759 -1.628469,2.94968 0,1.075404 0.675968,1.935727 0.675969,0.891049 2.120082,1.47484 0.829598,0.307258 4.885407,1.413388 5.868634,1.567018 8.173071,2.58097 2.335163,0.983227 3.656374,2.888228 1.32121,1.905001 1.32121,4.731778 0,2.765324 -1.628469,5.223391 -1.597743,2.42734 -4.6396,3.779277 -3.041857,1.32121 -6.882586,1.32121 -6.360246,0 -9.709362,-2.642421 -3.318389,-2.642421 -4.240164,-7.835087 z" />
    <path
       id="path85243"
       style="font-style:normal;font-variant:normal;font-weight:normal;font-stretch:normal;font-family:Arial;-inkscape-font-specification:Arial;letter-spacing:0px;fill:#005cab;fill-opacity:1;stroke-width:0.327742"
       d="m 113.59339,40.097209 0.79888,4.885407 q -2.33517,0.491613 -4.17872,0.491613 -3.01113,0 -4.67032,-0.952501 -1.6592,-0.9525 -2.33517,-2.488792 -0.67596,-1.567017 -0.67596,-6.544602 V 16.714853 H 98.476286 V 12.413237 H 102.5321 V 4.3323436 l 5.49992,-3.3183896 v 11.399283 h 5.56137 v 4.301616 h -5.56137 v 19.08074 q 0,2.365889 0.27653,3.041857 0.30726,0.675968 0.9525,1.075404 0.67597,0.399436 1.905,0.399436 0.92178,0 2.42734,-0.215081 z" />
    <path
       id="path85245"
       style="font-style:normal;font-variant:normal;font-weight:normal;font-stretch:normal;font-family:Arial;-inkscape-font-specification:Arial;letter-spacing:0px;fill:#005cab;fill-opacity:1;stroke-width:0.327742"
       d="m 141.30809,34.535834 5.71501,0.706694 q -1.35194,5.00831 -5.00831,7.773635 -3.65638,2.765324 -9.34066,2.765324 -7.15912,0 -11.36855,-4.393793 -4.17872,-4.42452 -4.17872,-12.38251 0,-8.234522 4.24017,-12.781945 4.24016,-4.547422 10.99984,-4.547422 6.54461,0 10.69259,4.455245 4.14799,4.455245 4.14799,12.536138 0,0.491614 -0.0307,1.47484 h -24.33485 q 0.30726,5.37702 3.04185,8.234522 2.7346,2.857503 6.82114,2.857503 3.04186,0 5.19266,-1.597744 2.15081,-1.597743 3.41057,-5.100487 z m -18.15896,-8.941217 h 18.22041 q -0.36871,-4.117261 -2.08935,-6.175891 -2.64242,-3.195487 -6.85186,-3.195487 -3.81001,0 -6.4217,2.550244 -2.58097,2.550244 -2.8575,6.821134 z" />
    <path
       id="path85247"
       style="font-style:normal;font-variant:normal;font-weight:normal;font-stretch:normal;font-family:'Arial Black';-inkscape-font-specification:'Arial Black, ';letter-spacing:-2.94325px;fill:#005cab;fill-opacity:1;stroke-width:0.327742"
       d="m 153.72133,12.413237 h 11.67582 v 4.762503 q 2.51951,-2.980405 5.06976,-4.240164 2.58097,-1.259759 6.20662,-1.259759 3.90218,0 6.17589,1.382662 2.27371,1.382662 3.71782,4.117261 2.94968,-3.195486 5.37702,-4.332342 2.42734,-1.167581 5.99154,-1.167581 5.25412,0 8.2038,3.134034 2.94968,3.103309 2.94968,9.740088 V 45.044067 H 196.55314 V 26.454941 q 0,-2.21226 -0.86033,-3.287664 -1.25975,-1.689921 -3.13403,-1.689921 -2.21226,0 -3.5642,1.597743 -1.35193,1.597744 -1.35193,5.131214 v 16.837754 h -12.53614 v -17.97461 q 0,-2.150808 -0.24581,-2.918954 -0.39943,-1.229033 -1.38266,-1.966453 -0.98323,-0.768145 -2.30444,-0.768145 -2.15081,0 -3.53347,1.628469 -1.38266,1.628469 -1.38266,5.346294 v 16.653399 h -12.53614 z" />
    <path
       id="path85249"
       style="font-style:normal;font-variant:normal;font-weight:normal;font-stretch:normal;font-family:'Arial Black';-inkscape-font-specification:'Arial Black, ';letter-spacing:-2.94325px;fill:#005cab;fill-opacity:1;stroke-width:0.327742"
       d="m 212.07611,28.82083 q 0,-7.466377 5.03903,-12.290332 5.03904,-4.854681 13.61155,-4.854681 9.80154,0 14.80985,5.684278 4.02508,4.578149 4.02508,11.27638 0,7.527828 -5.00831,12.351783 -4.97758,4.793229 -13.7959,4.793229 -7.86581,0 -12.72049,-3.994358 -5.96081,-4.946858 -5.96081,-12.966299 z m 12.53614,-0.03073 q 0,4.363067 1.75137,6.452424 1.7821,2.089356 4.45524,2.089356 2.70388,0 4.42452,-2.05863 1.75138,-2.058631 1.75138,-6.606054 0,-4.240164 -1.75138,-6.298795 -1.75137,-2.089356 -4.33234,-2.089356 -2.7346,0 -4.5167,2.120082 -1.78209,2.089357 -1.78209,6.390973 z" />
    <path
       id="path85251"
       style="font-style:normal;font-variant:normal;font-weight:normal;font-stretch:normal;font-family:'Arial Black';-inkscape-font-specification:'Arial Black, ';letter-spacing:-2.94325px;fill:#005cab;fill-opacity:1;stroke-width:0.327742"
       d="m 252.76354,1.6242266e-6 h 12.62832 V 15.608723 q 1.87427,-1.966453 4.24016,-2.94968 2.39662,-0.983226 5.28485,-0.983226 5.96081,0 9.86299,4.301616 3.90218,4.27089 3.90218,12.290332 0,5.346294 -1.7821,9.432829 -1.7821,4.05581 -4.94686,6.083714 -3.13403,1.997179 -6.97476,1.997179 -3.28767,0 -6.02227,-1.413388 -2.05863,-1.10613 -4.48597,-4.147987 v 4.823955 H 252.76354 Z M 265.29968,28.636475 q 0,4.209438 1.56702,6.11444 1.59774,1.874275 4.02508,1.874275 2.24299,0 3.74855,-1.84355 1.53629,-1.874275 1.53629,-6.268069 0,-3.871454 -1.50556,-5.684278 -1.47484,-1.812824 -3.59492,-1.812824 -2.55025,0 -4.17872,1.905001 -1.59774,1.874276 -1.59774,5.715005 z" />
    <path
       id="path85253"
       style="font-style:normal;font-variant:normal;font-weight:normal;font-stretch:normal;font-family:'Arial Black';-inkscape-font-specification:'Arial Black, ';letter-spacing:-2.94325px;fill:#005cab;fill-opacity:1;stroke-width:0.327742"
       d="m 292.25267,1.6242266e-6 h 12.50541 V 8.5110563 h -12.50541 z m 0,12.4132353757734 h 12.50541 v 32.63083 h -12.50541 z" />
    <path
       id="path85255"
       style="font-style:normal;font-variant:normal;font-weight:normal;font-stretch:normal;font-family:'Arial Black';-inkscape-font-specification:'Arial Black, ';letter-spacing:-2.94325px;fill:#005cab;fill-opacity:1;stroke-width:0.327742"
       d="m 310.29516,1.6242266e-6 h 12.53613 V 45.044067 h -12.53613 z" />
    <path
       id="path85257"
       style="font-style:normal;font-variant:normal;font-weight:normal;font-stretch:normal;font-family:'Arial Black';-inkscape-font-specification:'Arial Black, ';letter-spacing:-2.94325px;fill:#005cab;fill-opacity:1;stroke-width:0.327742"
       d="m 364.16396,31.831961 h -25.07228 q 0.33799,3.011131 1.62847,4.485971 1.81282,2.120082 4.73178,2.120082 1.84355,0 3.50274,-0.921775 1.01396,-0.583791 2.18154,-2.05863 l 12.32105,1.136855 q -2.82677,4.916133 -6.82113,7.066941 -3.99436,2.120082 -11.46073,2.120082 -6.48315,0 -10.20098,-1.812824 -3.71783,-1.843549 -6.17589,-5.807181 -2.42734,-3.994358 -2.42734,-9.371378 0,-7.650732 4.8854,-12.38251 4.91614,-4.731777 13.5501,-4.731777 7.00548,0 11.06129,2.120082 4.05581,2.120082 6.1759,6.145166 2.12008,4.025083 2.12008,10.477508 z m -12.7205,-5.991537 q -0.36871,-3.625648 -1.96645,-5.192665 -1.56702,-1.567017 -4.14799,-1.567017 -2.9804,0 -4.7625,2.365888 -1.13685,1.47484 -1.44411,4.393794 z" />
  </g>
</svg>
