<svg version="1.1" id="Layer_1" xmlns="http://www.w3.org/2000/svg" xmlns:xlink="http://www.w3.org/1999/xlink" x="0px" y="0px"
	 width="100%" viewBox="0 0 1200 360" enable-background="new 0 0 1200 360" xml:space="preserve">
<path fill="#000000" opacity="1.000000" stroke="none" 
	d="
M958.000000,361.000000 
	C639.057617,361.000000 320.115234,361.000000 1.086418,361.000000 
	C1.086418,241.079346 1.086418,121.158600 1.086418,1.000000 
	C328.694672,1.000000 656.389404,1.000000 984.529907,1.396352 
	C979.939758,3.046440 974.896362,4.270753 969.869263,5.558753 
	C940.378784,13.114472 914.271362,26.674269 893.349182,49.193211 
	C875.517395,68.385902 864.252991,90.212471 864.852539,117.372337 
	C865.284241,136.930176 872.351379,153.328094 884.755249,167.900665 
	C880.095520,176.449951 875.406860,184.646271 871.473938,193.190475 
	C864.834656,207.614380 860.193481,222.852448 859.274841,238.649582 
	C858.571716,250.740738 859.211853,263.164032 861.228699,275.106171 
	C865.359802,299.567139 878.113586,319.445526 897.549622,334.750427 
	C914.802246,348.335815 934.659790,356.052246 956.379639,359.095428 
	C956.996582,359.181854 957.463257,360.341034 958.000000,361.000000 
M280.992065,221.490967 
	C282.001953,220.396957 283.084900,219.361176 284.010834,218.200195 
	C297.647369,201.102310 302.607513,180.986588 302.794830,159.768631 
	C302.928925,144.576492 300.627930,129.618576 294.351562,115.302399 
	C285.129578,94.267540 264.491119,78.348785 241.018646,78.996109 
	C227.664627,79.364380 214.077164,78.266075 201.012436,80.393127 
	C183.843719,83.188347 171.807144,93.938225 164.739670,110.239624 
	C159.668686,121.936035 158.387314,134.340607 158.225021,146.596527 
	C157.664719,188.909744 157.829651,231.236298 158.149521,273.554504 
	C158.220291,282.918213 162.825348,291.108185 173.896774,292.770569 
	C188.610214,294.979767 199.422562,287.764648 199.079300,272.061279 
	C198.722549,255.740631 198.992813,239.406128 199.010498,223.077713 
	C199.012329,221.379608 199.160736,219.681686 199.241119,217.983673 
	C209.021500,233.199265 223.918320,237.525177 239.886383,237.674377 
	C255.076935,237.816299 269.212097,233.062408 280.992065,221.490967 
M759.877991,216.298309 
	C770.047424,202.648300 774.255493,186.794098 774.781982,170.284821 
	C775.551636,146.151093 775.314392,121.968163 774.845276,97.819054 
	C774.601562,85.275070 766.833130,77.971405 754.867065,78.978996 
	C753.046997,79.132248 751.201233,78.947975 749.371155,79.019386 
	C741.592224,79.322945 735.004211,85.109291 734.112183,92.801712 
	C733.483459,98.223610 733.082336,103.701653 733.048889,109.157501 
	C732.926453,129.149841 733.127930,149.144852 732.900452,169.135361 
	C732.850647,173.509216 732.203247,178.118057 730.683533,182.190399 
	C724.958557,197.530792 705.616516,207.549805 689.952515,198.438660 
	C681.113159,193.297089 678.186340,184.718536 678.089722,175.261505 
	C677.831055,149.939560 678.237122,124.610298 677.924744,99.289551 
	C677.674805,79.029961 662.892822,76.349319 648.071716,80.173805 
	C639.673950,82.340782 637.061401,89.657852 637.036133,97.690437 
	C636.947449,125.847107 636.960510,154.004349 637.042297,182.161041 
	C637.054749,186.449417 637.420776,190.764755 637.988098,195.018967 
	C641.461792,221.069260 659.775879,236.995651 686.117310,236.999786 
	C694.947571,237.001175 703.787659,237.266754 712.606140,236.944351 
	C730.747925,236.281067 747.345032,231.726334 759.877991,216.298309 
M433.274475,80.379356 
	C427.021454,83.827019 424.086304,89.200142 423.997223,96.261024 
	C423.678162,121.551720 423.589569,146.848724 422.919617,172.130249 
	C422.538879,186.496872 412.584290,197.567184 398.616608,201.088989 
	C386.769897,204.076035 373.115356,198.082062 369.913788,184.851929 
	C368.987213,181.022781 368.110626,177.060989 368.084473,173.154160 
	C367.919312,148.489075 368.190521,123.819504 367.826569,99.158669 
	C367.759827,94.635155 366.233459,89.696762 363.990326,85.737701 
	C360.004822,78.703392 352.715546,79.100861 345.568390,78.862129 
	C333.798126,78.468979 326.835846,87.184502 326.930267,97.411041 
	C327.150299,121.241898 326.906982,145.076721 327.046143,168.908783 
	C327.101349,178.365417 326.929565,187.917526 328.167145,197.253021 
	C330.559753,215.301590 342.505524,231.083511 361.499481,234.911835 
	C381.362640,238.915375 401.473419,238.314301 421.288269,234.242523 
	C434.249359,231.579132 444.590790,224.438385 451.960205,213.143005 
	C461.162994,199.037628 464.251984,183.098450 464.803680,166.844376 
	C465.566498,144.370697 465.309235,121.843994 464.755402,99.358070 
	C464.630280,94.278145 462.654602,88.320450 459.487915,84.429420 
	C452.721863,76.115814 443.044647,78.698456 433.274475,80.379356 
M594.614441,151.864899 
	C585.456848,148.581528 576.396729,144.984634 567.115173,142.100128 
	C557.195435,139.017242 546.992371,136.848297 537.062012,133.795532 
	C532.410889,132.365677 529.339233,129.005646 528.942139,123.584824 
	C528.543457,118.140610 531.489929,114.979294 535.877686,113.268677 
	C543.789490,110.184128 552.075623,110.348137 560.356995,111.711441 
	C569.856018,113.275208 575.638489,120.635635 582.530884,126.159462 
	C591.562195,133.397552 606.933716,130.108826 610.032593,116.939842 
	C612.359558,107.051315 608.785767,98.554741 599.002686,92.003242 
	C588.009827,84.641609 575.639282,81.466949 562.645874,79.863480 
	C544.643982,77.641930 527.430481,79.234962 510.899719,87.462975 
	C486.576996,99.569351 480.975555,130.294739 494.389008,150.883408 
	C501.762939,162.201859 513.653564,166.577087 525.924805,169.965515 
	C539.621826,173.747620 553.479126,176.981674 567.057983,181.136246 
	C570.430359,182.168045 574.044067,185.269089 575.720825,188.397629 
	C579.351257,195.171402 573.822266,203.736298 564.601929,205.842850 
	C550.046021,209.168411 536.764099,207.330643 525.937561,195.594193 
	C521.818237,191.128693 517.168762,186.811661 511.974945,183.768356 
	C506.127838,180.342300 499.360657,180.587082 493.738770,184.944290 
	C488.149475,189.276291 486.997620,195.612274 487.654877,202.321350 
	C488.735718,213.355118 496.098602,219.884720 504.700256,225.255936 
	C515.973816,232.295578 528.392578,235.729218 541.618896,237.240189 
	C559.708984,239.306839 576.994690,237.683701 593.202515,228.908401 
	C609.308044,220.188461 617.534668,206.527328 617.970642,188.282303 
	C618.376038,171.317581 609.786865,159.835022 594.614441,151.864899 
M128.510574,100.118362 
	C125.695557,97.421944 123.278259,94.041374 120.002686,92.137199 
	C93.464195,76.709694 65.580658,74.565994 36.908920,85.166649 
	C26.590876,88.981499 18.183876,95.682594 13.038465,105.852608 
	C8.051229,115.709969 6.880268,126.158012 9.252375,136.736282 
	C10.796623,143.622772 13.519985,150.179810 18.845619,155.476120 
	C26.699080,163.286316 36.495117,167.068710 46.761841,169.928192 
	C60.613201,173.786011 74.651848,177.004929 88.384689,181.230652 
	C91.718811,182.256577 95.065956,185.652130 96.826927,188.832932 
	C99.720314,194.059174 95.291786,201.950150 88.102112,204.873520 
	C77.280846,209.273514 59.681198,208.318954 49.987541,198.496185 
	C46.476898,194.938797 42.962036,191.384338 39.388649,187.890366 
	C33.515739,182.147919 24.383017,180.272934 17.905718,182.998322 
	C8.346746,187.020370 5.561656,201.034393 11.216493,210.902206 
	C15.723008,218.766144 22.595129,223.786301 30.357857,227.615402 
	C46.072979,235.367188 62.778175,237.915390 80.289780,237.175568 
	C95.862137,236.517639 109.999214,232.456131 122.298744,222.847534 
	C142.078720,207.395096 147.399063,172.474136 121.705750,154.908539 
	C108.405350,145.815536 92.909874,142.773254 77.670845,138.939728 
	C70.176659,137.054489 62.775219,134.693375 55.504021,132.070251 
	C51.328671,130.563965 49.722347,126.902626 49.985435,122.426170 
	C50.224655,118.355789 52.198074,115.641609 55.911125,114.103378 
	C69.086166,108.645256 81.789368,109.331726 93.678963,117.460007 
	C97.208443,119.872917 100.071419,123.238052 103.468178,125.872406 
	C111.378273,132.007065 120.713554,131.321701 127.151184,124.340538 
	C132.965912,118.034882 133.544571,110.203148 128.510574,100.118362 
z"/>
<path fill="#95D600" opacity="1.000000" stroke="none" 
	d="
M958.468628,361.000000 
	C957.463257,360.341034 956.996582,359.181854 956.379639,359.095428 
	C934.659790,356.052246 914.802246,348.335815 897.549622,334.750427 
	C878.113586,319.445526 865.359802,299.567139 861.228699,275.106171 
	C859.211853,263.164032 858.571716,250.740738 859.274841,238.649582 
	C860.193481,222.852448 864.834656,207.614380 871.473938,193.190475 
	C875.406860,184.646271 880.095520,176.449951 885.047485,168.079285 
	C891.666260,172.872559 897.432251,178.048721 903.771484,182.387253 
	C909.536316,186.332718 915.924316,189.367706 921.709717,192.975494 
	C911.022766,211.904739 906.483032,231.818222 910.036133,253.149765 
	C913.341003,272.990784 924.303711,287.664368 941.961609,296.894531 
	C963.992798,308.410767 987.804443,308.676636 1011.164246,303.610779 
	C1050.745117,295.027161 1084.432129,275.461761 1111.063477,244.463760 
	C1127.020386,225.890335 1138.615356,205.447617 1141.210449,180.431625 
	C1142.417480,168.795486 1140.659546,158.036758 1136.128296,147.541702 
	C1130.477539,134.453629 1120.791260,124.850990 1108.997192,116.686150 
	C1095.259033,108.508423 1080.589966,105.356941 1064.545654,106.097549 
	C1059.999634,106.351807 1055.820190,106.256050 1051.829956,107.078476 
	C1040.395996,109.435143 1028.709229,111.211937 1017.742065,115.008659 
	C1006.283569,118.975510 995.066711,124.216072 984.629517,130.395203 
	C974.183167,136.579681 964.831177,144.612686 954.611816,151.896927 
	C947.121887,148.722321 939.666626,146.073242 933.020691,142.078064 
	C926.891907,138.393845 921.327026,133.528305 919.310059,126.016136 
	C928.638245,118.522179 937.299866,110.674835 946.754150,103.940475 
	C965.033569,90.920082 984.974976,80.956085 1006.327881,73.898186 
	C1025.705688,67.493111 1045.465820,63.405521 1066.366699,64.049385 
	C1068.495117,64.505135 1070.242554,64.885880 1072.005005,64.976822 
	C1079.405396,65.358727 1086.835449,65.382187 1094.205200,66.068893 
	C1099.857300,66.595573 1105.435303,67.918900 1111.434082,68.947662 
	C1113.673340,69.582642 1115.535278,70.126801 1117.374756,70.737877 
	C1138.280518,77.682678 1156.480713,88.666245 1170.536377,105.990997 
	C1178.872681,116.266251 1185.106812,127.779221 1188.805786,140.312225 
	C1192.587891,153.126648 1194.021973,166.345474 1193.227783,179.948059 
	C1192.467163,192.974045 1190.020996,205.462250 1186.077393,217.772171 
	C1177.539307,244.423782 1162.328491,267.125092 1143.745972,287.609741 
	C1131.232666,301.403870 1116.778809,313.095398 1101.177124,323.345856 
	C1085.595825,333.582947 1069.380615,342.732361 1051.656860,348.493103 
	C1038.244019,352.852692 1024.293335,355.553711 1010.606445,359.087433 
	C1009.950073,359.256897 1009.530090,360.341553 1009.000000,361.000000 
	C992.312439,361.000000 975.624878,361.000000 958.468628,361.000000 
z"/>
<path fill="#00605B" opacity="1.000000" stroke="none" 
	d="
M1064.998657,106.166862 
	C1080.589966,105.356941 1095.259033,108.508423 1108.910400,117.052467 
	C1108.133057,119.869949 1107.366577,122.048691 1106.405029,124.137718 
	C1099.106323,139.996323 1089.087280,153.801376 1075.548462,164.954987 
	C1064.006104,174.463852 1051.517578,182.314590 1037.732910,188.293228 
	C1022.702820,194.812012 1007.012573,198.978821 990.906921,200.566055 
	C978.844421,201.754837 966.434814,201.334015 954.365601,199.976883 
	C943.458679,198.750473 932.803711,195.283173 922.037598,192.804047 
	C915.924316,189.367706 909.536316,186.332718 903.771484,182.387253 
	C897.432251,178.048721 891.666260,172.872559 885.358398,167.882736 
	C872.351379,153.328094 865.284241,136.930176 864.852539,117.372337 
	C864.252991,90.212471 875.517395,68.385902 893.349182,49.193211 
	C914.271362,26.674269 940.378784,13.114472 969.869263,5.558753 
	C974.896362,4.270753 979.939758,3.046440 984.987793,1.396352 
	C999.687561,1.000000 1014.375061,1.000000 1029.538696,1.395823 
	C1030.852783,2.185468 1031.654175,2.787989 1032.534302,2.942770 
	C1058.851074,7.571628 1081.367188,18.952045 1097.839600,40.506039 
	C1104.255981,48.901913 1109.345337,58.172485 1111.046265,68.887909 
	C1105.435303,67.918900 1099.857300,66.595573 1094.205200,66.068893 
	C1086.835449,65.382187 1079.405396,65.358727 1072.005005,64.976822 
	C1070.242554,64.885880 1068.495117,64.505135 1066.215576,63.750359 
	C1063.846924,60.715462 1062.226074,57.983490 1060.123535,55.693928 
	C1047.726196,42.193577 1031.385498,37.977097 1013.993469,37.102703 
	C998.607056,36.329151 983.715027,39.585178 969.382080,45.069798 
	C950.301086,52.371284 933.594727,63.027821 922.084717,80.453087 
	C912.442017,95.051399 910.441528,110.281937 919.001587,126.165604 
	C921.327026,133.528305 926.891907,138.393845 933.020691,142.078064 
	C939.666626,146.073242 947.121887,148.722321 955.003296,151.990768 
	C968.746582,155.536438 981.809570,155.865326 995.021790,153.531235 
	C1013.775635,150.218170 1030.791504,143.020981 1045.392334,130.727859 
	C1053.506592,123.896057 1060.783813,116.203789 1064.998657,106.166862 
z"/>
<path fill="#000000" opacity="1.000000" stroke="none" 
	d="
M1111.434082,68.947662 
	C1109.345337,58.172485 1104.255981,48.901913 1097.839600,40.506039 
	C1081.367188,18.952045 1058.851074,7.571628 1032.534302,2.942770 
	C1031.654175,2.787989 1030.852783,2.185468 1030.007324,1.395823 
	C1086.965454,1.000000 1143.931030,1.000000 1200.948242,1.000000 
	C1200.948242,120.892830 1200.948242,240.785690 1200.948242,361.000000 
	C1137.312744,361.000000 1073.625000,361.000000 1009.468628,361.000000 
	C1009.530090,360.341553 1009.950073,359.256897 1010.606445,359.087433 
	C1024.293335,355.553711 1038.244019,352.852692 1051.656860,348.493103 
	C1069.380615,342.732361 1085.595825,333.582947 1101.177124,323.345856 
	C1116.778809,313.095398 1131.232666,301.403870 1143.745972,287.609741 
	C1162.328491,267.125092 1177.539307,244.423782 1186.077393,217.772171 
	C1190.020996,205.462250 1192.467163,192.974045 1193.227783,179.948059 
	C1194.021973,166.345474 1192.587891,153.126648 1188.805786,140.312225 
	C1185.106812,127.779221 1178.872681,116.266251 1170.536377,105.990997 
	C1156.480713,88.666245 1138.280518,77.682678 1117.374756,70.737877 
	C1115.535278,70.126801 1113.673340,69.582642 1111.434082,68.947662 
z"/>
<path fill="#00605B" opacity="1.000000" stroke="none" 
	d="
M280.740906,221.744385 
	C269.212097,233.062408 255.076935,237.816299 239.886383,237.674377 
	C223.918320,237.525177 209.021500,233.199265 199.241119,217.983673 
	C199.160736,219.681686 199.012329,221.379608 199.010498,223.077713 
	C198.992813,239.406128 198.722549,255.740631 199.079300,272.061279 
	C199.422562,287.764648 188.610214,294.979767 173.896774,292.770569 
	C162.825348,291.108185 158.220291,282.918213 158.149521,273.554504 
	C157.829651,231.236298 157.664719,188.909744 158.225021,146.596527 
	C158.387314,134.340607 159.668686,121.936035 164.739670,110.239624 
	C171.807144,93.938225 183.843719,83.188347 201.012436,80.393127 
	C214.077164,78.266075 227.664627,79.364380 241.018646,78.996109 
	C264.491119,78.348785 285.129578,94.267540 294.351562,115.302399 
	C300.627930,129.618576 302.928925,144.576492 302.794830,159.768631 
	C302.607513,180.986588 297.647369,201.102310 284.010834,218.200195 
	C283.084900,219.361176 282.001953,220.396957 280.740906,221.744385 
M205.468048,189.937836 
	C211.211823,199.380661 219.891052,204.093185 230.655701,203.722717 
	C241.533676,203.348312 249.778198,197.746124 254.585144,187.817459 
	C261.702759,173.116165 262.640228,157.692230 259.446716,141.856262 
	C257.808105,133.730728 254.739273,126.107727 248.734116,120.418922 
	C233.665359,106.144012 209.000839,112.196663 202.221786,132.030563 
	C195.627426,151.324005 195.393677,170.645416 205.468048,189.937836 
z"/>
<path fill="#00605B" opacity="1.000000" stroke="none" 
	d="
M759.683838,216.600922 
	C747.345032,231.726334 730.747925,236.281067 712.606140,236.944351 
	C703.787659,237.266754 694.947571,237.001175 686.117310,236.999786 
	C659.775879,236.995651 641.461792,221.069260 637.988098,195.018967 
	C637.420776,190.764755 637.054749,186.449417 637.042297,182.161041 
	C636.960510,154.004349 636.947449,125.847107 637.036133,97.690437 
	C637.061401,89.657852 639.673950,82.340782 648.071716,80.173805 
	C662.892822,76.349319 677.674805,79.029961 677.924744,99.289551 
	C678.237122,124.610298 677.831055,149.939560 678.089722,175.261505 
	C678.186340,184.718536 681.113159,193.297089 689.952515,198.438660 
	C705.616516,207.549805 724.958557,197.530792 730.683533,182.190399 
	C732.203247,178.118057 732.850647,173.509216 732.900452,169.135361 
	C733.127930,149.144852 732.926453,129.149841 733.048889,109.157501 
	C733.082336,103.701653 733.483459,98.223610 734.112183,92.801712 
	C735.004211,85.109291 741.592224,79.322945 749.371155,79.019386 
	C751.201233,78.947975 753.046997,79.132248 754.867065,78.978996 
	C766.833130,77.971405 774.601562,85.275070 774.845276,97.819054 
	C775.314392,121.968163 775.551636,146.151093 774.781982,170.284821 
	C774.255493,186.794098 770.047424,202.648300 759.683838,216.600922 
z"/>
<path fill="#00605B" opacity="1.000000" stroke="none" 
	d="
M433.653137,80.243591 
	C443.044647,78.698456 452.721863,76.115814 459.487915,84.429420 
	C462.654602,88.320450 464.630280,94.278145 464.755402,99.358070 
	C465.309235,121.843994 465.566498,144.370697 464.803680,166.844376 
	C464.251984,183.098450 461.162994,199.037628 451.960205,213.143005 
	C444.590790,224.438385 434.249359,231.579132 421.288269,234.242523 
	C401.473419,238.314301 381.362640,238.915375 361.499481,234.911835 
	C342.505524,231.083511 330.559753,215.301590 328.167145,197.253021 
	C326.929565,187.917526 327.101349,178.365417 327.046143,168.908783 
	C326.906982,145.076721 327.150299,121.241898 326.930267,97.411041 
	C326.835846,87.184502 333.798126,78.468979 345.568390,78.862129 
	C352.715546,79.100861 360.004822,78.703392 363.990326,85.737701 
	C366.233459,89.696762 367.759827,94.635155 367.826569,99.158669 
	C368.190521,123.819504 367.919312,148.489075 368.084473,173.154160 
	C368.110626,177.060989 368.987213,181.022781 369.913788,184.851929 
	C373.115356,198.082062 386.769897,204.076035 398.616608,201.088989 
	C412.584290,197.567184 422.538879,186.496872 422.919617,172.130249 
	C423.589569,146.848724 423.678162,121.551720 423.997223,96.261024 
	C424.086304,89.200142 427.021454,83.827019 433.653137,80.243591 
z"/>
<path fill="#00605B" opacity="1.000000" stroke="none" 
	d="
M594.963623,151.989532 
	C609.786865,159.835022 618.376038,171.317581 617.970642,188.282303 
	C617.534668,206.527328 609.308044,220.188461 593.202515,228.908401 
	C576.994690,237.683701 559.708984,239.306839 541.618896,237.240189 
	C528.392578,235.729218 515.973816,232.295578 504.700256,225.255936 
	C496.098602,219.884720 488.735718,213.355118 487.654877,202.321350 
	C486.997620,195.612274 488.149475,189.276291 493.738770,184.944290 
	C499.360657,180.587082 506.127838,180.342300 511.974945,183.768356 
	C517.168762,186.811661 521.818237,191.128693 525.937561,195.594193 
	C536.764099,207.330643 550.046021,209.168411 564.601929,205.842850 
	C573.822266,203.736298 579.351257,195.171402 575.720825,188.397629 
	C574.044067,185.269089 570.430359,182.168045 567.057983,181.136246 
	C553.479126,176.981674 539.621826,173.747620 525.924805,169.965515 
	C513.653564,166.577087 501.762939,162.201859 494.389008,150.883408 
	C480.975555,130.294739 486.576996,99.569351 510.899719,87.462975 
	C527.430481,79.234962 544.643982,77.641930 562.645874,79.863480 
	C575.639282,81.466949 588.009827,84.641609 599.002686,92.003242 
	C608.785767,98.554741 612.359558,107.051315 610.032593,116.939842 
	C606.933716,130.108826 591.562195,133.397552 582.530884,126.159462 
	C575.638489,120.635635 569.856018,113.275208 560.356995,111.711441 
	C552.075623,110.348137 543.789490,110.184128 535.877686,113.268677 
	C531.489929,114.979294 528.543457,118.140610 528.942139,123.584824 
	C529.339233,129.005646 532.410889,132.365677 537.062012,133.795532 
	C546.992371,136.848297 557.195435,139.017242 567.115173,142.100128 
	C576.396729,144.984634 585.456848,148.581528 594.963623,151.989532 
z"/>
<path fill="#00605B" opacity="1.000000" stroke="none" 
	d="
M128.701508,100.446419 
	C133.544571,110.203148 132.965912,118.034882 127.151184,124.340538 
	C120.713554,131.321701 111.378273,132.007065 103.468178,125.872406 
	C100.071419,123.238052 97.208443,119.872917 93.678963,117.460007 
	C81.789368,109.331726 69.086166,108.645256 55.911125,114.103378 
	C52.198074,115.641609 50.224655,118.355789 49.985435,122.426170 
	C49.722347,126.902626 51.328671,130.563965 55.504021,132.070251 
	C62.775219,134.693375 70.176659,137.054489 77.670845,138.939728 
	C92.909874,142.773254 108.405350,145.815536 121.705750,154.908539 
	C147.399063,172.474136 142.078720,207.395096 122.298744,222.847534 
	C109.999214,232.456131 95.862137,236.517639 80.289780,237.175568 
	C62.778175,237.915390 46.072979,235.367188 30.357857,227.615402 
	C22.595129,223.786301 15.723008,218.766144 11.216493,210.902206 
	C5.561656,201.034393 8.346746,187.020370 17.905718,182.998322 
	C24.383017,180.272934 33.515739,182.147919 39.388649,187.890366 
	C42.962036,191.384338 46.476898,194.938797 49.987541,198.496185 
	C59.681198,208.318954 77.280846,209.273514 88.102112,204.873520 
	C95.291786,201.950150 99.720314,194.059174 96.826927,188.832932 
	C95.065956,185.652130 91.718811,182.256577 88.384689,181.230652 
	C74.651848,177.004929 60.613201,173.786011 46.761841,169.928192 
	C36.495117,167.068710 26.699080,163.286316 18.845619,155.476120 
	C13.519985,150.179810 10.796623,143.622772 9.252375,136.736282 
	C6.880268,126.158012 8.051229,115.709969 13.038465,105.852608 
	C18.183876,95.682594 26.590876,88.981499 36.908920,85.166649 
	C65.580658,74.565994 93.464195,76.709694 120.002686,92.137199 
	C123.278259,94.041374 125.695557,97.421944 128.701508,100.446419 
z"/>
<path fill="#000000" opacity="1.000000" stroke="none" 
	d="
M921.709717,192.975479 
	C932.803711,195.283173 943.458679,198.750473 954.365601,199.976883 
	C966.434814,201.334015 978.844421,201.754837 990.906921,200.566055 
	C1007.012573,198.978821 1022.702820,194.812012 1037.732910,188.293228 
	C1051.517578,182.314590 1064.006104,174.463852 1075.548462,164.954987 
	C1089.087280,153.801376 1099.106323,139.996323 1106.405029,124.137718 
	C1107.366577,122.048691 1108.133057,119.869949 1109.076660,117.366447 
	C1120.791260,124.850990 1130.477539,134.453629 1136.128296,147.541702 
	C1140.659546,158.036758 1142.417480,168.795486 1141.210449,180.431625 
	C1138.615356,205.447617 1127.020386,225.890335 1111.063477,244.463760 
	C1084.432129,275.461761 1050.745117,295.027161 1011.164246,303.610779 
	C987.804443,308.676636 963.992798,308.410767 941.961609,296.894531 
	C924.303711,287.664368 913.341003,272.990784 910.036133,253.149765 
	C906.483032,231.818222 911.022766,211.904739 921.709717,192.975479 
z"/>
<path fill="#000000" opacity="1.000000" stroke="none" 
	d="
M919.310059,126.016136 
	C910.441528,110.281937 912.442017,95.051399 922.084717,80.453087 
	C933.594727,63.027821 950.301086,52.371284 969.382080,45.069798 
	C983.715027,39.585178 998.607056,36.329151 1013.993469,37.102703 
	C1031.385498,37.977097 1047.726196,42.193577 1060.123535,55.693928 
	C1062.226074,57.983490 1063.846924,60.715462 1065.841553,63.542053 
	C1045.465820,63.405521 1025.705688,67.493111 1006.327881,73.898186 
	C984.974976,80.956085 965.033569,90.920082 946.754150,103.940475 
	C937.299866,110.674835 928.638245,118.522179 919.310059,126.016136 
z"/>
<path fill="#000000" opacity="1.000000" stroke="none" 
	d="
M1064.545654,106.097549 
	C1060.783813,116.203789 1053.506592,123.896057 1045.392334,130.727859 
	C1030.791504,143.020981 1013.775635,150.218170 995.021790,153.531235 
	C981.809570,155.865326 968.746582,155.536438 955.390930,151.929276 
	C964.831177,144.612686 974.183167,136.579681 984.629517,130.395203 
	C995.066711,124.216072 1006.283569,118.975510 1017.742065,115.008659 
	C1028.709229,111.211937 1040.395996,109.435143 1051.829956,107.078476 
	C1055.820190,106.256050 1059.999634,106.351807 1064.545654,106.097549 
z"/>
<path fill="#000000" opacity="1.000000" stroke="none" 
	d="
M205.293045,189.611450 
	C195.393677,170.645416 195.627426,151.324005 202.221786,132.030563 
	C209.000839,112.196663 233.665359,106.144012 248.734116,120.418922 
	C254.739273,126.107727 257.808105,133.730728 259.446716,141.856262 
	C262.640228,157.692230 261.702759,173.116165 254.585144,187.817459 
	C249.778198,197.746124 241.533676,203.348312 230.655701,203.722717 
	C219.891052,204.093185 211.211823,199.380661 205.293045,189.611450 
z"/>
</svg>