<svg version="1.1" id="Layer_1" xmlns="http://www.w3.org/2000/svg" xmlns:xlink="http://www.w3.org/1999/xlink" x="0px" y="0px"
	 width="100%" viewBox="0 0 640 197" enable-background="new 0 0 640 197" xml:space="preserve">
<path fill="#000000" opacity="1.000000" stroke="none" 
	d="
M411.000000,198.000000 
	C274.000031,198.000000 137.500031,198.000000 1.000037,198.000000 
	C1.000024,132.333359 1.000024,66.666718 1.000012,1.000054 
	C214.333298,1.000036 427.666595,1.000036 640.999878,1.000018 
	C640.999939,66.666611 640.999939,132.333221 641.000000,197.999908 
	C564.500000,198.000000 488.000000,198.000000 411.000000,198.000000 
M464.971771,132.491409 
	C465.009674,132.316483 465.047607,132.141556 464.978882,131.971085 
	C464.978882,131.971085 464.972290,132.077652 465.775116,132.046799 
	C467.545410,128.729248 469.315704,125.411705 472.009186,122.011345 
	C481.357727,122.074974 490.706238,122.138603 500.344635,122.854889 
	C502.725800,127.640480 505.106964,132.426071 508.060669,137.553818 
	C512.226257,137.953964 516.391846,138.354126 522.358398,138.927292 
	C519.989197,132.119812 518.219543,126.488403 516.025330,121.027618 
	C515.259338,119.121445 513.446167,117.636093 512.037292,115.144051 
	C510.412781,111.410835 508.788269,107.677620 507.048950,103.114433 
	C507.011627,101.965889 507.315857,100.663902 506.880249,99.694252 
	C504.460205,94.306808 501.919922,88.970711 499.302826,83.675331 
	C497.346375,79.716759 495.211609,75.846321 493.073547,71.038895 
	C493.073547,69.771431 493.073547,68.503967 493.073547,66.934822 
	C488.175171,66.934822 483.712769,66.880333 479.254211,66.986824 
	C478.483612,67.005234 477.282715,67.522362 477.036652,68.120277 
	C474.609070,74.018677 472.341217,79.982834 469.932434,86.660950 
	C468.639252,89.767891 467.346069,92.874832 465.243042,95.969559 
	C463.494598,99.226555 461.393311,102.348427 460.081940,105.772812 
	C458.201263,110.683876 456.896912,115.815651 454.682343,121.242340 
	C452.782776,126.813812 450.883209,132.385284 449.278290,138.796539 
	C454.010742,138.796539 458.743164,138.796539 463.844788,138.796539 
	C464.164307,136.933243 464.500549,134.972214 464.971771,132.491409 
M579.620117,125.137985 
	C568.428589,125.060165 557.237061,124.982346 546.005310,123.979942 
	C546.005310,105.096298 546.005310,86.212654 546.005310,67.211754 
	C540.481689,67.211754 535.421326,67.211754 530.274719,67.211754 
	C530.161316,67.867981 530.011536,68.330803 530.011292,68.793709 
	C529.998657,90.887474 529.986267,112.981270 530.040405,135.074905 
	C530.042786,136.046341 530.667175,137.016235 531.327393,138.810318 
	C546.652588,138.873260 561.977844,138.963791 577.302795,138.923172 
	C578.127014,138.920990 578.948364,137.817184 580.001953,136.302780 
	C579.983337,132.851730 579.964722,129.400696 579.620117,125.137985 
M157.983170,143.989639 
	C157.983170,143.989639 158.025436,144.074265 158.767502,144.029480 
	C163.136810,140.247574 167.583191,136.515930 168.185577,129.400574 
	C168.749008,128.808426 169.516113,128.311874 169.845627,127.609917 
	C175.656830,115.230431 177.125214,102.180885 175.751526,87.889153 
	C175.628052,80.719749 174.198990,73.752861 170.717926,67.541420 
	C168.151428,62.961872 164.810623,58.716721 161.283997,54.800602 
	C157.093170,50.146919 152.828827,45.791748 146.801636,42.819817 
	C140.367905,39.647434 134.295853,36.381542 126.163422,36.023720 
	C125.065041,35.340595 123.983536,34.100430 122.865494,34.066578 
	C116.560204,33.875668 110.242920,33.883232 103.939682,34.105587 
	C103.254639,34.129749 102.633476,35.964962 101.340538,36.985569 
	C100.912140,36.980534 100.483749,36.975498 99.701385,36.234547 
	C91.759972,35.922897 85.161118,39.496914 78.391907,43.069885 
	C70.788750,47.083042 64.233315,52.118523 59.360729,59.172867 
	C55.481323,64.789314 51.577576,70.428864 48.249634,76.374405 
	C45.288475,81.664673 43.653545,87.739952 40.416035,92.820534 
	C37.349674,97.632530 36.566998,102.659477 36.014515,108.833138 
	C35.333076,110.097923 34.123810,111.338203 34.063736,112.631844 
	C33.832912,117.602478 33.874012,122.593796 34.059254,127.568260 
	C34.092617,128.464111 35.284904,129.316818 35.922291,130.959290 
	C37.318569,134.315598 38.714844,137.671890 39.999630,141.820724 
	C42.143566,149.492889 47.779690,153.254059 55.336300,155.884583 
	C55.991573,155.970474 56.773331,155.853745 57.283447,156.172165 
	C67.562981,162.589035 79.561714,162.864822 90.896935,164.807098 
	C101.548248,166.632156 112.477577,164.564987 123.182632,162.482086 
	C136.324570,159.925003 147.645859,154.091675 157.640900,144.688644 
	C157.858017,144.482864 157.999359,144.234009 157.983170,143.989639 
M386.950897,123.798615 
	C389.126831,130.091064 393.831085,133.922562 396.959167,133.547165 
	C394.470062,130.561798 391.298737,126.758232 387.939636,122.196548 
	C387.040955,120.929321 385.796692,119.784058 385.299438,118.375145 
	C381.982147,108.975296 381.881989,99.482979 385.285156,89.408318 
	C390.760071,77.969269 399.499451,70.577408 412.260773,69.170578 
	C417.761749,68.564133 423.440643,69.571678 429.645386,70.186668 
	C434.566315,72.903496 439.487244,75.620316 444.641663,78.466057 
	C441.523102,82.159996 439.304474,84.787926 437.085876,87.415855 
	C437.412292,87.804459 437.738708,88.193062 438.065094,88.581665 
	C440.372070,86.837975 443.458282,85.523300 444.731567,83.210541 
	C445.695435,81.459877 445.188721,77.760506 443.864532,76.107361 
	C440.203735,71.537148 435.341492,68.493195 429.021698,68.004471 
	C428.884521,67.719048 428.759949,67.190742 428.608307,67.182846 
	C417.829559,66.621544 406.918518,65.699341 397.095123,71.485985 
	C390.072144,75.623024 384.414459,81.037102 383.131226,90.302574 
	C382.403015,91.728073 381.098083,93.132866 381.046051,94.582649 
	C380.816071,100.987946 380.946564,107.406181 380.946564,113.466698 
	C385.139832,115.442245 387.669922,117.711235 385.545746,122.333687 
	C385.534943,122.357201 386.423767,122.794128 386.950897,123.798615 
M342.676910,96.183060 
	C346.660156,97.335045 350.664795,98.418457 354.621979,99.653946 
	C361.821869,101.901855 367.914490,105.451675 370.314209,113.401573 
	C371.464172,110.159492 370.731201,107.458214 368.271790,104.967094 
	C361.026093,97.627975 351.948486,95.195122 341.786865,94.200203 
	C339.966797,93.124161 337.869629,92.326714 336.416718,90.881577 
	C335.308075,89.778885 334.098541,86.830215 334.508759,86.463219 
	C337.219666,84.038086 339.232910,80.223373 343.952576,81.006081 
	C346.687561,81.459648 349.515900,81.350510 353.195923,81.540817 
	C349.836121,80.721107 347.365540,79.861671 344.827606,79.548836 
	C338.094360,78.718864 332.858246,81.613388 332.102966,86.324730 
	C331.338318,91.094528 334.532471,94.134186 342.676910,96.183060 
M322.226654,117.984940 
	C317.566895,120.029015 314.867950,123.880531 316.079712,128.097839 
	C317.367004,132.578033 321.418701,133.498291 326.287231,133.995850 
	C322.865295,131.451843 320.027069,129.341797 317.200256,127.240234 
	C319.402435,124.328499 321.285767,121.838333 323.859436,118.975876 
	C326.299927,120.381119 328.709167,121.844254 331.186859,123.180496 
	C337.989319,126.849190 345.225494,128.948914 352.594666,125.746300 
	C354.928619,124.731964 357.217682,121.281944 357.531921,118.703415 
	C357.775513,116.704445 354.994049,114.263107 353.349213,112.182983 
	C353.085999,111.850159 351.730072,112.381424 349.435211,112.736931 
	C353.931793,114.614296 357.803864,115.698570 355.274384,120.041252 
	C352.159393,125.389114 342.597717,126.196907 336.943054,123.055931 
	C332.713562,120.706604 328.727051,116.611473 322.226654,117.984940 
M593.064087,138.067108 
	C597.933655,138.538055 602.803223,139.009003 607.785339,139.490845 
	C607.785339,114.786385 607.785339,90.978935 607.785339,66.929680 
	C603.540344,66.929680 599.569580,66.786949 595.623352,67.034340 
	C594.686890,67.093056 593.832336,68.459305 592.972168,69.681808 
	C592.989502,69.988045 592.980286,70.293480 592.995911,71.621246 
	C593.076660,93.488045 593.157410,115.354851 593.064087,138.067108 
M288.995422,69.607857 
	C288.980011,69.969795 288.964600,70.331734 289.006165,71.690720 
	C288.987152,93.234421 288.968109,114.778122 288.995728,136.829559 
	C288.981140,137.168915 288.966553,137.508270 289.217957,138.709717 
	C294.117706,138.709717 299.017456,138.709717 303.673340,138.709717 
	C303.673340,114.579613 303.673340,90.850914 303.673340,66.997978 
	C299.357544,66.997978 295.363953,66.882294 291.387512,67.091713 
	C290.552399,67.135696 289.780243,68.375153 288.995422,69.607857 
M225.519073,66.962952 
	C222.081573,66.962952 218.644073,66.962952 215.204941,66.962952 
	C215.204941,72.243126 215.204941,76.982498 215.204941,82.110947 
	C222.507767,82.110947 229.578751,82.110947 237.010803,82.110947 
	C237.010803,101.222290 237.010803,119.941742 237.010803,139.037033 
	C240.994736,139.037033 244.629654,138.834076 248.231323,139.093338 
	C251.933838,139.359863 253.150665,138.030121 253.110260,134.282684 
	C252.938095,118.310394 253.031113,102.335167 253.047333,86.361031 
	C253.048767,84.941765 253.194412,83.522644 253.293304,81.738380 
	C260.807312,81.738380 267.876740,81.738380 274.715973,81.738380 
	C274.715973,76.596367 274.715973,71.856674 274.715973,66.962952 
	C258.435364,66.962952 242.475357,66.962952 225.519073,66.962952 
M442.062073,119.208694 
	C439.467682,116.289543 433.382355,116.144516 431.001373,118.583031 
	C426.292053,123.405998 420.904175,126.012703 413.724182,124.380569 
	C408.221008,123.129593 406.253357,118.047379 402.182434,115.312157 
	C398.380249,112.757477 397.617218,108.647408 398.045929,104.310280 
	C398.511841,99.596352 399.039856,94.888565 399.529694,90.282425 
	C393.284821,98.355797 393.822388,112.225990 401.779480,119.711609 
	C405.294800,123.018677 410.446747,125.367264 415.229645,126.373322 
	C423.625763,128.139389 430.613495,123.865288 436.343262,118.761314 
	C439.020844,121.449417 441.427460,123.865509 444.111725,126.560333 
	C441.529358,128.816620 438.791840,131.208435 436.054321,133.600250 
	C436.430237,134.039337 436.806152,134.478409 437.182068,134.917496 
	C440.129150,132.491974 443.870392,130.559265 445.776428,127.487724 
	C447.350952,124.950424 445.782532,121.514931 442.062073,119.208694 
M336.779175,66.952568 
	C326.170746,67.689201 317.718597,76.425194 319.782776,85.091255 
	C322.982544,74.024612 330.864899,69.406921 341.309052,68.667328 
	C351.365906,67.955162 360.428925,71.219124 368.790192,77.340996 
	C368.920746,76.213730 369.077271,75.717636 369.002350,75.259392 
	C368.932922,74.834694 368.722565,74.277817 368.392303,74.074051 
	C362.613800,70.508896 356.848083,66.895042 349.683228,66.947105 
	C345.694061,66.976089 341.704529,66.952408 336.779175,66.952568 
M369.045135,130.451096 
	C369.803467,127.733063 370.561798,125.015030 371.320099,122.296997 
	C371.125885,122.302505 370.931641,122.308014 370.737396,122.313515 
	C368.052917,126.226433 365.368469,130.139343 361.963745,135.102142 
	C364.846283,133.527863 366.927368,132.391281 369.045135,130.451096 
M355.038269,83.498993 
	C356.914032,87.922852 360.393372,88.712860 366.336945,87.391319 
	C361.932220,85.566040 358.784424,84.261612 355.038269,83.498993 
M327.866943,134.549866 
	C327.840607,134.520172 327.814270,134.490463 327.787933,134.460770 
	C327.895630,134.487991 328.003296,134.515213 327.866943,134.549866 
M360.462860,135.319550 
	C360.516449,135.258774 360.570038,135.197983 360.462860,135.319550 
M433.655273,134.925781 
	C433.628876,134.855423 433.602478,134.785049 433.655273,134.925781 
z"/>
<path fill="#6159A2" opacity="1.000000" stroke="none" 
	d="
M100.055351,36.970467 
	C100.483749,36.975498 100.912140,36.980534 102.081131,36.921246 
	C110.879059,36.910664 118.936401,36.964401 127.297394,37.213936 
	C152.869843,44.430698 169.065674,60.121506 174.368088,86.269684 
	C174.544067,87.137451 175.262741,87.895164 175.728455,88.704170 
	C177.125214,102.180885 175.656830,115.230431 169.845627,127.609917 
	C169.516113,128.311874 168.749008,128.808426 167.708588,129.821030 
	C164.162872,134.852417 161.094162,139.463333 158.025436,144.074265 
	C158.025436,144.074265 157.983170,143.989639 157.888580,144.119751 
	C157.510956,144.329590 157.319336,144.507553 157.219131,144.783752 
	C147.645859,154.091675 136.324570,159.925003 123.182632,162.482086 
	C112.477577,164.564987 101.548248,166.632156 90.896935,164.807098 
	C79.561714,162.864822 67.562981,162.589035 57.283447,156.172165 
	C56.773331,155.853745 55.991573,155.970474 55.200600,155.190887 
	C50.080307,150.007523 45.095715,145.517853 40.111122,141.028198 
	C38.714844,137.671890 37.318569,134.315598 36.120399,130.265045 
	C36.569164,122.382660 36.819820,115.194534 37.240677,107.682091 
	C41.756550,97.306656 45.364105,86.851280 50.601410,77.288490 
	C61.537498,57.320290 76.673691,41.941032 100.055351,36.970467 
M106.330940,81.883072 
	C109.888214,75.618973 113.445488,69.354866 117.024010,63.053337 
	C109.749893,61.004013 105.789818,63.127460 102.391602,69.359779 
	C90.036247,92.019470 77.008453,114.312424 64.248604,136.751846 
	C63.384087,138.272171 62.638298,139.860031 61.812634,141.464386 
	C68.752037,143.212799 72.829926,141.535797 76.222198,135.140778 
	C85.660454,117.347992 96.000732,100.033691 106.330940,81.883072 
M110.066956,131.579330 
	C123.036041,108.793617 136.005142,86.007912 149.099335,63.002411 
	C139.194794,61.481697 139.191757,61.479969 134.975815,68.869965 
	C123.668747,88.689804 112.357613,108.507324 101.064590,128.335175 
	C98.624092,132.620102 96.252892,136.944504 93.757309,141.416412 
	C103.551613,142.977646 103.550270,142.976883 107.959801,135.249130 
	C108.537628,134.236496 109.137657,133.236511 110.066956,131.579330 
z"/>
<path fill="#0A0A0A" opacity="1.000000" stroke="none" 
	d="
M466.052856,95.981766 
	C467.346069,92.874832 468.639252,89.767891 470.343262,86.334412 
	C472.843994,81.771439 474.741638,77.423233 477.109985,73.348648 
	C478.193024,71.485374 480.107086,68.977036 481.812866,68.838562 
	C485.371277,68.549698 490.010986,66.704414 492.106506,72.342644 
	C496.769958,83.135513 501.394714,93.567444 506.026398,104.367065 
	C507.739410,108.489616 509.445557,112.244461 511.182434,116.357758 
	C514.113831,123.464745 517.014465,130.213272 520.311951,137.885147 
	C515.336304,137.623840 511.412231,137.417740 507.488129,137.211655 
	C505.106964,132.426071 502.725800,127.640480 500.064758,122.094810 
	C490.145844,121.313797 480.506805,121.292862 470.511597,121.189819 
	C468.427734,124.764351 466.700012,128.421005 464.972290,132.077652 
	C464.972290,132.077652 464.978882,131.971085 464.705872,131.852814 
	C464.275970,132.151337 464.119080,132.568146 463.710388,133.241852 
	C462.696564,136.735474 460.820251,138.039291 457.374969,137.692871 
	C454.614594,137.415314 451.783417,137.842392 448.983643,137.956757 
	C450.883209,132.385284 452.782776,126.813812 455.261292,120.864395 
	C459.244446,112.318222 462.648651,104.149994 466.052856,95.981766 
M492.236908,109.798157 
	C494.161987,110.300758 495.929138,110.200142 494.864227,107.594818 
	C491.648224,99.726494 488.214508,91.947136 484.590424,83.490921 
	C481.040710,91.910118 477.776672,99.509644 474.706085,107.186554 
	C474.441437,107.848167 475.458221,109.022324 476.823975,109.979546 
	C481.907104,109.661568 486.990234,109.343590 492.236908,109.798157 
z"/>
<path fill="#000000" opacity="1.000000" stroke="none" 
	d="
M288.949158,70.693680 
	C288.964600,70.331734 288.980011,69.969795 289.438171,69.459122 
	C293.779327,69.310394 297.677734,69.310394 301.502258,69.310394 
	C301.502258,92.397697 301.502258,114.771065 301.502258,137.847626 
	C297.139648,137.847626 293.045807,137.847626 288.951935,137.847626 
	C288.966553,137.508270 288.981140,137.168915 289.304291,136.265549 
	C289.730743,135.051773 289.950958,134.402130 289.951630,133.752258 
	C289.972687,113.951607 289.990295,94.150894 289.931030,74.350418 
	C289.927368,73.130539 289.291107,71.912552 288.949158,70.693680 
z"/>
<path fill="#030303" opacity="1.000000" stroke="none" 
	d="
M592.944580,70.598129 
	C592.980286,70.293480 592.989502,69.988045 593.409668,69.585365 
	C597.780334,69.488922 601.713440,69.488922 605.700806,69.488922 
	C605.700806,92.325241 605.700806,114.775963 605.700806,137.652252 
	C601.491333,137.453934 597.705811,137.275589 593.945312,136.622711 
	C593.974792,116.012077 594.004395,95.875916 593.938538,75.740067 
	C593.932922,74.025024 593.290955,72.312057 592.944580,70.598129 
z"/>
<path fill="#ECECEC" opacity="1.000000" stroke="none" 
	d="
M226.017212,66.962952 
	C242.475357,66.962952 258.435364,66.962952 274.715973,66.962952 
	C274.715973,71.856674 274.715973,76.596367 274.715973,81.738380 
	C267.876740,81.738380 260.807312,81.738380 253.293304,81.738380 
	C253.194412,83.522644 253.048767,84.941765 253.047333,86.361031 
	C253.031113,102.335167 252.938095,118.310394 253.110260,134.282684 
	C253.150665,138.030121 251.933838,139.359863 248.231323,139.093338 
	C244.629654,138.834076 240.994736,139.037033 237.010803,139.037033 
	C237.010803,119.941742 237.010803,101.222290 237.010803,82.110947 
	C229.578751,82.110947 222.507767,82.110947 215.204941,82.110947 
	C215.204941,76.982498 215.204941,72.243126 215.204941,66.962952 
	C218.644073,66.962952 222.081573,66.962952 226.017212,66.962952 
M237.500320,69.199776 
	C230.875580,69.199776 224.250839,69.199776 217.401825,69.199776 
	C217.401825,73.238945 217.401825,76.772461 217.401825,80.900780 
	C224.610001,80.900780 231.497177,80.900780 238.739807,80.900780 
	C238.739807,100.089622 238.739807,118.679489 238.739807,137.262848 
	C243.050934,137.262848 246.960922,137.262848 251.282257,137.262848 
	C251.282257,118.317955 251.282257,99.714096 251.282257,80.695000 
	C258.453705,80.695000 265.215424,80.695000 272.222107,80.695000 
	C272.222107,76.713966 272.222107,73.157196 272.222107,69.199791 
	C260.764008,69.199791 249.632126,69.199791 237.500320,69.199776 
z"/>
<path fill="#EBEBEB" opacity="1.000000" stroke="none" 
	d="
M442.265625,119.565414 
	C445.782532,121.514931 447.350952,124.950424 445.776428,127.487724 
	C443.870392,130.559265 440.129150,132.491974 437.182068,134.917496 
	C436.806152,134.478409 436.430237,134.039337 436.054321,133.600250 
	C438.791840,131.208435 441.529358,128.816620 444.111725,126.560333 
	C441.427460,123.865509 439.020844,121.449417 436.343262,118.761314 
	C430.613495,123.865288 423.625763,128.139389 415.229645,126.373322 
	C410.446747,125.367264 405.294800,123.018677 401.779480,119.711609 
	C393.822388,112.225990 393.284821,98.355797 399.529694,90.282425 
	C399.039856,94.888565 398.511841,99.596352 398.045929,104.310280 
	C397.617218,108.647408 398.380249,112.757477 402.182434,115.312157 
	C406.253357,118.047379 408.221008,123.129593 413.724182,124.380569 
	C420.904175,126.012703 426.292053,123.405998 431.001373,118.583031 
	C433.382355,116.144516 439.467682,116.289543 442.265625,119.565414 
z"/>
<path fill="#F4F4F9" opacity="1.000000" stroke="none" 
	d="
M99.878372,36.602509 
	C76.673691,41.941032 61.537498,57.320290 50.601410,77.288490 
	C45.364105,86.851280 41.756550,97.306656 37.011864,107.677963 
	C36.612846,107.998161 36.155376,107.995193 36.155376,107.995193 
	C36.566998,102.659477 37.349674,97.632530 40.416035,92.820534 
	C43.653545,87.739952 45.288475,81.664673 48.249634,76.374405 
	C51.577576,70.428864 55.481323,64.789314 59.360729,59.172867 
	C64.233315,52.118523 70.788750,47.083042 78.391907,43.069885 
	C85.161118,39.496914 91.759972,35.922897 99.878372,36.602509 
z"/>
<path fill="#FEFEFE" opacity="1.000000" stroke="none" 
	d="
M531.001831,137.986832 
	C530.667175,137.016235 530.042786,136.046341 530.040405,135.074905 
	C529.986267,112.981270 529.998657,90.887474 530.011292,68.793709 
	C530.011536,68.330803 530.161316,67.867981 530.274719,67.211754 
	C535.421326,67.211754 540.481689,67.211754 546.005310,67.211754 
	C546.005310,86.212654 546.005310,105.096298 545.977173,124.676270 
	C545.948975,125.372604 545.978027,125.849663 545.529785,125.947014 
	C544.617310,124.671936 543.761902,123.302849 543.750122,121.926559 
	C543.645081,109.620125 543.688660,97.312408 543.688599,85.005074 
	C543.688538,79.894493 543.688599,74.783920 543.688599,69.569809 
	C539.279846,69.569809 535.424500,69.569809 531.272278,69.569809 
	C531.272278,80.249367 531.314697,90.541756 531.261230,100.833641 
	C531.196777,113.243874 531.050903,125.653671 530.952393,138.041809 
	C530.964478,138.019974 531.001831,137.986832 531.001831,137.986832 
z"/>
<path fill="#DADADA" opacity="1.000000" stroke="none" 
	d="
M593.920227,137.097244 
	C597.705811,137.275589 601.491333,137.453934 605.700806,137.652252 
	C605.700806,114.775963 605.700806,92.325241 605.700806,69.488922 
	C601.713440,69.488922 597.780334,69.488922 593.393616,69.356514 
	C593.832336,68.459305 594.686890,67.093056 595.623352,67.034340 
	C599.569580,66.786949 603.540344,66.929680 607.785339,66.929680 
	C607.785339,90.978935 607.785339,114.786385 607.785339,139.490845 
	C602.803223,139.009003 597.933655,138.538055 593.334656,137.684570 
	C593.605225,137.302017 593.920227,137.097244 593.920227,137.097244 
z"/>
<path fill="#FDFDFD" opacity="1.000000" stroke="none" 
	d="
M289.084961,138.278671 
	C293.045807,137.847626 297.139648,137.847626 301.502258,137.847626 
	C301.502258,114.771065 301.502258,92.397697 301.502258,69.310394 
	C297.677734,69.310394 293.779327,69.310394 289.429993,69.187073 
	C289.780243,68.375153 290.552399,67.135696 291.387512,67.091713 
	C295.363953,66.882294 299.357544,66.997978 303.673340,66.997978 
	C303.673340,90.850914 303.673340,114.579613 303.673340,138.709717 
	C299.017456,138.709717 294.117706,138.709717 289.084961,138.278671 
z"/>
<path fill="#F1F0F7" opacity="1.000000" stroke="none" 
	d="
M175.739990,88.296661 
	C175.262741,87.895164 174.544067,87.137451 174.368088,86.269684 
	C169.065674,60.121506 152.869843,44.430698 127.300041,37.000221 
	C126.999031,36.590721 127.001595,36.163284 127.001595,36.163284 
	C134.295853,36.381542 140.367905,39.647434 146.801636,42.819817 
	C152.828827,45.791748 157.093170,50.146919 161.283997,54.800602 
	C164.810623,58.716721 168.151428,62.961872 170.717926,67.541420 
	C174.198990,73.752861 175.628052,80.719749 175.739990,88.296661 
z"/>
<path fill="#E6E6E6" opacity="1.000000" stroke="none" 
	d="
M337.247162,66.952515 
	C341.704529,66.952408 345.694061,66.976089 349.683228,66.947105 
	C356.848083,66.895042 362.613800,70.508896 368.392303,74.074051 
	C368.722565,74.277817 368.932922,74.834694 369.002350,75.259392 
	C369.077271,75.717636 368.920746,76.213730 368.790192,77.340996 
	C360.428925,71.219124 351.365906,67.955162 341.309052,68.667328 
	C330.864899,69.406921 322.982544,74.024612 319.782776,85.091255 
	C317.718597,76.425194 326.170746,67.689201 337.247162,66.952515 
z"/>
<path fill="#E6E6E6" opacity="1.000000" stroke="none" 
	d="
M383.844635,89.947723 
	C384.414459,81.037102 390.072144,75.623024 397.095123,71.485985 
	C406.918518,65.699341 417.829559,66.621544 428.608307,67.182846 
	C428.759949,67.190742 428.884521,67.719048 429.029907,68.684052 
	C429.038147,69.363625 429.038727,69.846008 429.038727,69.846008 
	C423.440643,69.571678 417.761749,68.564133 412.260773,69.170578 
	C399.499451,70.577408 390.760071,77.969269 384.830505,89.685669 
	C384.198792,89.957916 384.021729,89.952820 383.844635,89.947723 
z"/>
<path fill="#E8E8E8" opacity="1.000000" stroke="none" 
	d="
M322.994995,118.173935 
	C328.727051,116.611473 332.713562,120.706604 336.943054,123.055931 
	C342.597717,126.196907 352.159393,125.389114 355.274384,120.041252 
	C357.803864,115.698570 353.931793,114.614296 349.435211,112.736931 
	C351.730072,112.381424 353.085999,111.850159 353.349213,112.182983 
	C354.994049,114.263107 357.775513,116.704445 357.531921,118.703415 
	C357.217682,121.281944 354.928619,124.731964 352.594666,125.746300 
	C345.225494,128.948914 337.989319,126.849190 331.186859,123.180496 
	C328.709167,121.844254 326.299927,120.381119 323.458618,118.870255 
	C323.036835,118.567734 323.015900,118.370834 322.994995,118.173935 
z"/>
<path fill="#E9E9E9" opacity="1.000000" stroke="none" 
	d="
M342.024597,94.912979 
	C351.948486,95.195122 361.026093,97.627975 368.271790,104.967094 
	C370.731201,107.458214 371.464172,110.159492 370.314209,113.401573 
	C367.914490,105.451675 361.821869,101.901855 354.621979,99.653946 
	C350.664795,98.418457 346.660156,97.335045 342.370361,95.768951 
	C342.063782,95.354836 342.024597,94.912979 342.024597,94.912979 
z"/>
<path fill="#DFDFDF" opacity="1.000000" stroke="none" 
	d="
M341.905731,94.556595 
	C342.024597,94.912979 342.063782,95.354836 342.060974,95.576614 
	C334.532471,94.134186 331.338318,91.094528 332.102966,86.324730 
	C332.858246,81.613388 338.094360,78.718864 344.827606,79.548836 
	C347.365540,79.861671 349.836121,80.721107 353.195923,81.540817 
	C349.515900,81.350510 346.687561,81.459648 343.952576,81.006081 
	C339.232910,80.223373 337.219666,84.038086 334.508759,86.463219 
	C334.098541,86.830215 335.308075,89.778885 336.416718,90.881577 
	C337.869629,92.326714 339.966797,93.124161 341.905731,94.556595 
z"/>
<path fill="#DDDDDD" opacity="1.000000" stroke="none" 
	d="
M492.067810,71.981697 
	C490.010986,66.704414 485.371277,68.549698 481.812866,68.838562 
	C480.107086,68.977036 478.193024,71.485374 477.109985,73.348648 
	C474.741638,77.423233 472.843994,81.771439 470.391113,85.968109 
	C472.341217,79.982834 474.609070,74.018677 477.036652,68.120277 
	C477.282715,67.522362 478.483612,67.005234 479.254211,66.986824 
	C483.712769,66.880333 488.175171,66.934822 493.073547,66.934822 
	C493.073547,68.503967 493.073547,69.771431 492.843201,71.509354 
	C492.431213,71.980438 492.249512,71.981064 492.067810,71.981697 
z"/>
<path fill="#E9E9E9" opacity="1.000000" stroke="none" 
	d="
M507.774414,137.382736 
	C511.412231,137.417740 515.336304,137.623840 520.311951,137.885147 
	C517.014465,130.213272 514.113831,123.464745 511.422516,116.352325 
	C511.631836,115.988426 512.111206,115.958549 512.111206,115.958557 
	C513.446167,117.636093 515.259338,119.121445 516.025330,121.027618 
	C518.219543,126.488403 519.989197,132.119812 522.358398,138.927292 
	C516.391846,138.354126 512.226257,137.953964 507.774414,137.382736 
z"/>
<path fill="#E9E9E9" opacity="1.000000" stroke="none" 
	d="
M429.342041,70.016342 
	C429.038727,69.846008 429.038147,69.363625 429.040497,69.122437 
	C435.341492,68.493195 440.203735,71.537148 443.864532,76.107361 
	C445.188721,77.760506 445.695435,81.459877 444.731567,83.210541 
	C443.458282,85.523300 440.372070,86.837975 438.065094,88.581665 
	C437.738708,88.193062 437.412292,87.804459 437.085876,87.415855 
	C439.304474,84.787926 441.523102,82.159996 444.641663,78.466057 
	C439.487244,75.620316 434.566315,72.903496 429.342041,70.016342 
z"/>
<path fill="#E3E3E3" opacity="1.000000" stroke="none" 
	d="
M383.487915,90.125153 
	C384.021729,89.952820 384.198792,89.957916 384.641602,89.967194 
	C381.881989,99.482979 381.982147,108.975296 385.299438,118.375145 
	C385.796692,119.784058 387.040955,120.929321 387.724762,122.596008 
	C387.304077,123.009644 387.098267,123.023819 386.892456,123.037994 
	C386.423767,122.794128 385.534943,122.357201 385.545746,122.333687 
	C387.669922,117.711235 385.139832,115.442245 380.946564,113.466698 
	C380.946564,107.406181 380.816071,100.987946 381.046051,94.582649 
	C381.098083,93.132866 382.403015,91.728073 383.487915,90.125153 
z"/>
<path fill="#EBEBEB" opacity="1.000000" stroke="none" 
	d="
M492.106506,72.342644 
	C492.249512,71.981064 492.431213,71.980438 492.884583,71.958221 
	C495.211609,75.846321 497.346375,79.716759 499.302826,83.675331 
	C501.919922,88.970711 504.460205,94.306808 506.880249,99.694252 
	C507.315857,100.663902 507.011627,101.965889 506.820343,103.544563 
	C506.400970,103.982918 506.210236,103.991142 506.019501,103.999367 
	C501.394714,93.567444 496.769958,83.135513 492.106506,72.342644 
z"/>
<path fill="#5C5C5C" opacity="1.000000" stroke="none" 
	d="
M593.945312,136.622711 
	C593.920227,137.097244 593.605225,137.302017 593.421692,137.261841 
	C593.157410,115.354851 593.076660,93.488045 592.970215,71.109688 
	C593.290955,72.312057 593.932922,74.025024 593.938538,75.740067 
	C594.004395,95.875916 593.974792,116.012077 593.945312,136.622711 
z"/>
<path fill="#4F4F4F" opacity="1.000000" stroke="none" 
	d="
M288.977661,71.192200 
	C289.291107,71.912552 289.927368,73.130539 289.931030,74.350418 
	C289.990295,94.150894 289.972687,113.951607 289.951630,133.752258 
	C289.950958,134.402130 289.730743,135.051773 289.280975,136.011688 
	C288.968109,114.778122 288.987152,93.234421 288.977661,71.192200 
z"/>
<path fill="#FFFFFF" opacity="1.000000" stroke="none" 
	d="
M579.771057,137.226196 
	C578.948364,137.817184 578.127014,138.920990 577.302795,138.923172 
	C561.977844,138.963791 546.652588,138.873260 531.164612,138.398575 
	C531.001831,137.986832 530.964478,138.019974 531.340088,137.739624 
	C540.541748,137.517136 549.368408,137.662643 558.193787,137.604919 
	C565.152222,137.559433 572.108948,137.263672 579.222412,137.212402 
	C579.378418,137.345718 579.771057,137.226196 579.771057,137.226196 
z"/>
<path fill="#EFEFEF" opacity="1.000000" stroke="none" 
	d="
M322.610840,118.079437 
	C323.015900,118.370834 323.036835,118.567734 323.113464,119.056404 
	C321.285767,121.838333 319.402435,124.328499 317.200256,127.240234 
	C320.027069,129.341797 322.865295,131.451843 326.287231,133.995850 
	C321.418701,133.498291 317.367004,132.578033 316.079712,128.097839 
	C314.867950,123.880531 317.566895,120.029015 322.610840,118.079437 
z"/>
<path fill="#EBEBEB" opacity="1.000000" stroke="none" 
	d="
M465.647949,95.975662 
	C462.648651,104.149994 459.244446,112.318222 455.593384,120.669815 
	C456.896912,115.815651 458.201263,110.683876 460.081940,105.772812 
	C461.393311,102.348427 463.494598,99.226555 465.647949,95.975662 
z"/>
<path fill="#EFEEF5" opacity="1.000000" stroke="none" 
	d="
M126.582504,36.093502 
	C127.001595,36.163284 126.999031,36.590721 126.996384,36.804432 
	C118.936401,36.964401 110.879059,36.910664 102.402206,36.908527 
	C102.633476,35.964962 103.254639,34.129749 103.939682,34.105587 
	C110.242920,33.883232 116.560204,33.875668 122.865494,34.066578 
	C123.983536,34.100430 125.065041,35.340595 126.582504,36.093502 
z"/>
<path fill="#EDECF4" opacity="1.000000" stroke="none" 
	d="
M36.084946,108.414169 
	C36.155376,107.995193 36.612846,107.998161 36.841660,108.002289 
	C36.819820,115.194534 36.569164,122.382660 36.130318,129.880112 
	C35.284904,129.316818 34.092617,128.464111 34.059254,127.568260 
	C33.874012,122.593796 33.832912,117.602478 34.063736,112.631844 
	C34.123810,111.338203 35.333076,110.097923 36.084946,108.414169 
z"/>
<path fill="#F4F4F9" opacity="1.000000" stroke="none" 
	d="
M40.055378,141.424469 
	C45.095715,145.517853 50.080307,150.007523 55.038963,154.861832 
	C47.779690,153.254059 42.143566,149.492889 40.055378,141.424469 
z"/>
<path fill="#E8E8E8" opacity="1.000000" stroke="none" 
	d="
M386.921692,123.418304 
	C387.098267,123.023819 387.304077,123.009644 387.818665,122.975067 
	C391.298737,126.758232 394.470062,130.561798 396.959167,133.547165 
	C393.831085,133.922562 389.126831,130.091064 386.921692,123.418304 
z"/>
<path fill="#E8E8E8" opacity="1.000000" stroke="none" 
	d="
M369.026794,130.852905 
	C366.927368,132.391281 364.846283,133.527863 361.963745,135.102142 
	C365.368469,130.139343 368.052917,126.226433 370.737396,122.313515 
	C370.931641,122.308014 371.125885,122.302505 371.320099,122.296997 
	C370.561798,125.015030 369.803467,127.733063 369.026794,130.852905 
z"/>
<path fill="#EDECF4" opacity="1.000000" stroke="none" 
	d="
M158.396469,144.051880 
	C161.094162,139.463333 164.162872,134.852417 167.551178,130.156677 
	C167.583191,136.515930 163.136810,140.247574 158.396469,144.051880 
z"/>
<path fill="#DFDFDF" opacity="1.000000" stroke="none" 
	d="
M545.978027,125.849663 
	C545.978027,125.849663 545.948975,125.372604 545.997253,125.138565 
	C557.237061,124.982346 568.428589,125.060165 579.509033,125.657928 
	C579.205566,126.223755 579.013062,126.269638 578.370605,126.229515 
	C567.273132,126.045570 556.625549,125.947617 545.978027,125.849663 
z"/>
<path fill="#919191" opacity="1.000000" stroke="none" 
	d="
M470.867737,121.271927 
	C480.506805,121.292862 490.145844,121.313797 499.919861,121.768478 
	C490.706238,122.138603 481.357727,122.074974 471.412415,121.868591 
	C470.815674,121.725830 470.867737,121.271927 470.867737,121.271927 
z"/>
<path fill="#F1F1F1" opacity="1.000000" stroke="none" 
	d="
M355.337433,83.228088 
	C358.784424,84.261612 361.932220,85.566040 366.336945,87.391319 
	C360.393372,88.712860 356.914032,87.922852 355.337433,83.228088 
z"/>
<path fill="#E6E6E6" opacity="1.000000" stroke="none" 
	d="
M506.026398,104.367065 
	C506.210236,103.991142 506.400970,103.982918 506.877747,103.959549 
	C508.788269,107.677620 510.412781,111.410835 512.074219,115.551300 
	C512.111206,115.958549 511.631836,115.988426 511.391754,115.993866 
	C509.445557,112.244461 507.739410,108.489616 506.026398,104.367065 
z"/>
<path fill="#E3E3E3" opacity="1.000000" stroke="none" 
	d="
M470.511597,121.189819 
	C470.867737,121.271927 470.815674,121.725830 470.950836,121.909996 
	C469.315704,125.411705 467.545410,128.729248 465.373718,132.062225 
	C466.700012,128.421005 468.427734,124.764351 470.511597,121.189819 
z"/>
<path fill="#F1F1F1" opacity="1.000000" stroke="none" 
	d="
M449.130981,138.376648 
	C451.783417,137.842392 454.614594,137.415314 457.374969,137.692871 
	C460.820251,138.039291 462.696564,136.735474 463.928894,133.254303 
	C464.399139,133.009842 464.836823,133.011185 464.836823,133.011185 
	C464.500549,134.972214 464.164307,136.933243 463.844788,138.796539 
	C458.743164,138.796539 454.010742,138.796539 449.130981,138.376648 
z"/>
<path fill="#636363" opacity="1.000000" stroke="none" 
	d="
M578.820557,126.315514 
	C579.013062,126.269638 579.205566,126.223755 579.672058,126.063766 
	C579.964722,129.400696 579.983337,132.851730 579.886475,136.764496 
	C579.771057,137.226196 579.378418,137.345718 579.150452,136.759949 
	C578.888489,132.887939 578.854553,129.601730 578.820557,126.315514 
z"/>
<path fill="#EFEFEF" opacity="1.000000" stroke="none" 
	d="
M327.988953,134.546158 
	C328.003296,134.515213 327.895630,134.487991 327.787933,134.460770 
	C327.814270,134.490463 327.840607,134.520172 327.988953,134.546158 
z"/>
<path fill="#E8E8E8" opacity="1.000000" stroke="none" 
	d="
M360.543243,135.228363 
	C360.570038,135.197983 360.516449,135.258774 360.543243,135.228363 
z"/>
<path fill="#EBEBEB" opacity="1.000000" stroke="none" 
	d="
M433.615662,134.820221 
	C433.602478,134.785049 433.628876,134.855423 433.615662,134.820221 
z"/>
<path fill="#E3E3E3" opacity="1.000000" stroke="none" 
	d="
M464.904297,132.751297 
	C464.836823,133.011185 464.399139,133.009842 464.180664,132.997406 
	C464.119080,132.568146 464.275970,132.151337 464.759216,131.850586 
	C465.047607,132.141556 465.009674,132.316483 464.904297,132.751297 
z"/>
<path fill="#EDECF4" opacity="1.000000" stroke="none" 
	d="
M157.430023,144.736206 
	C157.319336,144.507553 157.510956,144.329590 157.929474,144.095978 
	C157.999359,144.234009 157.858017,144.482864 157.430023,144.736206 
z"/>
<path fill="#F9F8FA" opacity="1.000000" stroke="none" 
	d="
M106.157845,82.206741 
	C96.000732,100.033691 85.660454,117.347992 76.222198,135.140778 
	C72.829926,141.535797 68.752037,143.212799 61.812634,141.464386 
	C62.638298,139.860031 63.384087,138.272171 64.248604,136.751846 
	C77.008453,114.312424 90.036247,92.019470 102.391602,69.359779 
	C105.789818,63.127460 109.749893,61.004013 117.024010,63.053337 
	C113.445488,69.354866 109.888214,75.618973 106.157845,82.206741 
z"/>
<path fill="#F9F8FA" opacity="1.000000" stroke="none" 
	d="
M109.897186,131.904999 
	C109.137657,133.236511 108.537628,134.236496 107.959801,135.249130 
	C103.550270,142.976883 103.551613,142.977646 93.757309,141.416412 
	C96.252892,136.944504 98.624092,132.620102 101.064590,128.335175 
	C112.357613,108.507324 123.668747,88.689804 134.975815,68.869965 
	C139.191757,61.479969 139.194794,61.481697 149.099335,63.002411 
	C136.005142,86.007912 123.036041,108.793617 109.897186,131.904999 
z"/>
<path fill="#000000" opacity="1.000000" stroke="none" 
	d="
M492.073364,109.025620 
	C486.990234,109.343590 481.907104,109.661568 476.406067,109.564026 
	C479.392029,103.056641 480.532532,95.761993 484.781769,90.204826 
	C486.099091,92.508888 487.215851,93.934196 487.781250,95.552170 
	C489.335632,100.000107 490.658722,104.528854 492.073364,109.025620 
z"/>
<path fill="#E8E8E8" opacity="1.000000" stroke="none" 
	d="
M492.155151,109.411888 
	C490.658722,104.528854 489.335632,100.000107 487.781250,95.552170 
	C487.215851,93.934196 486.099091,92.508888 484.781769,90.204826 
	C480.532532,95.761993 479.392029,103.056641 475.933929,109.553452 
	C475.458221,109.022324 474.441437,107.848167 474.706085,107.186554 
	C477.776672,99.509644 481.040710,91.910118 484.590424,83.490921 
	C488.214508,91.947136 491.648224,99.726494 494.864227,107.594818 
	C495.929138,110.200142 494.161987,110.300758 492.155151,109.411888 
z"/>
<path fill="#0D0D0D" opacity="1.000000" stroke="none" 
	d="
M238.000275,69.199783 
	C249.632126,69.199791 260.764008,69.199791 272.222107,69.199791 
	C272.222107,73.157196 272.222107,76.713966 272.222107,80.695000 
	C265.215424,80.695000 258.453705,80.695000 251.282257,80.695000 
	C251.282257,99.714096 251.282257,118.317955 251.282257,137.262848 
	C246.960922,137.262848 243.050934,137.262848 238.739807,137.262848 
	C238.739807,118.679489 238.739807,100.089622 238.739807,80.900780 
	C231.497177,80.900780 224.610001,80.900780 217.401825,80.900780 
	C217.401825,76.772461 217.401825,73.238945 217.401825,69.199776 
	C224.250839,69.199776 230.875580,69.199776 238.000275,69.199783 
z"/>
<path fill="#020202" opacity="1.000000" stroke="none" 
	d="
M578.370605,126.229515 
	C578.854553,129.601730 578.888489,132.887939 578.994507,136.626617 
	C572.108948,137.263672 565.152222,137.559433 558.193787,137.604919 
	C549.368408,137.662643 540.541748,137.517136 531.327942,137.761459 
	C531.050903,125.653671 531.196777,113.243874 531.261230,100.833641 
	C531.314697,90.541756 531.272278,80.249367 531.272278,69.569809 
	C535.424500,69.569809 539.279846,69.569809 543.688599,69.569809 
	C543.688599,74.783920 543.688538,79.894493 543.688599,85.005074 
	C543.688660,97.312408 543.645081,109.620125 543.750122,121.926559 
	C543.761902,123.302849 544.617310,124.671936 545.529785,125.947014 
	C556.625549,125.947617 567.273132,126.045570 578.370605,126.229515 
z"/>
</svg>