<svg version="1.1" id="Layer_1" xmlns="http://www.w3.org/2000/svg" xmlns:xlink="http://www.w3.org/1999/xlink" x="0px" y="0px"
	 width="100%" viewBox="0 0 2560 920" enable-background="new 0 0 2560 920" xml:space="preserve">
<path fill="#000000" opacity="1.000000" stroke="none" 
	d="
M2224.000000,921.000000 
	C1483.096436,921.000000 742.192932,921.000000 1.000000,921.000000 
	C1.000000,619.302490 1.000000,317.604889 1.362856,15.479578 
	C2.434516,16.317493 3.315388,17.517590 3.825932,18.858669 
	C10.017218,35.121754 16.087896,51.430939 22.317944,67.679054 
	C37.509029,107.297783 52.828983,146.867172 67.982170,186.500351 
	C84.793716,230.470947 101.417786,274.513245 118.235092,318.481598 
	C133.393082,358.111755 148.761627,397.661316 163.925659,437.289185 
	C176.423553,469.949738 188.695938,502.696503 201.180710,535.362122 
	C216.506775,575.461914 231.914474,615.530518 247.372589,655.579590 
	C250.395981,663.412537 253.810699,671.094543 257.509033,678.901611 
	C330.431671,678.957031 402.890167,678.957031 475.385315,678.957031 
	C483.043640,658.980774 490.590607,639.204041 498.206390,619.453918 
	C506.776764,597.228210 515.466187,575.048279 523.998474,552.807983 
	C532.469543,530.727173 540.766174,508.579468 549.220947,486.492371 
	C556.091431,468.544098 563.142944,450.665131 570.005310,432.713806 
	C579.386353,408.174316 588.622009,383.579193 597.998657,359.037964 
	C606.616455,336.482941 615.360474,313.976227 624.008972,291.432892 
	C634.014587,265.351654 643.903503,239.225189 654.046326,213.197601 
	C655.376526,209.784149 654.897278,208.297440 651.591492,206.764221 
	C637.690857,200.317154 623.897095,193.638885 610.080383,187.011612 
	C583.646179,174.332291 557.201050,161.675690 530.801941,148.923721 
	C507.474670,137.655579 484.216064,126.245476 460.896393,114.961548 
	C456.930847,113.042702 452.810577,111.443695 448.086182,109.405441 
	C418.496368,197.215485 389.001526,284.743713 359.351410,371.952454 
	C350.176117,345.449036 341.103485,319.283173 332.149963,293.076569 
	C321.961273,263.254944 311.903473,233.388565 301.743713,203.557007 
	C290.942780,171.842804 280.067932,140.153809 269.264282,108.440536 
	C258.676086,77.359665 248.026825,46.298599 237.692825,15.133183 
	C236.108444,10.354990 233.928116,8.872430 228.917908,8.883649 
	C152.945572,9.053770 76.972725,9.000777 1.000000,9.000000 
	C1.000000,6.334442 1.000000,3.668884 1.000000,1.001663 
	C324.697601,1.000000 648.395203,1.000000 972.592773,1.419598 
	C969.466614,2.550414 965.869019,3.508135 962.209534,3.932501 
	C939.925415,6.516631 918.169983,11.490721 896.925781,18.593302 
	C876.869141,25.298864 857.464539,33.555973 839.005371,43.976452 
	C818.571960,55.511417 799.276123,68.761650 782.055176,84.620506 
	C760.601501,104.377342 741.494690,126.243378 726.080078,151.244125 
	C714.623169,169.825882 704.752747,189.120193 697.032227,209.500778 
	C687.086548,235.755737 679.798340,262.710297 676.943604,290.719910 
	C675.455872,305.316223 673.324463,319.943298 673.263062,334.563995 
	C673.188171,352.393951 674.351562,370.296234 676.163025,388.046417 
	C677.695618,403.064545 680.070190,418.111328 683.560181,432.791656 
	C691.211182,464.974457 703.168945,495.522400 719.949951,524.209412 
	C738.932678,556.660095 762.687561,585.013245 791.582581,608.889587 
	C815.434998,628.599121 841.771606,644.396912 870.248047,656.797852 
	C911.232544,674.645752 954.189331,683.655701 998.543091,685.734192 
	C1017.698242,686.631775 1037.058594,685.487854 1056.193481,683.785095 
	C1073.505615,682.244629 1090.702637,679.037842 1107.833374,675.922424 
	C1130.562866,671.788696 1152.518677,664.498108 1173.636719,655.470825 
	C1193.256836,647.083862 1212.231567,636.965393 1230.798706,626.394165 
	C1252.776855,613.880737 1272.842407,598.420898 1291.214111,581.045349 
	C1302.525391,570.347351 1312.857178,558.590759 1323.326416,547.035706 
	C1327.887817,542.000977 1331.690796,536.279053 1336.110474,530.514343 
	C1318.187012,522.084534 1301.043091,514.056335 1283.929688,505.963379 
	C1263.965088,496.522125 1244.011841,487.056610 1224.082275,477.541473 
	C1206.088623,468.950592 1188.093140,460.361267 1170.199097,451.566284 
	C1166.970215,449.979279 1164.994995,450.242279 1162.510132,452.881714 
	C1152.029419,464.014404 1139.836914,473.028229 1126.361938,480.157959 
	C1108.925659,489.383545 1089.886841,493.374176 1070.473999,494.784515 
	C1056.486938,495.800690 1042.366943,495.101044 1028.307861,494.983673 
	C1011.005188,494.839203 994.354919,491.047577 978.295715,484.889496 
	C956.124756,476.387756 937.159424,463.647461 923.769958,443.347412 
	C915.467712,430.760315 910.248657,417.195099 907.420410,402.000000 
	C909.995972,402.000000 912.140503,402.000000 914.284973,402.000000 
	C1011.271423,402.000000 1108.257812,402.000092 1205.244263,402.000000 
	C1247.405029,401.999939 1289.565918,401.964264 1331.726440,402.065552 
	C1335.138672,402.073761 1337.513184,401.495209 1337.943726,397.710052 
	C1339.635254,382.841064 1342.367432,367.996460 1342.731934,353.094299 
	C1343.184692,334.573792 1342.503418,315.927795 1340.773804,297.480225 
	C1339.166870,280.342224 1336.414185,263.193787 1332.582642,246.411438 
	C1327.531250,224.286972 1319.733765,202.917191 1310.093140,182.334076 
	C1295.843506,151.910172 1277.009521,124.488731 1254.259644,99.821205 
	C1240.195312,84.571205 1224.292236,71.243935 1207.464355,59.214493 
	C1188.969971,45.993824 1168.959351,35.103996 1147.939453,26.487867 
	C1118.011963,14.220469 1086.949219,5.923820 1054.609619,2.910824 
	C1053.688354,2.824991 1052.867676,1.661164 1052.000000,0.999991 
	C1554.925903,1.000000 2057.851807,1.000000 2560.888672,1.000000 
	C2560.888672,307.547211 2560.888672,614.094482 2560.888672,921.000000 
	C2450.302734,921.000000 2339.604980,921.000000 2228.292236,920.625854 
	C2231.652832,909.101440 2235.558594,897.925781 2239.616699,886.805664 
	C2253.664795,848.310852 2267.788330,809.843628 2281.840332,771.350281 
	C2293.900879,738.311890 2305.914795,705.256409 2317.926514,672.200256 
	C2330.960693,636.330078 2343.945557,600.442200 2356.995117,564.577637 
	C2367.576660,535.496033 2378.241455,506.444611 2388.833740,477.366974 
	C2402.222656,440.611755 2415.618652,403.859161 2428.930664,367.076050 
	C2440.066895,336.304596 2451.019287,305.466370 2462.177246,274.702881 
	C2472.586426,246.003677 2483.179443,217.371277 2493.654785,188.695969 
	C2505.335693,156.720596 2516.975098,124.730232 2528.632080,92.746162 
	C2536.290283,71.733498 2543.962646,50.725964 2551.595703,29.704174 
	C2554.036621,22.981991 2556.372803,16.221966 2558.844727,9.230974 
	C2477.030273,9.230974 2395.738281,9.230974 2314.175293,9.230974 
	C2279.571289,112.908821 2245.009033,216.461029 2210.447021,320.013245 
	C2207.484619,315.698120 2205.669189,311.526733 2204.155273,307.248657 
	C2191.367432,271.113220 2178.680664,234.941971 2165.870117,198.814713 
	C2157.019531,173.856003 2147.974609,148.966324 2139.099365,124.016327 
	C2126.141846,87.590645 2113.184814,51.164478 2100.447754,14.661682 
	C2099.008301,10.536694 2097.502930,8.847964 2092.723633,8.860056 
	C2014.560303,9.057811 1936.396484,9.000333 1858.232788,9.000333 
	C1856.279907,9.000333 1854.327026,9.000333 1851.609253,9.000333 
	C1852.529053,11.687938 1853.102051,13.703479 1853.896973,15.627329 
	C1858.169067,25.967249 1862.547607,36.263340 1866.795532,46.613018 
	C1882.719482,85.408737 1898.595215,124.224190 1914.511719,163.022858 
	C1927.553101,194.812683 1940.653198,226.578369 1953.678101,258.374908 
	C1964.829590,285.597778 1975.860596,312.870056 1987.037109,340.082581 
	C1999.593994,370.655853 2012.302002,401.167175 2024.855835,431.741760 
	C2035.966309,458.801361 2046.916992,485.926636 2058.008301,512.994202 
	C2071.866943,546.815308 2085.859619,580.581909 2099.564941,614.464844 
	C2100.537842,616.870056 2100.428955,620.351135 2099.469238,622.801758 
	C2089.153809,649.141724 2078.473145,675.338257 2068.076660,701.646973 
	C2055.144531,734.372498 2042.387817,767.167358 2029.549927,799.930176 
	C2026.449097,807.843567 2023.327393,815.748901 2020.120972,823.897644 
	C2021.796387,824.766052 2023.068848,825.475708 2024.382324,826.098450 
	C2035.571289,831.403687 2046.744629,836.742676 2057.966064,841.978210 
	C2092.364014,858.026978 2126.780518,874.036438 2161.191650,890.056396 
	C2180.058594,898.839844 2198.952393,907.565613 2217.769775,916.454224 
	C2220.052734,917.532593 2221.933105,919.463989 2224.000000,921.000000 
M1825.048828,800.051086 
	C1825.032959,836.411926 1825.003540,872.772827 1825.048218,909.133606 
	C1825.050171,910.669861 1825.739136,912.205261 1827.020996,913.891846 
	C1847.669189,913.928040 1868.317383,913.972534 1888.965576,913.997375 
	C1902.179077,914.013306 1901.985962,913.998718 1902.099731,900.805420 
	C1902.140015,896.137695 1900.533081,894.854980 1896.061646,894.919617 
	C1881.077637,895.136414 1866.087280,894.891907 1851.101929,895.059265 
	C1847.166626,895.103271 1845.806152,893.733887 1845.947632,889.854614 
	C1846.177856,883.535034 1846.158691,877.196289 1845.955322,870.874939 
	C1845.837036,867.196228 1847.196411,865.873352 1850.873413,865.954041 
	C1859.195435,866.136719 1867.524536,866.002563 1875.850708,866.001404 
	C1889.284790,865.999512 1889.140747,866.001526 1889.077393,852.360229 
	C1889.058105,848.229553 1887.717529,846.855713 1883.608887,846.933777 
	C1872.622314,847.142822 1861.628052,846.906616 1850.639038,847.035400 
	C1847.210938,847.075562 1845.881470,845.859802 1845.964966,842.391968 
	C1846.133057,835.402039 1846.191528,828.398621 1845.938110,821.413696 
	C1845.789917,817.329224 1847.161621,815.857056 1851.334106,815.931519 
	C1863.320068,816.145386 1875.312256,816.001770 1887.302002,816.000305 
	C1899.138062,815.998901 1898.969116,815.998230 1899.084229,803.967346 
	C1899.126587,799.540039 1897.934937,797.858276 1893.222046,797.908142 
	C1872.242310,798.130066 1851.258789,797.977661 1830.276978,798.053040 
	C1828.565063,798.059204 1826.855591,798.761475 1825.048828,800.051086 
M1643.848267,344.307495 
	C1649.252075,319.050751 1660.668945,297.334106 1680.841919,280.604462 
	C1698.700928,265.793854 1719.488525,257.808289 1742.057739,254.087662 
	C1750.174927,252.749527 1758.443970,252.047318 1766.669922,251.727173 
	C1776.580200,251.341507 1786.518433,251.679352 1796.444580,251.689697 
	C1806.130737,251.699783 1815.817017,251.691895 1825.698730,251.691895 
	C1825.698730,170.757065 1825.698730,89.184540 1825.698730,7.244110 
	C1748.788330,7.002901 1685.772705,34.237759 1640.999512,98.840675 
	C1640.607544,98.517982 1640.215454,98.195297 1639.823486,97.872612 
	C1639.823486,68.357475 1639.823486,38.842346 1639.823486,9.390615 
	C1559.559448,9.390615 1479.995605,9.390615 1399.999390,9.390615 
	C1399.999390,12.245373 1399.999390,14.719155 1399.999390,17.192938 
	C1399.999390,196.337875 1399.999390,375.482819 1399.999634,554.627747 
	C1399.999634,556.127563 1399.626465,557.761597 1400.101318,559.092529 
	C1400.669312,560.684631 1401.635010,562.656067 1402.997437,563.356812 
	C1410.486084,567.208252 1418.145386,570.728088 1425.752197,574.349182 
	C1451.995483,586.842163 1478.249268,599.313049 1504.484253,611.823853 
	C1542.060181,629.743042 1579.617188,647.702576 1617.196899,665.614075 
	C1624.571777,669.129150 1632.013550,672.503662 1639.999634,676.209839 
	C1639.999634,673.275452 1639.999634,671.123352 1639.999634,668.971313 
	C1639.999756,574.649414 1639.861572,480.327087 1640.153931,386.006104 
	C1640.196289,372.355682 1642.303833,358.711670 1643.848267,344.307495 
M334.502228,833.031128 
	C328.714844,843.630798 322.927490,854.230469 316.754028,865.537354 
	C315.427185,863.696716 314.471771,862.621643 313.793976,861.393311 
	C304.419464,844.404968 294.416260,827.717102 285.997955,810.265442 
	C281.269806,800.463684 275.491882,796.221924 264.636719,797.832642 
	C258.155396,798.794312 258.009857,798.041443 258.007080,804.585510 
	C257.993744,836.240845 258.000031,867.896240 257.999542,899.551575 
	C257.999329,914.078308 257.999512,914.078369 272.292175,913.998413 
	C278.957642,913.961121 278.990051,913.961060 278.995453,907.467041 
	C279.012512,886.974365 278.997284,866.481689 279.014435,845.989014 
	C279.015839,844.279297 279.166565,842.569702 279.303925,839.683167 
	C281.004303,842.100342 282.053864,843.364990 282.857758,844.770203 
	C291.099823,859.176270 299.491455,873.502686 307.386810,888.097229 
	C309.451111,891.913147 312.120819,892.174927 315.536072,891.998535 
	C319.211731,891.808716 322.987488,892.884155 325.426483,888.275513 
	C331.323395,877.133057 337.696777,866.241882 343.928009,855.277832 
	C346.809418,850.207886 349.807556,845.204346 352.752777,840.170654 
	C353.168152,840.272827 353.583496,840.375000 353.998871,840.477173 
	C353.998871,842.240234 353.998871,844.003357 353.998871,845.766479 
	C353.999084,863.926636 353.999390,882.086853 353.999512,900.247009 
	C353.999634,914.154968 354.001923,913.946533 367.986725,914.108215 
	C372.938416,914.165466 374.113373,912.427734 374.087402,907.763550 
	C373.914124,876.609009 374.030060,845.452881 373.969055,814.297485 
	C373.959015,809.178162 375.472290,801.923401 372.799103,799.505066 
	C369.756744,796.752747 362.798096,798.428162 357.560425,797.966675 
	C354.421356,797.690002 352.935150,799.056152 351.517273,801.777710 
	C346.151306,812.077576 340.461395,822.208618 334.502228,833.031128 
M967.600464,811.005432 
	C961.428711,801.574219 951.867371,798.503784 941.470703,798.127686 
	C927.822693,797.633850 914.143494,797.996033 900.477661,798.003662 
	C893.022766,798.007812 893.005127,798.020447 893.002930,805.269653 
	C892.994751,831.934692 892.997375,858.599670 893.000061,885.264709 
	C893.000916,893.430786 893.036316,901.596985 893.009521,909.762939 
	C893.001526,912.207703 893.462585,914.028381 896.515503,913.966553 
	C914.640137,913.599182 932.888916,914.462097 950.853516,912.587524 
	C966.227417,910.983337 974.609802,902.646301 976.697205,888.427124 
	C978.929871,873.217590 974.972778,860.838989 960.670410,854.270569 
	C959.407959,853.690735 958.239441,852.906311 956.801575,852.088501 
	C972.415649,843.459961 975.138062,823.450256 967.600464,811.005432 
M640.432312,797.926392 
	C633.058838,797.607605 625.666626,796.797424 618.315979,797.077759 
	C605.186401,797.578430 593.815491,803.010925 584.548035,812.086182 
	C566.246399,830.008240 562.554626,858.151001 571.902649,880.363220 
	C583.562256,908.068054 607.849304,918.133484 634.568970,914.648010 
	C671.929382,909.774414 688.797485,878.642761 683.225830,843.781128 
	C679.376831,819.698425 665.028442,804.318420 640.432312,797.926392 
M1590.919800,897.917542 
	C1590.667847,894.251831 1587.821167,895.053528 1585.675415,895.041199 
	C1573.023682,894.968567 1560.370728,895.056396 1547.718994,894.982422 
	C1536.813110,894.918579 1538.043091,896.197266 1538.019409,885.485474 
	C1537.959351,858.349792 1537.889893,831.213196 1538.095581,804.078918 
	C1538.132446,799.220764 1536.601685,797.486633 1531.831909,797.939453 
	C1528.366577,798.268433 1524.840454,798.138794 1521.351562,797.985107 
	C1518.098633,797.841797 1516.992676,799.239624 1516.998169,802.411926 
	C1517.061157,838.204285 1517.055786,873.996887 1517.009033,909.789307 
	C1517.005249,912.662720 1517.901489,914.023254 1521.003174,914.013000 
	C1542.977783,913.940186 1564.952881,913.944458 1586.927490,914.008850 
	C1589.957520,914.017761 1591.101318,912.766296 1591.004150,909.829346 
	C1590.882935,906.170898 1590.971069,902.505554 1590.919800,897.917542 
M1235.000000,829.500000 
	C1235.000000,853.332214 1235.000000,877.164490 1235.000000,900.996704 
	C1235.000000,914.069885 1235.000000,914.069824 1248.248657,913.997253 
	C1254.967773,913.960449 1254.991943,913.960510 1254.994141,906.997437 
	C1255.004272,875.498901 1254.999390,844.000366 1254.999878,812.501831 
	C1255.000122,797.426025 1255.003052,797.545349 1239.748169,797.928650 
	C1235.941040,798.024353 1234.884033,799.445984 1234.954834,803.002319 
	C1235.124023,811.498474 1235.003540,820.000427 1235.000000,829.500000 
z"/>
<path fill="#13A538" opacity="1.000000" stroke="none" 
	d="
M1051.531372,0.999991 
	C1052.867676,1.661164 1053.688354,2.824991 1054.609619,2.910824 
	C1086.949219,5.923820 1118.011963,14.220469 1147.939453,26.487867 
	C1168.959351,35.103996 1188.969971,45.993824 1207.464355,59.214493 
	C1224.292236,71.243935 1240.195312,84.571205 1254.259644,99.821205 
	C1277.009521,124.488731 1295.843506,151.910172 1310.093140,182.334076 
	C1319.733765,202.917191 1327.531250,224.286972 1332.582642,246.411438 
	C1336.414185,263.193787 1339.166870,280.342224 1340.773804,297.480225 
	C1342.503418,315.927795 1343.184692,334.573792 1342.731934,353.094299 
	C1342.367432,367.996460 1339.635254,382.841064 1337.943726,397.710052 
	C1337.513184,401.495209 1335.138672,402.073761 1331.726440,402.065552 
	C1289.565918,401.964264 1247.405029,401.999939 1205.244263,402.000000 
	C1108.257812,402.000092 1011.271423,402.000000 914.284973,402.000000 
	C912.140503,402.000000 909.995972,402.000000 907.420410,402.000000 
	C910.248657,417.195099 915.467712,430.760315 923.769958,443.347412 
	C937.159424,463.647461 956.124756,476.387756 978.295715,484.889496 
	C994.354919,491.047577 1011.005188,494.839203 1028.307861,494.983673 
	C1042.366943,495.101044 1056.486938,495.800690 1070.473999,494.784515 
	C1089.886841,493.374176 1108.925659,489.383545 1126.361938,480.157959 
	C1139.836914,473.028229 1152.029419,464.014404 1162.510132,452.881714 
	C1164.994995,450.242279 1166.970215,449.979279 1170.199097,451.566284 
	C1188.093140,460.361267 1206.088623,468.950592 1224.082275,477.541473 
	C1244.011841,487.056610 1263.965088,496.522125 1283.929688,505.963379 
	C1301.043091,514.056335 1318.187012,522.084534 1336.110474,530.514343 
	C1331.690796,536.279053 1327.887817,542.000977 1323.326416,547.035706 
	C1312.857178,558.590759 1302.525391,570.347351 1291.214111,581.045349 
	C1272.842407,598.420898 1252.776855,613.880737 1230.798706,626.394165 
	C1212.231567,636.965393 1193.256836,647.083862 1173.636719,655.470825 
	C1152.518677,664.498108 1130.562866,671.788696 1107.833374,675.922424 
	C1090.702637,679.037842 1073.505615,682.244629 1056.193481,683.785095 
	C1037.058594,685.487854 1017.698242,686.631775 998.543091,685.734192 
	C954.189331,683.655701 911.232544,674.645752 870.248047,656.797852 
	C841.771606,644.396912 815.434998,628.599121 791.582581,608.889587 
	C762.687561,585.013245 738.932678,556.660095 719.949951,524.209412 
	C703.168945,495.522400 691.211182,464.974457 683.560181,432.791656 
	C680.070190,418.111328 677.695618,403.064545 676.163025,388.046417 
	C674.351562,370.296234 673.188171,352.393951 673.263062,334.563995 
	C673.324463,319.943298 675.455872,305.316223 676.943604,290.719910 
	C679.798340,262.710297 687.086548,235.755737 697.032227,209.500778 
	C704.752747,189.120193 714.623169,169.825882 726.080078,151.244125 
	C741.494690,126.243378 760.601501,104.377342 782.055176,84.620506 
	C799.276123,68.761650 818.571960,55.511417 839.005371,43.976452 
	C857.464539,33.555973 876.869141,25.298864 896.925781,18.593302 
	C918.169983,11.490721 939.925415,6.516631 962.209534,3.932501 
	C965.869019,3.508135 969.466614,2.550414 973.046387,1.419598 
	C999.020935,1.000000 1025.041870,1.000000 1051.531372,0.999991 
M916.468933,244.039871 
	C913.497864,252.786987 910.526794,261.534119 907.449829,270.592896 
	C975.707458,270.592896 1042.705566,270.592896 1111.094604,270.592896 
	C1107.601440,261.095276 1104.611938,252.294235 1101.149536,243.683319 
	C1092.118164,221.222473 1076.886108,204.154068 1055.050293,193.672348 
	C1035.671143,184.369873 1015.164307,182.575287 993.852783,185.742355 
	C972.990662,188.842621 954.892456,197.339294 939.439270,211.275269 
	C929.582886,220.163986 922.305298,231.217575 916.468933,244.039871 
z"/>
<path fill="#13A538" opacity="1.000000" stroke="none" 
	d="
M2224.399902,921.000000 
	C2221.933105,919.463989 2220.052734,917.532593 2217.769775,916.454224 
	C2198.952393,907.565613 2180.058594,898.839844 2161.191650,890.056396 
	C2126.780518,874.036438 2092.364014,858.026978 2057.966064,841.978210 
	C2046.744629,836.742676 2035.571289,831.403687 2024.382324,826.098450 
	C2023.068848,825.475708 2021.796387,824.766052 2020.120972,823.897644 
	C2023.327393,815.748901 2026.449097,807.843567 2029.549927,799.930176 
	C2042.387817,767.167358 2055.144531,734.372498 2068.076660,701.646973 
	C2078.473145,675.338257 2089.153809,649.141724 2099.469238,622.801758 
	C2100.428955,620.351135 2100.537842,616.870056 2099.564941,614.464844 
	C2085.859619,580.581909 2071.866943,546.815308 2058.008301,512.994202 
	C2046.916992,485.926636 2035.966309,458.801361 2024.855835,431.741760 
	C2012.302002,401.167175 1999.593994,370.655853 1987.037109,340.082581 
	C1975.860596,312.870056 1964.829590,285.597778 1953.678101,258.374908 
	C1940.653198,226.578369 1927.553101,194.812683 1914.511719,163.022858 
	C1898.595215,124.224190 1882.719482,85.408737 1866.795532,46.613018 
	C1862.547607,36.263340 1858.169067,25.967249 1853.896973,15.627329 
	C1853.102051,13.703479 1852.529053,11.687938 1851.609253,9.000333 
	C1854.327026,9.000333 1856.279907,9.000333 1858.232788,9.000333 
	C1936.396484,9.000333 2014.560303,9.057811 2092.723633,8.860056 
	C2097.502930,8.847964 2099.008301,10.536694 2100.447754,14.661682 
	C2113.184814,51.164478 2126.141846,87.590645 2139.099365,124.016327 
	C2147.974609,148.966324 2157.019531,173.856003 2165.870117,198.814713 
	C2178.680664,234.941971 2191.367432,271.113220 2204.155273,307.248657 
	C2205.669189,311.526733 2207.484619,315.698120 2210.447021,320.013245 
	C2245.009033,216.461029 2279.571289,112.908821 2314.175293,9.230974 
	C2395.738281,9.230974 2477.030273,9.230974 2558.844727,9.230974 
	C2556.372803,16.221966 2554.036621,22.981991 2551.595703,29.704174 
	C2543.962646,50.725964 2536.290283,71.733498 2528.632080,92.746162 
	C2516.975098,124.730232 2505.335693,156.720596 2493.654785,188.695969 
	C2483.179443,217.371277 2472.586426,246.003677 2462.177246,274.702881 
	C2451.019287,305.466370 2440.066895,336.304596 2428.930664,367.076050 
	C2415.618652,403.859161 2402.222656,440.611755 2388.833740,477.366974 
	C2378.241455,506.444611 2367.576660,535.496033 2356.995117,564.577637 
	C2343.945557,600.442200 2330.960693,636.330078 2317.926514,672.200256 
	C2305.914795,705.256409 2293.900879,738.311890 2281.840332,771.350281 
	C2267.788330,809.843628 2253.664795,848.310852 2239.616699,886.805664 
	C2235.558594,897.925781 2231.652832,909.101440 2227.838623,920.625854 
	C2226.933350,921.000000 2225.866455,921.000000 2224.399902,921.000000 
z"/>
<path fill="#00623A" opacity="1.000000" stroke="none" 
	d="
M257.044922,678.846130 
	C253.810699,671.094543 250.395981,663.412537 247.372589,655.579590 
	C231.914474,615.530518 216.506775,575.461914 201.180710,535.362122 
	C188.695938,502.696503 176.423553,469.949738 163.925659,437.289185 
	C148.761627,397.661316 133.393082,358.111755 118.235092,318.481598 
	C101.417786,274.513245 84.793716,230.470947 67.982170,186.500351 
	C52.828983,146.867172 37.509029,107.297783 22.317944,67.679054 
	C16.087896,51.430939 10.017218,35.121754 3.825932,18.858669 
	C3.315388,17.517590 2.434516,16.317493 1.362856,15.025946 
	C1.000000,13.285642 1.000000,11.571282 1.000000,9.428462 
	C76.972725,9.000777 152.945572,9.053770 228.917908,8.883649 
	C233.928116,8.872430 236.108444,10.354990 237.692825,15.133183 
	C248.026825,46.298599 258.676086,77.359665 269.264282,108.440536 
	C280.067932,140.153809 290.942780,171.842804 301.743713,203.557007 
	C311.903473,233.388565 321.961273,263.254944 332.149963,293.076569 
	C341.103485,319.283173 350.176117,345.449036 359.295898,372.280884 
	C358.675018,375.488983 358.064362,378.086029 357.217773,380.603790 
	C335.040436,446.558807 312.819855,512.499329 290.648895,578.456421 
	C279.405304,611.905457 268.243622,645.382019 257.044922,678.846130 
z"/>
<path fill="#13A538" opacity="1.000000" stroke="none" 
	d="
M1643.651978,344.686096 
	C1642.303833,358.711670 1640.196289,372.355682 1640.153931,386.006104 
	C1639.861572,480.327087 1639.999756,574.649414 1639.999634,668.971313 
	C1639.999634,671.123352 1639.999634,673.275452 1639.999634,676.209839 
	C1632.013550,672.503662 1624.571777,669.129150 1617.196899,665.614075 
	C1579.617188,647.702576 1542.060181,629.743042 1504.484253,611.823853 
	C1478.249268,599.313049 1451.995483,586.842163 1425.752197,574.349182 
	C1418.145386,570.728088 1410.486084,567.208252 1402.997437,563.356812 
	C1401.635010,562.656067 1400.669312,560.684631 1400.101318,559.092529 
	C1399.626465,557.761597 1399.999634,556.127563 1399.999634,554.627747 
	C1399.999390,375.482819 1399.999390,196.337875 1399.999390,17.192938 
	C1399.999390,14.719155 1399.999390,12.245373 1399.999390,9.390615 
	C1479.995605,9.390615 1559.559448,9.390615 1639.823486,9.390615 
	C1639.823486,38.842346 1639.823486,68.357475 1639.823486,97.872612 
	C1640.215454,98.195297 1640.607544,98.517982 1640.999512,98.840675 
	C1685.772705,34.237759 1748.788330,7.002901 1825.698730,7.244110 
	C1825.698730,89.184540 1825.698730,170.757065 1825.698730,251.691895 
	C1815.817017,251.691895 1806.130737,251.699783 1796.444580,251.689697 
	C1786.518433,251.679352 1776.580200,251.341507 1766.669922,251.727173 
	C1758.443970,252.047318 1750.174927,252.749527 1742.057739,254.087662 
	C1719.488525,257.808289 1698.700928,265.793854 1680.841919,280.604462 
	C1660.668945,297.334106 1649.252075,319.050751 1643.651978,344.686096 
z"/>
<path fill="#13A538" opacity="1.000000" stroke="none" 
	d="
M257.509033,678.901611 
	C268.243622,645.382019 279.405304,611.905457 290.648895,578.456421 
	C312.819855,512.499329 335.040436,446.558807 357.217773,380.603790 
	C358.064362,378.086029 358.675018,375.488983 359.451141,372.600403 
	C389.001526,284.743713 418.496368,197.215485 448.086182,109.405441 
	C452.810577,111.443695 456.930847,113.042702 460.896393,114.961548 
	C484.216064,126.245476 507.474670,137.655579 530.801941,148.923721 
	C557.201050,161.675690 583.646179,174.332291 610.080383,187.011612 
	C623.897095,193.638885 637.690857,200.317154 651.591492,206.764221 
	C654.897278,208.297440 655.376526,209.784149 654.046326,213.197601 
	C643.903503,239.225189 634.014587,265.351654 624.008972,291.432892 
	C615.360474,313.976227 606.616455,336.482941 597.998657,359.037964 
	C588.622009,383.579193 579.386353,408.174316 570.005310,432.713806 
	C563.142944,450.665131 556.091431,468.544098 549.220947,486.492371 
	C540.766174,508.579468 532.469543,530.727173 523.998474,552.807983 
	C515.466187,575.048279 506.776764,597.228210 498.206390,619.453918 
	C490.590607,639.204041 483.043640,658.980774 475.385315,678.957031 
	C402.890167,678.957031 330.431671,678.957031 257.509033,678.901611 
z"/>
<path fill="#00623A" opacity="1.000000" stroke="none" 
	d="
M334.697449,832.716980 
	C340.461395,822.208618 346.151306,812.077576 351.517273,801.777710 
	C352.935150,799.056152 354.421356,797.690002 357.560425,797.966675 
	C362.798096,798.428162 369.756744,796.752747 372.799103,799.505066 
	C375.472290,801.923401 373.959015,809.178162 373.969055,814.297485 
	C374.030060,845.452881 373.914124,876.609009 374.087402,907.763550 
	C374.113373,912.427734 372.938416,914.165466 367.986725,914.108215 
	C354.001923,913.946533 353.999634,914.154968 353.999512,900.247009 
	C353.999390,882.086853 353.999084,863.926636 353.998871,845.766479 
	C353.998871,844.003357 353.998871,842.240234 353.998871,840.477173 
	C353.583496,840.375000 353.168152,840.272827 352.752777,840.170654 
	C349.807556,845.204346 346.809418,850.207886 343.928009,855.277832 
	C337.696777,866.241882 331.323395,877.133057 325.426483,888.275513 
	C322.987488,892.884155 319.211731,891.808716 315.536072,891.998535 
	C312.120819,892.174927 309.451111,891.913147 307.386810,888.097229 
	C299.491455,873.502686 291.099823,859.176270 282.857758,844.770203 
	C282.053864,843.364990 281.004303,842.100342 279.303925,839.683167 
	C279.166565,842.569702 279.015839,844.279297 279.014435,845.989014 
	C278.997284,866.481689 279.012512,886.974365 278.995453,907.467041 
	C278.990051,913.961060 278.957642,913.961121 272.292175,913.998413 
	C257.999512,914.078369 257.999329,914.078308 257.999542,899.551575 
	C258.000031,867.896240 257.993744,836.240845 258.007080,804.585510 
	C258.009857,798.041443 258.155396,798.794312 264.636719,797.832642 
	C275.491882,796.221924 281.269806,800.463684 285.997955,810.265442 
	C294.416260,827.717102 304.419464,844.404968 313.793976,861.393311 
	C314.471771,862.621643 315.427185,863.696716 316.754028,865.537354 
	C322.927490,854.230469 328.714844,843.630798 334.697449,832.716980 
z"/>
<path fill="#00623A" opacity="1.000000" stroke="none" 
	d="
M967.830688,811.299561 
	C975.138062,823.450256 972.415649,843.459961 956.801575,852.088501 
	C958.239441,852.906311 959.407959,853.690735 960.670410,854.270569 
	C974.972778,860.838989 978.929871,873.217590 976.697205,888.427124 
	C974.609802,902.646301 966.227417,910.983337 950.853516,912.587524 
	C932.888916,914.462097 914.640137,913.599182 896.515503,913.966553 
	C893.462585,914.028381 893.001526,912.207703 893.009521,909.762939 
	C893.036316,901.596985 893.000916,893.430786 893.000061,885.264709 
	C892.997375,858.599670 892.994751,831.934692 893.002930,805.269653 
	C893.005127,798.020447 893.022766,798.007812 900.477661,798.003662 
	C914.143494,797.996033 927.822693,797.633850 941.470703,798.127686 
	C951.867371,798.503784 961.428711,801.574219 967.830688,811.299561 
M954.595398,873.257568 
	C951.888550,867.581909 946.857117,864.866272 941.112244,864.193542 
	C933.549194,863.307800 925.874023,863.392944 918.249634,863.011047 
	C915.382629,862.867493 913.948608,863.898865 913.990723,867.001953 
	C914.099121,874.999390 914.069214,882.999573 914.003174,890.997925 
	C913.981201,893.651367 914.904358,895.009338 917.754578,894.978333 
	C924.919189,894.900269 932.139587,895.523010 939.239014,894.839905 
	C951.902954,893.621460 958.921082,885.202515 954.595398,873.257568 
M932.332886,844.998718 
	C933.498108,844.991150 934.666382,845.035095 935.828125,844.967590 
	C943.800415,844.505249 950.417236,838.380005 950.914551,831.028870 
	C951.339050,824.754700 946.545776,818.530579 938.875427,817.307129 
	C931.724792,816.166687 924.351379,816.285583 917.073547,816.240173 
	C916.069336,816.233826 914.224792,818.439880 914.175903,819.677246 
	C913.893311,826.824158 914.082031,833.988281 914.005371,841.145447 
	C913.975769,843.903259 915.158752,845.041504 917.890381,844.992554 
	C922.383301,844.911926 926.879150,844.988708 932.332886,844.998718 
z"/>
<path fill="#00623A" opacity="1.000000" stroke="none" 
	d="
M640.848999,797.981201 
	C665.028442,804.318420 679.376831,819.698425 683.225830,843.781128 
	C688.797485,878.642761 671.929382,909.774414 634.568970,914.648010 
	C607.849304,918.133484 583.562256,908.068054 571.902649,880.363220 
	C562.554626,858.151001 566.246399,830.008240 584.548035,812.086182 
	C593.815491,803.010925 605.186401,797.578430 618.315979,797.077759 
	C625.666626,796.797424 633.058838,797.607605 640.848999,797.981201 
M625.515320,895.995483 
	C634.373901,895.656128 642.400818,893.157959 649.263245,887.274475 
	C663.227600,875.301819 666.499756,854.801331 659.508240,838.064941 
	C649.507080,814.124207 618.240967,807.997131 600.011902,826.530212 
	C591.177917,835.511475 588.612732,846.594849 588.901062,858.937622 
	C589.357239,878.471313 605.067810,895.113403 625.515320,895.995483 
z"/>
<path fill="#00623A" opacity="1.000000" stroke="none" 
	d="
M1825.145020,799.140320 
	C1826.855591,798.761475 1828.565063,798.059204 1830.276978,798.053040 
	C1851.258789,797.977661 1872.242310,798.130066 1893.222046,797.908142 
	C1897.934937,797.858276 1899.126587,799.540039 1899.084229,803.967346 
	C1898.969116,815.998230 1899.138062,815.998901 1887.302002,816.000305 
	C1875.312256,816.001770 1863.320068,816.145386 1851.334106,815.931519 
	C1847.161621,815.857056 1845.789917,817.329224 1845.938110,821.413696 
	C1846.191528,828.398621 1846.133057,835.402039 1845.964966,842.391968 
	C1845.881470,845.859802 1847.210938,847.075562 1850.639038,847.035400 
	C1861.628052,846.906616 1872.622314,847.142822 1883.608887,846.933777 
	C1887.717529,846.855713 1889.058105,848.229553 1889.077393,852.360229 
	C1889.140747,866.001526 1889.284790,865.999512 1875.850708,866.001404 
	C1867.524536,866.002563 1859.195435,866.136719 1850.873413,865.954041 
	C1847.196411,865.873352 1845.837036,867.196228 1845.955322,870.874939 
	C1846.158691,877.196289 1846.177856,883.535034 1845.947632,889.854614 
	C1845.806152,893.733887 1847.166626,895.103271 1851.101929,895.059265 
	C1866.087280,894.891907 1881.077637,895.136414 1896.061646,894.919617 
	C1900.533081,894.854980 1902.140015,896.137695 1902.099731,900.805420 
	C1901.985962,913.998718 1902.179077,914.013306 1888.965576,913.997375 
	C1868.317383,913.972534 1847.669189,913.928040 1826.536865,913.364624 
	C1826.034912,877.901123 1826.037598,842.964844 1825.962646,808.028687 
	C1825.956299,805.065369 1825.429932,802.103088 1825.145020,799.140320 
z"/>
<path fill="#00623A" opacity="1.000000" stroke="none" 
	d="
M1590.944336,898.380371 
	C1590.971069,902.505554 1590.882935,906.170898 1591.004150,909.829346 
	C1591.101318,912.766296 1589.957520,914.017761 1586.927490,914.008850 
	C1564.952881,913.944458 1542.977783,913.940186 1521.003174,914.013000 
	C1517.901489,914.023254 1517.005249,912.662720 1517.009033,909.789307 
	C1517.055786,873.996887 1517.061157,838.204285 1516.998169,802.411926 
	C1516.992676,799.239624 1518.098633,797.841797 1521.351562,797.985107 
	C1524.840454,798.138794 1528.366577,798.268433 1531.831909,797.939453 
	C1536.601685,797.486633 1538.132446,799.220764 1538.095581,804.078918 
	C1537.889893,831.213196 1537.959351,858.349792 1538.019409,885.485474 
	C1538.043091,896.197266 1536.813110,894.918579 1547.718994,894.982422 
	C1560.370728,895.056396 1573.023682,894.968567 1585.675415,895.041199 
	C1587.821167,895.053528 1590.667847,894.251831 1590.944336,898.380371 
z"/>
<path fill="#00623A" opacity="1.000000" stroke="none" 
	d="
M1235.000000,829.000000 
	C1235.003540,820.000427 1235.124023,811.498474 1234.954834,803.002319 
	C1234.884033,799.445984 1235.941040,798.024353 1239.748169,797.928650 
	C1255.003052,797.545349 1255.000122,797.426025 1254.999878,812.501831 
	C1254.999390,844.000366 1255.004272,875.498901 1254.994141,906.997437 
	C1254.991943,913.960510 1254.967773,913.960449 1248.248657,913.997253 
	C1235.000000,914.069824 1235.000000,914.069885 1235.000000,900.996704 
	C1235.000000,877.164490 1235.000000,853.332214 1235.000000,829.000000 
z"/>
<path fill="#00803F" opacity="1.000000" stroke="none" 
	d="
M1825.096924,799.595703 
	C1825.429932,802.103088 1825.956299,805.065369 1825.962646,808.028687 
	C1826.037598,842.964844 1826.034912,877.901123 1826.080322,913.289246 
	C1825.739136,912.205261 1825.050171,910.669861 1825.048218,909.133606 
	C1825.003540,872.772827 1825.032959,836.411926 1825.096924,799.595703 
z"/>
<path fill="#000000" opacity="1.000000" stroke="none" 
	d="
M916.675659,243.719620 
	C922.305298,231.217575 929.582886,220.163986 939.439270,211.275269 
	C954.892456,197.339294 972.990662,188.842621 993.852783,185.742355 
	C1015.164307,182.575287 1035.671143,184.369873 1055.050293,193.672348 
	C1076.886108,204.154068 1092.118164,221.222473 1101.149536,243.683319 
	C1104.611938,252.294235 1107.601440,261.095276 1111.094604,270.592896 
	C1042.705566,270.592896 975.707458,270.592896 907.449829,270.592896 
	C910.526794,261.534119 913.497864,252.786987 916.675659,243.719620 
z"/>
<path fill="#000000" opacity="1.000000" stroke="none" 
	d="
M954.731445,873.629761 
	C958.921082,885.202515 951.902954,893.621460 939.239014,894.839905 
	C932.139587,895.523010 924.919189,894.900269 917.754578,894.978333 
	C914.904358,895.009338 913.981201,893.651367 914.003174,890.997925 
	C914.069214,882.999573 914.099121,874.999390 913.990723,867.001953 
	C913.948608,863.898865 915.382629,862.867493 918.249634,863.011047 
	C925.874023,863.392944 933.549194,863.307800 941.112244,864.193542 
	C946.857117,864.866272 951.888550,867.581909 954.731445,873.629761 
z"/>
<path fill="#000000" opacity="1.000000" stroke="none" 
	d="
M931.853271,844.998901 
	C926.879150,844.988708 922.383301,844.911926 917.890381,844.992554 
	C915.158752,845.041504 913.975769,843.903259 914.005371,841.145447 
	C914.082031,833.988281 913.893311,826.824158 914.175903,819.677246 
	C914.224792,818.439880 916.069336,816.233826 917.073547,816.240173 
	C924.351379,816.285583 931.724792,816.166687 938.875427,817.307129 
	C946.545776,818.530579 951.339050,824.754700 950.914551,831.028870 
	C950.417236,838.380005 943.800415,844.505249 935.828125,844.967590 
	C934.666382,845.035095 933.498108,844.991150 931.853271,844.998901 
z"/>
<path fill="#000000" opacity="1.000000" stroke="none" 
	d="
M625.065552,895.994690 
	C605.067810,895.113403 589.357239,878.471313 588.901062,858.937622 
	C588.612732,846.594849 591.177917,835.511475 600.011902,826.530212 
	C618.240967,807.997131 649.507080,814.124207 659.508240,838.064941 
	C666.499756,854.801331 663.227600,875.301819 649.263245,887.274475 
	C642.400818,893.157959 634.373901,895.656128 625.065552,895.994690 
z"/>
</svg>