<svg xmlns="http://www.w3.org/2000/svg" width="635" height="228" viewBox="0 0 635 228" version="1.1"><path d="M 0.177 3.354 C 1.089 7.175, 62.598 166.952, 63.165 166.974 C 63.531 166.988, 69.493 150.017, 76.415 129.261 L 88.999 91.522 73.750 46.769 L 58.500 2.017 29.177 2.009 C 5.026 2.002, -0.090 2.239, 0.177 3.354 M 64 211.934 L 64 227 66.462 227 C 68.878 227, 68.930 226.826, 69.212 217.880 L 69.500 208.759 72.937 214.880 C 77.340 222.718, 78.976 222.777, 83.241 215.250 L 86.500 209.500 87 218 C 87.486 226.267, 87.569 226.500, 90 226.500 L 92.500 226.500 92.777 211.750 L 93.053 197 90.219 197 C 87.699 197, 86.914 197.885, 83.123 205 C 80.778 209.400, 78.554 212.991, 78.180 212.981 C 77.806 212.970, 75.652 209.483, 73.393 205.231 C 70.035 198.909, 68.805 197.442, 66.643 197.184 L 64 196.867 64 211.934 M 148.415 198.421 C 137.696 203.089, 137.562 220.176, 148.207 225.008 C 153.607 227.459, 156.393 227.459, 161.793 225.008 C 165.193 223.465, 166.514 222.093, 168.140 218.417 C 174.076 204.997, 161.829 192.581, 148.415 198.421 M 221.223 211.750 L 221.500 226.500 224.470 226.838 C 229.873 227.452, 238.084 225.916, 240.082 223.918 C 242.662 221.338, 242.666 214.913, 240.089 212.581 C 238.290 210.952, 238.274 210.685, 239.811 208.007 C 241.061 205.829, 241.212 204.504, 240.455 202.353 C 239.090 198.470, 235.660 197.032, 227.723 197.015 L 220.947 197 221.223 211.750 M 306 212 L 306 227 308.500 227 L 311 227 311 212 L 311 197 308.500 197 L 306 197 306 212 M 376 211.971 L 376 227.075 385.250 226.788 C 394.373 226.504, 394.500 226.466, 394.500 224 C 394.500 221.633, 394.169 221.484, 388.281 221.203 L 382.063 220.906 381.781 209.203 L 381.500 197.500 378.750 197.184 L 376 196.867 376 211.971 M 452.223 211.750 L 452.500 226.500 462 226.500 L 471.500 226.500 471.816 223.750 L 472.133 221 465.066 221 L 458 221 458 218.052 C 458 215.201, 458.172 215.095, 463.250 214.802 C 468.103 214.523, 468.500 214.311, 468.500 212 C 468.500 209.689, 468.103 209.477, 463.250 209.198 L 458 208.895 458 205.448 L 458 202 464.500 202 C 470.767 202, 471 201.910, 471 199.500 C 471 197.008, 470.968 197, 461.473 197 L 451.947 197 452.223 211.750 M 152 202.672 C 147.105 204.593, 144.820 210.737, 147.023 216.055 C 148.502 219.626, 150.718 221, 155 221 C 156.722 221, 158.940 220.567, 159.929 220.038 C 164.275 217.712, 165.042 208.158, 161.165 204.649 C 159.152 202.827, 154.282 201.777, 152 202.672 M 227 205.500 C 227 208.535, 227.321 209, 229.418 209 C 233.313 209, 235 207.942, 235 205.500 C 235 203.058, 233.313 202, 229.418 202 C 227.321 202, 227 202.465, 227 205.500 M 227 217.500 C 227 220.886, 227.124 221, 230.800 221 C 234.304 221, 237 219.640, 237 217.871 C 237 216.037, 233.542 214, 230.429 214 C 227.177 214, 227 214.181, 227 217.500" stroke="none" fill="#046434" fill-rule="evenodd"/><path d="M 236 0.635 C 228.260 2.115, 218.034 5.450, 211.823 8.520 C 191.591 18.519, 176.308 37.083, 169.797 59.568 C 167.770 66.569, 167.505 69.613, 167.543 85.500 C 167.584 102.448, 167.750 103.997, 170.381 112 C 177.772 134.488, 191.492 150.696, 211.500 160.576 C 242.106 175.689, 280.066 172.272, 310.500 151.666 C 317.377 147.010, 331.252 133.256, 330.711 131.632 C 330.511 131.034, 321.010 126.131, 309.596 120.737 L 288.844 110.929 285.223 114.109 C 278.921 119.643, 273.708 121.362, 261.872 121.810 C 254.168 122.102, 249.761 121.782, 245.852 120.645 C 235.913 117.756, 228.305 111.036, 226.043 103.148 L 225.140 100 278.101 100 C 327.600 100, 331.110 99.886, 331.781 98.250 C 332.177 97.287, 332.483 89.975, 332.463 82 C 332.432 70.104, 332.027 66.102, 330.205 59.711 C 322.205 31.647, 304.703 12.930, 278 3.884 C 269.196 0.901, 267.401 0.646, 253.500 0.411 C 245.250 0.271, 237.375 0.372, 236 0.635 M 441.951 2.061 C 429.997 3.821, 419.378 9.449, 411.520 18.189 L 407 23.216 407 12.608 L 407 2 377 2 L 347 2 347.024 70.750 L 347.048 139.500 375.613 153 C 391.324 160.425, 404.814 166.645, 405.589 166.823 C 406.785 167.097, 407 161.076, 407 127.255 C 407 81.428, 407.141 80.396, 414.552 72.153 C 421.104 64.866, 427.184 62.730, 441.749 62.600 L 452.998 62.500 452.999 31.750 L 453 1 450.250 1.122 C 448.738 1.189, 445.003 1.612, 441.951 2.061 M 459 2.384 C 459 2.596, 472.890 36.600, 489.867 77.950 L 520.734 153.131 511.360 176.668 C 506.205 189.613, 501.756 201.171, 501.474 202.352 C 501.008 204.299, 503.352 205.608, 526.540 216.357 C 540.608 222.879, 552.249 228.054, 552.409 227.857 C 552.568 227.661, 571.163 176.763, 593.730 114.750 L 634.761 2 604.120 2 L 573.480 2 561.118 39.250 C 554.319 59.738, 548.474 76.815, 548.128 77.199 C 547.783 77.583, 541.434 60.821, 534.020 39.949 L 520.539 2 489.770 2 C 472.846 2, 459 2.173, 459 2.384 M 86.984 97.516 L 63.467 168.031 90.805 167.765 L 118.142 167.500 140.055 110.500 C 152.107 79.150, 161.862 52.871, 161.734 52.101 C 161.539 50.938, 113.340 26.999, 111.193 27 C 110.812 27.001, 99.918 58.733, 86.984 97.516 M 241.137 47.318 C 234.163 49.947, 228.098 56.684, 225.945 64.192 L 225.140 67 250.137 67 L 275.135 67 274.467 64.750 C 272.690 58.761, 268.093 52.378, 263.491 49.512 C 259.504 47.028, 257.497 46.484, 251.597 46.287 C 247.687 46.157, 242.990 46.620, 241.137 47.318" stroke="none" fill="#0ca434" fill-rule="evenodd"/></svg>