<svg version="1.1" id="Layer_1" xmlns="http://www.w3.org/2000/svg" xmlns:xlink="http://www.w3.org/1999/xlink" x="0px" y="0px"
	 width="100%" viewBox="0 0 2560 1585" enable-background="new 0 0 2560 1585" xml:space="preserve">
<path fill="#000000" opacity="1.000000" stroke="none" 
	d="
M894.000000,1586.000000 
	C868.641785,1586.000000 843.283508,1586.000000 817.132935,1585.620483 
	C816.561707,1583.453857 816.975708,1581.666870 816.976379,1579.879639 
	C817.008118,1494.773193 817.004089,1409.666626 817.004089,1324.560181 
	C817.004089,1322.807373 817.004089,1321.054565 817.004089,1319.233643 
	C800.651550,1319.233643 785.063660,1319.233643 769.000000,1319.233643 
	C769.000000,1408.311768 769.000000,1497.155884 769.000000,1586.000000 
	C719.975098,1586.000000 670.950195,1586.000000 621.472168,1585.612671 
	C630.443359,1557.927612 639.832947,1530.617798 649.300781,1503.335083 
	C661.812561,1467.280884 674.421387,1431.260254 686.917725,1395.200562 
	C693.685059,1375.672852 700.330017,1356.102417 706.977295,1336.533203 
	C708.883606,1330.921143 710.605408,1325.246582 712.601990,1319.006226 
	C696.095520,1319.006226 680.617249,1318.936523 665.143005,1319.152710 
	C664.035339,1319.168213 662.391296,1321.090454 661.949341,1322.438477 
	C654.658691,1344.678955 647.517944,1366.968628 640.349915,1389.249268 
	C632.884155,1412.455444 625.441162,1435.669067 617.958069,1458.869629 
	C612.179443,1476.785889 606.354492,1494.687256 600.334900,1513.259277 
	C599.684570,1511.917969 599.261169,1511.248901 599.020874,1510.519653 
	C591.338989,1487.207031 583.706604,1463.878052 576.000854,1440.573364 
	C563.041748,1401.380371 550.029114,1362.204834 537.077087,1323.009521 
	C536.408813,1320.987061 536.320679,1318.923706 533.251465,1318.952637 
	C520.606873,1319.072021 507.960510,1319.002686 495.418274,1319.002686 
	C474.014221,1383.742554 452.729889,1448.120239 431.032867,1513.746338 
	C409.907867,1448.112061 389.149384,1383.616577 368.413635,1319.191528 
	C351.304016,1319.191528 334.349304,1319.191528 317.260895,1319.191528 
	C317.360107,1319.866211 317.354919,1320.359497 317.508209,1320.797485 
	C324.645508,1341.186035 331.870361,1361.544067 338.927734,1381.960205 
	C348.042236,1408.327393 357.025909,1434.739990 366.062714,1461.134155 
	C371.859924,1478.066040 377.628418,1495.007690 383.450958,1511.930908 
	C391.947906,1536.627197 400.481842,1561.310913 409.000000,1586.000000 
	C273.036102,1586.000000 137.072220,1586.000000 1.000000,1586.000000 
	C1.000000,1187.975098 1.000000,789.950195 1.351436,391.160248 
	C2.122743,391.071442 2.759180,391.697113 2.930715,392.431366 
	C6.886263,409.362823 9.980073,426.544189 14.868322,443.199432 
	C26.339382,482.283630 43.148533,519.303528 60.540600,556.031372 
	C76.959747,590.704590 95.350571,624.303711 116.785271,656.158142 
	C132.393021,679.352966 148.607407,702.074463 166.715942,723.472595 
	C181.084610,740.451477 196.967209,755.487610 215.268661,768.066772 
	C239.284592,784.573669 264.772461,798.417969 291.466492,810.008057 
	C303.074280,815.047974 314.798126,820.033020 326.869446,823.739746 
	C342.208313,828.449829 357.794006,832.726257 373.566498,835.554749 
	C390.940063,838.670349 408.609131,841.110779 426.218109,841.664795 
	C443.461975,842.207153 460.896606,840.854248 478.051971,838.743652 
	C492.174652,837.006226 506.429626,834.182495 519.884399,829.642517 
	C545.316833,821.061035 568.573120,807.730652 590.750366,792.675598 
	C604.935059,783.046265 618.618286,772.676025 632.841003,763.105530 
	C649.630798,751.807678 667.422974,742.211426 686.481201,735.311279 
	C704.495728,728.789001 723.078308,724.140198 742.347900,724.173584 
	C752.466553,724.191162 762.661804,725.506165 772.680420,727.118103 
	C787.887756,729.564880 802.439758,734.695984 815.654541,742.467407 
	C841.295105,757.546326 861.349243,779.188843 881.241028,800.838867 
	C895.088562,815.910400 908.493103,831.388367 922.154236,846.632141 
	C931.739380,857.327759 941.467896,867.894897 951.052979,878.590637 
	C964.697144,893.815674 978.025269,909.331848 991.934692,924.309143 
	C1007.934265,941.537170 1025.374512,957.251160 1044.051514,971.576355 
	C1061.034790,984.602417 1078.622559,996.727783 1097.519287,1006.803345 
	C1120.298828,1018.949036 1144.989868,1024.965698 1170.492188,1026.783081 
	C1189.887085,1028.165527 1209.285889,1026.829346 1228.448730,1022.349609 
	C1262.110718,1014.480286 1292.102905,998.731873 1320.983398,980.478577 
	C1340.273560,968.286682 1358.698975,954.860596 1375.272461,939.129272 
	C1391.230835,923.981812 1407.222290,908.821655 1422.356689,892.867859 
	C1435.485474,879.028015 1447.856079,864.407166 1459.797485,849.518738 
	C1474.228271,831.526550 1488.437988,813.298157 1501.674927,794.422729 
	C1516.910889,772.696899 1531.264404,750.333191 1545.482910,727.917786 
	C1563.919800,698.852112 1580.427246,668.691284 1594.925171,637.448486 
	C1609.240967,606.597656 1622.480225,575.293701 1631.091675,542.333313 
	C1635.030396,527.258057 1637.690918,511.772614 1639.773071,496.317200 
	C1641.011963,487.120422 1639.983276,477.620392 1640.004272,468.256744 
	C1640.027466,457.965546 1637.925659,448.083954 1634.350830,437.556488 
	C1633.270874,439.699524 1632.582031,441.130249 1631.838623,442.532043 
	C1617.168701,470.194855 1603.342896,498.349579 1587.598755,525.387085 
	C1568.547974,558.103027 1547.715332,589.784851 1523.431519,618.969727 
	C1509.224609,636.043945 1495.043457,653.201477 1479.812378,669.341797 
	C1467.810913,682.059937 1454.554932,693.669983 1441.235229,705.045227 
	C1430.176270,714.489807 1418.619995,723.481812 1406.554443,731.588257 
	C1388.270996,743.872314 1368.794678,754.127380 1348.281738,762.331787 
	C1324.617188,771.796814 1300.005981,777.242615 1274.662109,778.864868 
	C1257.860962,779.940308 1241.139282,778.321838 1224.515137,775.120056 
	C1194.857544,769.408020 1167.838013,757.565125 1142.253418,741.836914 
	C1116.110474,725.765198 1093.889526,704.955811 1072.342041,683.533020 
	C1052.397705,663.704163 1033.683228,642.633179 1014.556030,621.989868 
	C1006.147766,612.915222 998.035217,603.565552 989.830444,594.303528 
	C974.629211,577.143433 959.561035,559.864197 944.237976,542.813782 
	C934.830444,532.345764 925.403748,521.851624 915.353027,512.015747 
	C902.464417,499.402588 889.512024,486.738770 875.565063,475.348083 
	C850.097534,454.548370 820.077454,444.482727 787.519531,443.307190 
	C773.371826,442.796356 758.990662,444.907135 744.912720,447.095581 
	C713.899597,451.916504 685.341248,464.187805 658.865234,480.352325 
	C634.977051,494.936920 612.416687,511.739624 589.603638,528.030273 
	C565.411560,545.305664 541.061646,562.158752 513.272522,573.387207 
	C498.196014,579.478943 482.595459,583.748413 466.505707,584.758484 
	C449.730072,585.811523 432.888153,585.218018 416.144073,582.145386 
	C395.323761,578.324646 375.569000,571.655640 356.728638,562.229187 
	C339.277008,553.497620 323.067780,542.702209 308.470123,529.794434 
	C290.875793,514.236877 273.493408,498.400879 256.681030,482.006744 
	C230.545197,456.520966 204.580917,430.832031 181.195221,402.707062 
	C172.276657,391.981049 162.963715,381.570038 154.343460,370.611938 
	C140.762436,353.347687 128.862259,334.696228 111.354652,320.795898 
	C99.175362,311.126007 86.150688,303.606476 70.504311,300.892517 
	C50.199715,297.370544 33.014717,303.782074 17.949137,316.713409 
	C9.504050,323.962128 5.463203,334.027191 2.945036,344.711334 
	C2.740578,345.578857 1.668772,346.241913 1.000000,347.000000 
	C1.000000,231.686783 1.000000,116.373573 1.000000,1.000000 
	C698.024902,1.000000 1395.049805,1.000000 2092.894531,1.332807 
	C2092.880127,2.105889 2092.078125,2.843340 2091.205811,2.939371 
	C2084.348633,3.694131 2077.450195,4.117934 2070.617676,5.039696 
	C2056.697998,6.917553 2042.619141,8.186510 2028.953003,11.253106 
	C2003.759155,16.906410 1978.555420,22.801561 1953.824829,30.169821 
	C1908.836182,43.573727 1865.599976,61.476002 1823.997559,83.375267 
	C1798.721436,96.680412 1773.884399,110.732208 1750.665527,127.293411 
	C1730.430054,141.726700 1710.822266,157.129730 1691.772949,173.101044 
	C1681.143188,182.013016 1672.032593,192.786453 1662.567383,203.025955 
	C1649.156616,217.533661 1638.281372,233.738144 1630.939209,252.206299 
	C1626.540161,263.271454 1624.267212,274.867981 1626.418823,286.446655 
	C1630.638550,309.154175 1647.409668,319.869324 1667.512817,327.110901 
	C1667.951782,325.369995 1668.223267,324.097504 1668.593628,322.854431 
	C1673.066406,307.837952 1682.473633,295.868286 1692.899902,284.730316 
	C1707.115112,269.544769 1723.279907,256.585419 1740.063110,244.290634 
	C1763.380371,227.209290 1787.864624,212.046204 1813.288940,198.406494 
	C1827.948975,190.541580 1842.797119,182.942734 1857.971680,176.141510 
	C1878.150146,167.097595 1898.442993,158.158478 1919.211548,150.620575 
	C1943.169189,141.925140 1967.509033,134.137543 1992.028931,127.173798 
	C2021.037354,118.935287 2050.567383,112.767700 2080.684814,109.981438 
	C2096.065918,108.558487 2111.448242,106.531853 2126.859375,106.218994 
	C2142.702881,105.897377 2158.585205,107.259300 2174.444336,108.016273 
	C2189.182373,108.719742 2203.547119,111.589661 2217.633789,115.914452 
	C2242.865234,123.660912 2265.716309,135.561829 2285.763672,153.042542 
	C2299.834717,165.312454 2311.181641,179.529846 2319.893311,195.844269 
	C2329.420166,213.684998 2335.346191,232.638687 2337.147949,252.976898 
	C2338.731445,270.854919 2338.064209,288.403564 2334.121826,305.932281 
	C2328.070557,332.836121 2314.554932,355.753906 2295.772949,375.320343 
	C2285.000732,386.542328 2272.822021,396.691620 2260.157471,405.761871 
	C2233.518066,424.840942 2203.984863,438.641876 2172.949463,448.934845 
	C2148.004639,457.207916 2122.567627,463.998352 2097.636719,472.310486 
	C2072.697510,480.625366 2047.793457,489.226166 2023.480225,499.181885 
	C2004.542969,506.936340 1986.141235,516.255615 1968.258179,526.235168 
	C1956.946533,532.547546 1946.662109,540.908569 1936.588867,549.169983 
	C1927.779419,556.395081 1922.207886,566.038635 1921.122192,577.706238 
	C1921.008545,578.926392 1922.087891,580.952148 1923.165894,581.483215 
	C1937.298828,588.446228 1951.167236,596.148560 1965.817871,601.814392 
	C1992.598389,612.171265 2020.766357,616.920837 2049.343750,618.925476 
	C2064.352051,619.978210 2079.409912,620.320068 2094.444336,621.005127 
	C2101.044922,621.305786 2107.642090,621.672852 2114.241699,621.990295 
	C2135.203613,622.998474 2156.170166,623.918152 2177.125977,625.039429 
	C2185.332764,625.478577 2193.618652,625.769775 2201.688721,627.166687 
	C2218.510010,630.078247 2235.322266,633.211853 2251.936279,637.113098 
	C2275.325684,642.605164 2297.552246,651.314209 2318.043945,664.034058 
	C2336.215088,675.313660 2352.424072,688.956482 2365.972900,705.554321 
	C2377.678223,719.893555 2387.311768,735.522583 2394.351562,752.722961 
	C2401.689941,770.653870 2406.730225,789.201050 2407.819092,808.518677 
	C2408.469971,820.060242 2408.211426,831.812378 2406.770508,843.269714 
	C2405.193848,855.803345 2402.547363,868.328369 2399.020508,880.465881 
	C2390.123047,911.087524 2373.571045,937.595459 2352.289795,961.018066 
	C2334.411377,980.695435 2313.942871,997.388000 2291.250488,1011.494324 
	C2267.613525,1026.187744 2242.718750,1037.977661 2216.520508,1047.154297 
	C2192.188965,1055.677246 2167.307861,1061.952759 2141.670898,1064.998657 
	C2127.025391,1066.738525 2112.380859,1069.506470 2097.704102,1069.729858 
	C2074.690674,1070.080322 2051.600098,1069.377441 2028.637817,1067.763794 
	C2012.566650,1066.634399 1996.427612,1064.238403 1980.716919,1060.660400 
	C1943.441895,1052.171021 1908.323730,1038.211060 1876.834473,1016.015747 
	C1858.978027,1003.429565 1842.861084,988.926208 1829.406006,971.715393 
	C1814.879272,953.133789 1803.067261,932.962952 1794.846313,910.698853 
	C1788.767212,894.235840 1784.454102,877.366577 1783.149536,859.961853 
	C1781.323975,835.607178 1784.861938,811.830261 1794.064697,789.084167 
	C1802.039917,769.372131 1812.839966,751.371765 1827.597290,735.939514 
	C1840.756226,722.178711 1855.791382,711.129089 1873.515015,703.718445 
	C1887.079712,698.046753 1901.114746,694.635132 1915.690063,694.168274 
	C1924.017822,693.901428 1932.467651,694.864136 1940.743408,696.082458 
	C1959.408325,698.830383 1976.405762,705.907898 1991.653809,717.101379 
	C1992.375977,717.631653 1993.434814,717.703430 1994.336792,717.988708 
	C1994.704834,717.499268 1995.072754,717.009827 1995.440674,716.520386 
	C1986.964233,707.853210 1978.710449,698.953247 1969.955811,690.576843 
	C1958.546143,679.659973 1945.033447,671.841553 1930.895020,664.910828 
	C1906.364014,652.885620 1880.191162,646.945007 1853.262817,645.310852 
	C1836.669067,644.303833 1819.840576,645.729248 1803.209473,647.143555 
	C1783.465698,648.822510 1764.687622,654.726074 1746.588135,662.792969 
	C1710.855103,678.719177 1682.370850,703.286682 1660.006348,735.179810 
	C1645.944092,755.233459 1635.898071,777.192078 1628.976074,800.641174 
	C1624.010010,817.464905 1620.734131,834.676758 1620.224487,852.132690 
	C1619.796509,866.793701 1621.052856,881.530884 1622.065674,896.199707 
	C1623.226440,913.011108 1627.172974,929.336670 1632.011108,945.435791 
	C1639.170410,969.259277 1649.189941,991.842407 1662.057495,1013.122131 
	C1674.816406,1034.222046 1689.543335,1053.896606 1707.001099,1071.321777 
	C1717.395386,1081.696899 1728.470581,1091.422241 1739.603149,1101.018066 
	C1759.977905,1118.580200 1782.761230,1132.597534 1806.488159,1145.102661 
	C1833.322144,1159.245239 1861.458252,1170.197388 1890.461426,1179.009277 
	C1927.728027,1190.331909 1965.913940,1196.946045 2004.565308,1200.879028 
	C2021.287720,1202.580566 2038.128906,1203.437378 2054.937500,1203.894531 
	C2078.774414,1204.542969 2102.610107,1203.891479 2126.321777,1200.988403 
	C2139.140381,1199.418823 2152.099121,1198.455078 2164.709961,1195.843872 
	C2188.569336,1190.903687 2212.543701,1186.064331 2235.892334,1179.212402 
	C2276.947021,1167.164307 2315.918213,1150.001343 2352.850098,1128.147095 
	C2381.681396,1111.086304 2408.657959,1091.609619 2433.311035,1069.018188 
	C2451.632080,1052.229004 2468.449951,1033.898804 2483.296143,1013.953003 
	C2499.974121,991.546387 2514.443848,967.761108 2526.024658,942.237305 
	C2537.432129,917.095276 2546.328613,891.127563 2551.850342,864.123169 
	C2554.988037,848.778748 2556.639648,833.131714 2559.070068,817.638062 
	C2559.219971,816.681396 2560.334229,815.875793 2561.000000,814.999939 
	C2561.000000,1071.902466 2561.000000,1328.804932 2561.000000,1586.000000 
	C2444.641846,1586.000000 2328.283691,1586.000000 2211.255859,1585.568115 
	C2210.586182,1570.886841 2210.586182,1556.637451 2210.586182,1541.866943 
	C2160.391357,1541.866943 2110.340332,1541.866943 2060.380859,1541.866943 
	C2060.380859,1518.289429 2060.380859,1495.236816 2060.380859,1471.842651 
	C2104.359619,1471.842651 2147.958984,1471.842651 2191.694336,1471.842651 
	C2191.694336,1457.774780 2191.694336,1444.055054 2191.694336,1429.814331 
	C2147.672607,1429.814331 2103.953857,1429.814331 2060.230713,1429.814331 
	C2060.230713,1407.022705 2060.230713,1384.755249 2060.230713,1361.966797 
	C2109.842285,1361.966797 2159.226562,1361.966797 2208.668945,1361.966797 
	C2208.668945,1347.388306 2208.668945,1333.334839 2208.668945,1319.347656 
	C2142.952881,1319.347656 2077.568604,1319.347656 2012.000000,1319.347656 
	C2012.000000,1408.464478 2012.000000,1497.232300 2012.000000,1586.000000 
	C1994.308472,1586.000000 1976.616821,1586.000000 1958.104248,1585.821777 
	C1956.794556,1584.200195 1956.615723,1582.537354 1955.771729,1581.345703 
	C1938.522949,1556.991211 1921.195679,1532.692139 1903.890137,1508.377808 
	C1898.252808,1500.457275 1892.633423,1492.523926 1887.282593,1484.986206 
	C1894.723999,1481.551880 1901.972046,1478.616211 1908.834229,1474.957153 
	C1924.223267,1466.750610 1935.604004,1454.772583 1942.281006,1438.428833 
	C1949.314087,1421.213745 1950.535034,1403.647095 1947.085327,1385.440308 
	C1942.450439,1360.979004 1929.125732,1343.183594 1907.229004,1331.687866 
	C1890.220703,1322.758667 1871.715210,1319.390747 1852.846313,1319.147705 
	C1814.367920,1318.652222 1775.878540,1319.000000 1737.393677,1319.000366 
	C1735.648560,1319.000366 1733.903442,1319.000244 1732.000000,1319.000244 
	C1732.000000,1408.520752 1732.000000,1497.260376 1732.000000,1586.000000 
	C1685.641724,1586.000000 1639.283569,1586.000000 1592.255615,1585.568359 
	C1591.723877,1583.159058 1591.982056,1581.181519 1591.982666,1579.203979 
	C1592.003418,1509.210693 1592.000000,1439.217285 1592.000000,1369.223999 
	C1592.000000,1367.279663 1592.000000,1365.335449 1592.000000,1362.871704 
	C1620.267334,1362.871704 1647.990845,1362.871704 1675.618164,1362.871704 
	C1675.618164,1347.951294 1675.618164,1333.562866 1675.618164,1319.252441 
	C1603.970703,1319.252441 1532.705322,1319.252441 1461.308594,1319.252441 
	C1461.308594,1333.895020 1461.308594,1348.282104 1461.308594,1363.195435 
	C1489.336792,1363.195435 1517.060181,1363.195435 1545.000000,1363.195435 
	C1545.000000,1437.815918 1545.000000,1511.907959 1545.000000,1586.000000 
	C1464.308472,1586.000000 1383.616821,1586.000000 1302.259399,1585.594238 
	C1302.942871,1584.792358 1304.267944,1584.206665 1305.645508,1584.030640 
	C1316.513672,1582.641846 1327.567993,1582.142456 1338.229736,1579.825806 
	C1359.771973,1575.144775 1379.053101,1565.237915 1395.622803,1550.725464 
	C1415.344360,1533.452148 1429.197388,1512.157959 1435.005371,1486.406372 
	C1437.618164,1474.821655 1438.875488,1462.857422 1439.781006,1450.991455 
	C1440.260132,1444.711182 1438.641846,1438.275024 1438.013550,1431.905029 
	C1436.728760,1418.882690 1432.925415,1406.582764 1427.352417,1394.801270 
	C1419.598877,1378.410400 1409.057129,1364.237061 1395.101440,1352.453125 
	C1382.332153,1341.670898 1368.114746,1333.589355 1352.509277,1328.048462 
	C1333.144165,1321.172607 1312.956665,1318.986816 1292.489990,1318.996704 
	C1263.490845,1319.010864 1234.491699,1319.000244 1205.492554,1319.000244 
	C1203.737305,1319.000244 1201.982178,1319.000244 1200.000000,1319.000244 
	C1200.000000,1408.475098 1200.000000,1497.237549 1200.000000,1586.000000 
	C1175.308472,1586.000000 1150.616821,1586.000000 1125.255371,1585.568359 
	C1124.723389,1583.492920 1124.981567,1581.848999 1124.982056,1580.205200 
	C1125.001587,1494.907227 1124.999390,1409.609131 1124.999512,1324.311157 
	C1124.999512,1322.692749 1124.999512,1321.074341 1124.999512,1319.267334 
	C1109.124268,1319.267334 1093.737549,1319.267334 1077.925537,1319.267334 
	C1077.925537,1379.376221 1077.925537,1439.219482 1077.925537,1499.928223 
	C1065.663452,1484.361206 1053.893188,1469.608276 1042.332031,1454.693115 
	C1028.125366,1436.365112 1014.120422,1417.880859 999.978821,1399.502197 
	C980.855469,1374.649292 961.656799,1349.854248 942.562256,1324.979370 
	C939.290894,1320.717651 935.788940,1318.417603 929.860840,1318.807617 
	C919.410400,1319.495361 908.882202,1318.989258 898.386536,1319.013184 
	C896.966003,1319.016357 895.545898,1319.193359 894.000000,1319.298340 
	C894.000000,1408.524048 894.000000,1497.261963 894.000000,1586.000000 
M1848.499023,917.020752 
	C1857.772339,932.292908 1869.073364,945.754028 1882.746582,957.383850 
	C1901.877686,973.656006 1923.183472,986.091797 1946.945557,993.863525 
	C1962.033569,998.798279 1977.502930,1002.973450 1993.105957,1005.817810 
	C2009.973999,1008.892639 2027.155151,1010.648315 2044.279053,1011.784973 
	C2056.133301,1012.571777 2068.158203,1011.802917 2080.041748,1010.883789 
	C2095.219482,1009.709900 2110.496338,1008.572693 2125.429932,1005.799805 
	C2143.759033,1002.396484 2162.051025,998.209045 2179.857178,992.729248 
	C2199.779297,986.598328 2219.025391,978.208923 2236.631104,966.906738 
	C2250.762939,957.834595 2264.889160,948.436401 2277.580811,937.513000 
	C2296.902100,920.883911 2312.015381,900.632629 2322.427734,877.126953 
	C2328.632812,863.119507 2332.240967,848.505493 2333.003174,833.193787 
	C2333.728271,818.622192 2331.445801,804.318481 2328.964844,790.063477 
	C2325.348877,769.286560 2317.065430,750.394348 2303.559326,734.248413 
	C2286.473633,713.823547 2264.370605,700.333191 2239.633301,691.036865 
	C2220.863037,683.982849 2201.378418,679.559082 2181.677979,676.086731 
	C2175.603271,675.015930 2169.427246,674.519165 2162.479492,673.658203 
	C2167.906494,689.244446 2168.365234,704.439514 2168.096436,719.811523 
	C2167.799072,736.813232 2163.705322,752.836304 2156.403076,767.956787 
	C2148.718750,783.868164 2137.351807,796.841980 2123.130859,807.522949 
	C2107.603271,819.185242 2090.507324,827.136353 2071.562256,830.897278 
	C2061.965820,832.802490 2052.193115,834.124817 2042.436401,834.831909 
	C2033.397705,835.487000 2024.274292,834.971558 2015.758057,834.971558 
	C2014.791504,825.059143 2014.154541,815.863464 2012.950562,806.742676 
	C2010.565674,788.675903 2003.621460,772.334290 1991.283325,758.990417 
	C1969.997925,735.969971 1943.647949,725.736145 1912.104492,729.959106 
	C1885.821167,733.477966 1865.870728,747.526672 1850.163452,767.863831 
	C1839.231323,782.018066 1832.108521,798.206299 1828.448242,815.913269 
	C1825.197754,831.637207 1824.755493,847.473389 1827.286011,863.116760 
	C1830.376221,882.219360 1838.256104,899.784363 1848.499023,917.020752 
M1851.271484,225.930313 
	C1850.197632,226.284378 1849.061035,226.512268 1848.059448,227.011307 
	C1833.615356,234.208206 1818.985962,241.066879 1804.814453,248.767776 
	C1789.500610,257.089417 1774.148926,265.502655 1759.676880,275.168152 
	C1744.324707,285.421448 1729.669678,296.802979 1715.328003,308.452454 
	C1707.093262,315.141327 1699.836670,323.153778 1695.969482,333.532928 
	C1696.678589,334.072357 1697.155640,334.733429 1697.720215,334.819366 
	C1704.989380,335.926208 1712.241821,337.281799 1719.555786,337.925964 
	C1733.665405,339.168671 1747.800415,340.213593 1761.945679,340.933960 
	C1774.527222,341.574738 1787.134888,341.844116 1799.734131,341.967346 
	C1842.492310,342.385590 1885.253540,342.522888 1928.009766,343.074219 
	C1943.877808,343.278809 1959.773560,343.851196 1975.586914,345.123199 
	C1993.700562,346.580231 2011.807617,348.528870 2029.774048,351.221649 
	C2037.677612,352.406250 2045.517578,355.306824 2052.866211,358.591675 
	C2063.135254,363.181824 2064.170654,370.783905 2056.041748,378.343781 
	C2051.496094,382.571228 2046.648682,386.572937 2041.512573,390.048859 
	C2022.611084,402.840698 2003.291748,415.026031 1984.585327,428.092041 
	C1964.527710,442.101776 1944.730103,456.515228 1925.302734,471.384338 
	C1911.618652,481.857483 1899.894531,494.403168 1892.383911,510.234894 
	C1884.713745,526.403076 1887.430176,541.796143 1896.282471,557.192017 
	C1897.495239,553.707642 1897.889282,550.426392 1899.582520,548.084229 
	C1906.757080,538.158752 1913.511230,527.731567 1921.973633,518.993286 
	C1929.747925,510.965790 1939.206543,504.424194 1948.459839,498.001495 
	C1977.234619,478.028992 2008.625977,462.839752 2040.319336,448.148193 
	C2070.052490,434.365234 2101.083496,424.120026 2131.752441,412.822662 
	C2153.237549,404.908142 2174.433838,396.100037 2195.330811,386.735046 
	C2210.108154,380.112610 2223.487061,370.811798 2235.520996,359.890442 
	C2254.065674,343.060120 2266.490234,322.561646 2271.612061,297.842010 
	C2274.719727,282.843384 2275.247314,267.867828 2271.454590,252.929886 
	C2265.459961,229.318253 2252.058105,210.813614 2232.750000,196.156036 
	C2206.708496,176.386688 2176.975098,166.384109 2144.856934,164.298340 
	C2125.199219,163.021759 2105.323486,164.129135 2085.598145,165.163452 
	C2069.742188,165.994873 2053.889648,167.814377 2038.172729,170.127640 
	C2021.109863,172.638992 2003.978760,175.332520 1987.286621,179.561951 
	C1963.398682,185.614655 1939.608643,192.328415 1916.287109,200.260651 
	C1894.494507,207.672897 1873.367798,217.042709 1851.271484,225.930313 
M1382.342773,679.935242 
	C1384.400879,678.617188 1386.563721,677.436584 1388.500610,675.959656 
	C1405.641968,662.888245 1423.407227,650.530518 1439.669678,636.440308 
	C1455.908691,622.370422 1471.094849,606.989319 1485.883179,591.369446 
	C1499.666138,576.811523 1512.694702,561.489502 1525.359863,545.937561 
	C1537.100952,531.520447 1548.318359,516.634094 1559.045654,501.445251 
	C1571.822632,483.353943 1583.993652,464.826111 1596.111328,446.280975 
	C1603.221680,435.399139 1609.717407,424.115662 1616.350708,413.240631 
	C1607.449585,405.574707 1597.351440,402.209747 1586.778809,401.150970 
	C1566.659668,399.136139 1547.690063,404.194977 1529.856934,413.177643 
	C1507.976196,424.199036 1489.420410,439.886566 1471.904175,456.741302 
	C1460.413330,467.798096 1449.873291,479.840454 1438.430176,490.949738 
	C1419.762329,509.072968 1400.888794,526.995117 1381.732056,544.599487 
	C1372.447144,553.132019 1362.676758,561.235413 1352.498657,568.674622 
	C1335.406250,581.167480 1318.064941,593.359131 1300.365112,604.971497 
	C1278.923462,619.038635 1256.069946,630.532593 1231.999634,639.489868 
	C1208.703003,648.159302 1184.893433,654.613159 1159.919800,656.045105 
	C1155.432861,656.302368 1150.972168,657.017395 1146.183716,657.556641 
	C1147.114624,658.542114 1147.760986,659.282349 1148.464844,659.963196 
	C1166.758179,677.660217 1187.367065,692.017761 1210.709106,702.204590 
	C1229.749146,710.514099 1249.676147,715.242981 1270.582642,714.961426 
	C1276.682739,714.879333 1282.848999,714.810120 1288.857300,713.895508 
	C1299.134033,712.331055 1309.456543,710.664917 1319.498413,708.041016 
	C1341.729248,702.232117 1362.032104,691.899353 1382.342773,679.935242 
M612.003235,938.495789 
	C612.829712,937.672058 613.657349,936.849609 614.482361,936.024414 
	C626.557617,923.947266 638.967224,912.182068 650.611206,899.702454 
	C661.728333,887.787537 672.039124,875.120911 682.721313,862.799377 
	C691.670593,852.476807 701.069336,842.510254 709.515808,831.792419 
	C725.494202,811.517395 741.605042,791.407898 760.657898,773.869873 
	C762.106323,772.536621 763.663208,771.321106 765.169678,770.050842 
	C758.114136,769.000000 751.493347,768.676453 744.919434,769.092590 
	C738.575623,769.494141 732.144409,770.098633 725.988037,771.590027 
	C704.687561,776.750305 685.373047,786.426331 667.561340,799.020691 
	C647.058655,813.517883 627.043518,828.714661 606.350891,842.929626 
	C593.226379,851.945496 579.500977,860.170715 565.585815,867.926758 
	C553.111694,874.879395 540.348877,881.556946 527.106567,886.832764 
	C506.276855,895.131531 484.294403,899.215027 461.946899,900.981445 
	C447.000244,902.162781 432.037079,903.240051 417.060791,903.893738 
	C410.324677,904.187744 403.531036,903.440247 396.776855,902.972595 
	C388.575806,902.404785 380.333801,902.018677 372.209167,900.857056 
	C360.930511,899.244385 349.633057,897.463806 338.544800,894.888855 
	C321.470734,890.923889 304.323669,886.981750 287.659943,881.623230 
	C270.897461,876.232788 254.687897,869.123108 238.040512,862.691284 
	C238.223541,863.389709 238.224304,864.439819 238.722107,865.133057 
	C245.005951,873.884277 251.412170,882.547668 257.689117,891.303711 
	C275.992798,916.836548 296.210419,940.630554 319.856995,961.463684 
	C333.412750,973.406616 348.013702,983.742310 363.840729,992.358643 
	C388.659088,1005.869812 415.306335,1013.739319 443.379669,1015.818359 
	C464.452057,1017.378967 485.277252,1014.948547 505.571808,1008.251404 
	C525.753418,1001.591492 544.379150,992.029846 561.195007,979.225098 
	C578.271545,966.221985 594.755676,952.440857 612.003235,938.495789 
M658.436829,242.953445 
	C663.208740,246.309525 667.552368,250.886078 672.849670,252.744888 
	C681.495300,255.778625 690.688232,258.197205 699.785095,258.783997 
	C714.234680,259.716064 728.975403,260.307373 743.254395,258.445740 
	C755.629944,256.832306 767.833740,252.381622 779.584717,247.822174 
	C802.237000,239.032974 822.943970,226.969742 837.589111,206.782135 
	C843.296326,198.915131 847.052856,189.962097 844.419861,180.028488 
	C840.267517,164.362900 828.643799,154.703369 814.904663,148.254608 
	C798.440979,140.527054 780.733582,138.519592 762.407654,139.789185 
	C747.400574,140.828873 732.959290,143.622910 719.087646,149.104660 
	C694.179443,158.947815 672.445251,173.331207 658.785278,197.030304 
	C650.431030,211.524231 647.893982,227.103683 658.436829,242.953445 
M827.391907,280.947144 
	C816.316162,287.095306 805.556335,293.926392 794.090271,299.230804 
	C777.090576,307.095123 758.848083,311.273834 740.167175,311.759888 
	C728.756592,312.056793 717.151550,310.760345 705.872986,308.802399 
	C690.928345,306.207977 676.472229,301.450470 664.002991,292.387604 
	C656.418823,286.875305 649.376282,280.617767 642.063049,274.672729 
	C642.063049,275.256104 641.787720,276.319183 642.105347,277.157532 
	C645.488464,286.085632 648.141235,295.413788 652.571899,303.798523 
	C665.759094,328.754089 686.448792,345.651520 712.469299,355.909332 
	C732.790955,363.920593 753.903564,368.034149 775.838196,364.926239 
	C786.448120,363.422913 797.220825,362.047852 807.441406,359.006897 
	C838.330566,349.816498 863.023376,331.922943 880.188049,304.287201 
	C890.137085,288.268951 895.514954,270.706604 895.801514,251.942856 
	C895.940430,242.848633 894.718506,233.561722 892.782532,224.651031 
	C890.342407,213.419464 885.487244,202.976837 878.893433,193.439697 
	C878.378540,193.752274 878.146729,193.823898 878.143250,193.905319 
	C878.079224,195.400925 877.983826,196.898697 878.009338,198.394058 
	C878.208618,210.092148 874.945557,220.975266 870.141235,231.466995 
	C860.804321,251.856796 845.722961,267.333923 827.391907,280.947144 
z"/>
<path fill="#FF6B00" opacity="1.000000" stroke="none" 
	d="
M2561.000000,814.531250 
	C2560.334229,815.875793 2559.219971,816.681396 2559.070068,817.638062 
	C2556.639648,833.131714 2554.988037,848.778748 2551.850342,864.123169 
	C2546.328613,891.127563 2537.432129,917.095276 2526.024658,942.237305 
	C2514.443848,967.761108 2499.974121,991.546387 2483.296143,1013.953003 
	C2468.449951,1033.898804 2451.632080,1052.229004 2433.311035,1069.018188 
	C2408.657959,1091.609619 2381.681396,1111.086304 2352.850098,1128.147095 
	C2315.918213,1150.001343 2276.947021,1167.164307 2235.892334,1179.212402 
	C2212.543701,1186.064331 2188.569336,1190.903687 2164.709961,1195.843872 
	C2152.099121,1198.455078 2139.140381,1199.418823 2126.321777,1200.988403 
	C2102.610107,1203.891479 2078.774414,1204.542969 2054.937500,1203.894531 
	C2038.128906,1203.437378 2021.287720,1202.580566 2004.565308,1200.879028 
	C1965.913940,1196.946045 1927.728027,1190.331909 1890.461426,1179.009277 
	C1861.458252,1170.197388 1833.322144,1159.245239 1806.488159,1145.102661 
	C1782.761230,1132.597534 1759.977905,1118.580200 1739.603149,1101.018066 
	C1728.470581,1091.422241 1717.395386,1081.696899 1707.001099,1071.321777 
	C1689.543335,1053.896606 1674.816406,1034.222046 1662.057495,1013.122131 
	C1649.189941,991.842407 1639.170410,969.259277 1632.011108,945.435791 
	C1627.172974,929.336670 1623.226440,913.011108 1622.065674,896.199707 
	C1621.052856,881.530884 1619.796509,866.793701 1620.224487,852.132690 
	C1620.734131,834.676758 1624.010010,817.464905 1628.976074,800.641174 
	C1635.898071,777.192078 1645.944092,755.233459 1660.006348,735.179810 
	C1682.370850,703.286682 1710.855103,678.719177 1746.588135,662.792969 
	C1764.687622,654.726074 1783.465698,648.822510 1803.209473,647.143555 
	C1819.840576,645.729248 1836.669067,644.303833 1853.262817,645.310852 
	C1880.191162,646.945007 1906.364014,652.885620 1930.895020,664.910828 
	C1945.033447,671.841553 1958.546143,679.659973 1969.955811,690.576843 
	C1978.710449,698.953247 1986.964233,707.853210 1995.440674,716.520386 
	C1995.072754,717.009827 1994.704834,717.499268 1994.336792,717.988708 
	C1993.434814,717.703430 1992.375977,717.631653 1991.653809,717.101379 
	C1976.405762,705.907898 1959.408325,698.830383 1940.743408,696.082458 
	C1932.467651,694.864136 1924.017822,693.901428 1915.690063,694.168274 
	C1901.114746,694.635132 1887.079712,698.046753 1873.515015,703.718445 
	C1855.791382,711.129089 1840.756226,722.178711 1827.597290,735.939514 
	C1812.839966,751.371765 1802.039917,769.372131 1794.064697,789.084167 
	C1784.861938,811.830261 1781.323975,835.607178 1783.149536,859.961853 
	C1784.454102,877.366577 1788.767212,894.235840 1794.846313,910.698853 
	C1803.067261,932.962952 1814.879272,953.133789 1829.406006,971.715393 
	C1842.861084,988.926208 1858.978027,1003.429565 1876.834473,1016.015747 
	C1908.323730,1038.211060 1943.441895,1052.171021 1980.716919,1060.660400 
	C1996.427612,1064.238403 2012.566650,1066.634399 2028.637817,1067.763794 
	C2051.600098,1069.377441 2074.690674,1070.080322 2097.704102,1069.729858 
	C2112.380859,1069.506470 2127.025391,1066.738525 2141.670898,1064.998657 
	C2167.307861,1061.952759 2192.188965,1055.677246 2216.520508,1047.154297 
	C2242.718750,1037.977661 2267.613525,1026.187744 2291.250488,1011.494324 
	C2313.942871,997.388000 2334.411377,980.695435 2352.289795,961.018066 
	C2373.571045,937.595459 2390.123047,911.087524 2399.020508,880.465881 
	C2402.547363,868.328369 2405.193848,855.803345 2406.770508,843.269714 
	C2408.211426,831.812378 2408.469971,820.060242 2407.819092,808.518677 
	C2406.730225,789.201050 2401.689941,770.653870 2394.351562,752.722961 
	C2387.311768,735.522583 2377.678223,719.893555 2365.972900,705.554321 
	C2352.424072,688.956482 2336.215088,675.313660 2318.043945,664.034058 
	C2297.552246,651.314209 2275.325684,642.605164 2251.936279,637.113098 
	C2235.322266,633.211853 2218.510010,630.078247 2201.688721,627.166687 
	C2193.618652,625.769775 2185.332764,625.478577 2177.125977,625.039429 
	C2156.170166,623.918152 2135.203613,622.998474 2114.241699,621.990295 
	C2107.642090,621.672852 2101.044922,621.305786 2094.444336,621.005127 
	C2079.409912,620.320068 2064.352051,619.978210 2049.343750,618.925476 
	C2020.766357,616.920837 1992.598389,612.171265 1965.817871,601.814392 
	C1951.167236,596.148560 1937.298828,588.446228 1923.165894,581.483215 
	C1922.087891,580.952148 1921.008545,578.926392 1921.122192,577.706238 
	C1922.207886,566.038635 1927.779419,556.395081 1936.588867,549.169983 
	C1946.662109,540.908569 1956.946533,532.547546 1968.258179,526.235168 
	C1986.141235,516.255615 2004.542969,506.936340 2023.480225,499.181885 
	C2047.793457,489.226166 2072.697510,480.625366 2097.636719,472.310486 
	C2122.567627,463.998352 2148.004639,457.207916 2172.949463,448.934845 
	C2203.984863,438.641876 2233.518066,424.840942 2260.157471,405.761871 
	C2272.822021,396.691620 2285.000732,386.542328 2295.772949,375.320343 
	C2314.554932,355.753906 2328.070557,332.836121 2334.121826,305.932281 
	C2338.064209,288.403564 2338.731445,270.854919 2337.147949,252.976898 
	C2335.346191,232.638687 2329.420166,213.684998 2319.893311,195.844269 
	C2311.181641,179.529846 2299.834717,165.312454 2285.763672,153.042542 
	C2265.716309,135.561829 2242.865234,123.660912 2217.633789,115.914452 
	C2203.547119,111.589661 2189.182373,108.719742 2174.444336,108.016273 
	C2158.585205,107.259300 2142.702881,105.897377 2126.859375,106.218994 
	C2111.448242,106.531853 2096.065918,108.558487 2080.684814,109.981438 
	C2050.567383,112.767700 2021.037354,118.935287 1992.028931,127.173798 
	C1967.509033,134.137543 1943.169189,141.925140 1919.211548,150.620575 
	C1898.442993,158.158478 1878.150146,167.097595 1857.971680,176.141510 
	C1842.797119,182.942734 1827.948975,190.541580 1813.288940,198.406494 
	C1787.864624,212.046204 1763.380371,227.209290 1740.063110,244.290634 
	C1723.279907,256.585419 1707.115112,269.544769 1692.899902,284.730316 
	C1682.473633,295.868286 1673.066406,307.837952 1668.593628,322.854431 
	C1668.223267,324.097504 1667.951782,325.369995 1667.512817,327.110901 
	C1647.409668,319.869324 1630.638550,309.154175 1626.418823,286.446655 
	C1624.267212,274.867981 1626.540161,263.271454 1630.939209,252.206299 
	C1638.281372,233.738144 1649.156616,217.533661 1662.567383,203.025955 
	C1672.032593,192.786453 1681.143188,182.013016 1691.772949,173.101044 
	C1710.822266,157.129730 1730.430054,141.726700 1750.665527,127.293411 
	C1773.884399,110.732208 1798.721436,96.680412 1823.997559,83.375267 
	C1865.599976,61.476002 1908.836182,43.573727 1953.824829,30.169821 
	C1978.555420,22.801561 2003.759155,16.906410 2028.953003,11.253106 
	C2042.619141,8.186510 2056.697998,6.917553 2070.617676,5.039696 
	C2077.450195,4.117934 2084.348633,3.694131 2091.205811,2.939371 
	C2092.078125,2.843340 2092.880127,2.105889 2093.357422,1.332807 
	C2124.354248,1.000000 2155.708252,1.000000 2187.287109,1.388995 
	C2189.193604,2.185319 2190.855225,2.795965 2192.560303,2.961153 
	C2197.310547,3.421328 2202.135742,3.346967 2206.828613,4.111998 
	C2219.846436,6.234123 2232.841797,8.520807 2245.791992,11.023227 
	C2271.124268,15.918264 2295.593018,23.687496 2318.971680,34.568703 
	C2339.279541,44.020760 2358.519775,55.197144 2376.141113,69.328850 
	C2391.703125,81.809349 2405.592529,95.748047 2417.667236,111.453011 
	C2429.833252,127.276848 2439.368408,144.723282 2447.054199,163.177765 
	C2458.432861,190.498825 2463.934326,219.092102 2464.831299,248.512161 
	C2465.191650,260.340332 2464.004395,272.256500 2462.911621,284.076233 
	C2461.903320,294.977997 2460.981689,306.024200 2458.404785,316.613251 
	C2454.305664,333.457428 2449.440186,350.171387 2443.844482,366.580963 
	C2436.677490,387.599487 2426.694092,407.451080 2415.001221,426.306000 
	C2403.189697,445.352051 2390.611816,463.922852 2378.168213,483.010681 
	C2379.611084,484.333649 2380.986572,485.810089 2382.569824,487.013306 
	C2396.617920,497.689423 2410.919434,508.045349 2424.716553,519.034973 
	C2438.700928,530.173767 2452.591309,541.494751 2465.774170,553.554321 
	C2475.012939,562.005859 2483.112305,571.725464 2491.511475,581.066833 
	C2505.120850,596.202881 2516.521729,612.963989 2526.253418,630.777893 
	C2544.014160,663.288879 2555.402344,697.888428 2559.082520,734.889709 
	C2559.157959,735.649170 2560.336182,736.299011 2561.000000,737.000000 
	C2561.000000,762.687561 2561.000000,788.375122 2561.000000,814.531250 
z"/>
<path fill="#FF6B00" opacity="1.000000" stroke="none" 
	d="
M1.000000,347.468658 
	C1.668772,346.241913 2.740578,345.578857 2.945036,344.711334 
	C5.463203,334.027191 9.504050,323.962128 17.949137,316.713409 
	C33.014717,303.782074 50.199715,297.370544 70.504311,300.892517 
	C86.150688,303.606476 99.175362,311.126007 111.354652,320.795898 
	C128.862259,334.696228 140.762436,353.347687 154.343460,370.611938 
	C162.963715,381.570038 172.276657,391.981049 181.195221,402.707062 
	C204.580917,430.832031 230.545197,456.520966 256.681030,482.006744 
	C273.493408,498.400879 290.875793,514.236877 308.470123,529.794434 
	C323.067780,542.702209 339.277008,553.497620 356.728638,562.229187 
	C375.569000,571.655640 395.323761,578.324646 416.144073,582.145386 
	C432.888153,585.218018 449.730072,585.811523 466.505707,584.758484 
	C482.595459,583.748413 498.196014,579.478943 513.272522,573.387207 
	C541.061646,562.158752 565.411560,545.305664 589.603638,528.030273 
	C612.416687,511.739624 634.977051,494.936920 658.865234,480.352325 
	C685.341248,464.187805 713.899597,451.916504 744.912720,447.095581 
	C758.990662,444.907135 773.371826,442.796356 787.519531,443.307190 
	C820.077454,444.482727 850.097534,454.548370 875.565063,475.348083 
	C889.512024,486.738770 902.464417,499.402588 915.353027,512.015747 
	C925.403748,521.851624 934.830444,532.345764 944.237976,542.813782 
	C959.561035,559.864197 974.629211,577.143433 989.830444,594.303528 
	C998.035217,603.565552 1006.147766,612.915222 1014.556030,621.989868 
	C1033.683228,642.633179 1052.397705,663.704163 1072.342041,683.533020 
	C1093.889526,704.955811 1116.110474,725.765198 1142.253418,741.836914 
	C1167.838013,757.565125 1194.857544,769.408020 1224.515137,775.120056 
	C1241.139282,778.321838 1257.860962,779.940308 1274.662109,778.864868 
	C1300.005981,777.242615 1324.617188,771.796814 1348.281738,762.331787 
	C1368.794678,754.127380 1388.270996,743.872314 1406.554443,731.588257 
	C1418.619995,723.481812 1430.176270,714.489807 1441.235229,705.045227 
	C1454.554932,693.669983 1467.810913,682.059937 1479.812378,669.341797 
	C1495.043457,653.201477 1509.224609,636.043945 1523.431519,618.969727 
	C1547.715332,589.784851 1568.547974,558.103027 1587.598755,525.387085 
	C1603.342896,498.349579 1617.168701,470.194855 1631.838623,442.532043 
	C1632.582031,441.130249 1633.270874,439.699524 1634.350830,437.556488 
	C1637.925659,448.083954 1640.027466,457.965546 1640.004272,468.256744 
	C1639.983276,477.620392 1641.011963,487.120422 1639.773071,496.317200 
	C1637.690918,511.772614 1635.030396,527.258057 1631.091675,542.333313 
	C1622.480225,575.293701 1609.240967,606.597656 1594.925171,637.448486 
	C1580.427246,668.691284 1563.919800,698.852112 1545.482910,727.917786 
	C1531.264404,750.333191 1516.910889,772.696899 1501.674927,794.422729 
	C1488.437988,813.298157 1474.228271,831.526550 1459.797485,849.518738 
	C1447.856079,864.407166 1435.485474,879.028015 1422.356689,892.867859 
	C1407.222290,908.821655 1391.230835,923.981812 1375.272461,939.129272 
	C1358.698975,954.860596 1340.273560,968.286682 1320.983398,980.478577 
	C1292.102905,998.731873 1262.110718,1014.480286 1228.448730,1022.349609 
	C1209.285889,1026.829346 1189.887085,1028.165527 1170.492188,1026.783081 
	C1144.989868,1024.965698 1120.298828,1018.949036 1097.519287,1006.803345 
	C1078.622559,996.727783 1061.034790,984.602417 1044.051514,971.576355 
	C1025.374512,957.251160 1007.934265,941.537170 991.934692,924.309143 
	C978.025269,909.331848 964.697144,893.815674 951.052979,878.590637 
	C941.467896,867.894897 931.739380,857.327759 922.154236,846.632141 
	C908.493103,831.388367 895.088562,815.910400 881.241028,800.838867 
	C861.349243,779.188843 841.295105,757.546326 815.654541,742.467407 
	C802.439758,734.695984 787.887756,729.564880 772.680420,727.118103 
	C762.661804,725.506165 752.466553,724.191162 742.347900,724.173584 
	C723.078308,724.140198 704.495728,728.789001 686.481201,735.311279 
	C667.422974,742.211426 649.630798,751.807678 632.841003,763.105530 
	C618.618286,772.676025 604.935059,783.046265 590.750366,792.675598 
	C568.573120,807.730652 545.316833,821.061035 519.884399,829.642517 
	C506.429626,834.182495 492.174652,837.006226 478.051971,838.743652 
	C460.896606,840.854248 443.461975,842.207153 426.218109,841.664795 
	C408.609131,841.110779 390.940063,838.670349 373.566498,835.554749 
	C357.794006,832.726257 342.208313,828.449829 326.869446,823.739746 
	C314.798126,820.033020 303.074280,815.047974 291.466492,810.008057 
	C264.772461,798.417969 239.284592,784.573669 215.268661,768.066772 
	C196.967209,755.487610 181.084610,740.451477 166.715942,723.472595 
	C148.607407,702.074463 132.393021,679.352966 116.785271,656.158142 
	C95.350571,624.303711 76.959747,590.704590 60.540600,556.031372 
	C43.148533,519.303528 26.339382,482.283630 14.868322,443.199432 
	C9.980073,426.544189 6.886263,409.362823 2.930715,392.431366 
	C2.759180,391.697113 2.122743,391.071442 1.351436,390.697601 
	C1.000000,376.645782 1.000000,362.291534 1.000000,347.468658 
z"/>
<path fill="#000000" opacity="1.000000" stroke="none" 
	d="
M2561.000000,736.531372 
	C2560.336182,736.299011 2559.157959,735.649170 2559.082520,734.889709 
	C2555.402344,697.888428 2544.014160,663.288879 2526.253418,630.777893 
	C2516.521729,612.963989 2505.120850,596.202881 2491.511475,581.066833 
	C2483.112305,571.725464 2475.012939,562.005859 2465.774170,553.554321 
	C2452.591309,541.494751 2438.700928,530.173767 2424.716553,519.034973 
	C2410.919434,508.045349 2396.617920,497.689423 2382.569824,487.013306 
	C2380.986572,485.810089 2379.611084,484.333649 2378.168213,483.010681 
	C2390.611816,463.922852 2403.189697,445.352051 2415.001221,426.306000 
	C2426.694092,407.451080 2436.677490,387.599487 2443.844482,366.580963 
	C2449.440186,350.171387 2454.305664,333.457428 2458.404785,316.613251 
	C2460.981689,306.024200 2461.903320,294.977997 2462.911621,284.076233 
	C2464.004395,272.256500 2465.191650,260.340332 2464.831299,248.512161 
	C2463.934326,219.092102 2458.432861,190.498825 2447.054199,163.177765 
	C2439.368408,144.723282 2429.833252,127.276848 2417.667236,111.453011 
	C2405.592529,95.748047 2391.703125,81.809349 2376.141113,69.328850 
	C2358.519775,55.197144 2339.279541,44.020760 2318.971680,34.568703 
	C2295.593018,23.687496 2271.124268,15.918264 2245.791992,11.023227 
	C2232.841797,8.520807 2219.846436,6.234123 2206.828613,4.111998 
	C2202.135742,3.346967 2197.310547,3.421328 2192.560303,2.961153 
	C2190.855225,2.795965 2189.193604,2.185319 2187.755859,1.388995 
	C2312.284180,1.000000 2436.568604,1.000000 2561.000000,1.000000 
	C2561.000000,246.020874 2561.000000,491.041779 2561.000000,736.531372 
z"/>
<path fill="#9C9B9B" opacity="1.000000" stroke="none" 
	d="
M409.468658,1586.000000 
	C400.481842,1561.310913 391.947906,1536.627197 383.450958,1511.930908 
	C377.628418,1495.007690 371.859924,1478.066040 366.062714,1461.134155 
	C357.025909,1434.739990 348.042236,1408.327393 338.927734,1381.960205 
	C331.870361,1361.544067 324.645508,1341.186035 317.508209,1320.797485 
	C317.354919,1320.359497 317.360107,1319.866211 317.260895,1319.191528 
	C334.349304,1319.191528 351.304016,1319.191528 368.413635,1319.191528 
	C389.149384,1383.616577 409.907867,1448.112061 431.032867,1513.746338 
	C452.729889,1448.120239 474.014221,1383.742554 495.418274,1319.002686 
	C507.960510,1319.002686 520.606873,1319.072021 533.251465,1318.952637 
	C536.320679,1318.923706 536.408813,1320.987061 537.077087,1323.009521 
	C550.029114,1362.204834 563.041748,1401.380371 576.000854,1440.573364 
	C583.706604,1463.878052 591.338989,1487.207031 599.020874,1510.519653 
	C599.261169,1511.248901 599.684570,1511.917969 600.334900,1513.259277 
	C606.354492,1494.687256 612.179443,1476.785889 617.958069,1458.869629 
	C625.441162,1435.669067 632.884155,1412.455444 640.349915,1389.249268 
	C647.517944,1366.968628 654.658691,1344.678955 661.949341,1322.438477 
	C662.391296,1321.090454 664.035339,1319.168213 665.143005,1319.152710 
	C680.617249,1318.936523 696.095520,1319.006226 712.601990,1319.006226 
	C710.605408,1325.246582 708.883606,1330.921143 706.977295,1336.533203 
	C700.330017,1356.102417 693.685059,1375.672852 686.917725,1395.200562 
	C674.421387,1431.260254 661.812561,1467.280884 649.300781,1503.335083 
	C639.832947,1530.617798 630.443359,1557.927612 621.009521,1585.612671 
	C607.312439,1586.000000 593.624878,1586.000000 579.459106,1585.612671 
	C557.716919,1523.173950 536.452942,1461.122681 514.832336,1398.030762 
	C507.219269,1420.348511 500.066437,1441.378052 492.871918,1462.393433 
	C482.037079,1494.042236 471.138519,1525.669189 460.342560,1557.331177 
	C457.099091,1566.843384 454.107117,1576.441284 451.000000,1586.000000 
	C437.312439,1586.000000 423.624878,1586.000000 409.468658,1586.000000 
z"/>
<path fill="#9C9B9B" opacity="1.000000" stroke="none" 
	d="
M894.468628,1586.000000 
	C894.000000,1497.261963 894.000000,1408.524048 894.000000,1319.298340 
	C895.545898,1319.193359 896.966003,1319.016357 898.386536,1319.013184 
	C908.882202,1318.989258 919.410400,1319.495361 929.860840,1318.807617 
	C935.788940,1318.417603 939.290894,1320.717651 942.562256,1324.979370 
	C961.656799,1349.854248 980.855469,1374.649292 999.978821,1399.502197 
	C1014.120422,1417.880859 1028.125366,1436.365112 1042.332031,1454.693115 
	C1053.893188,1469.608276 1065.663452,1484.361206 1077.925537,1499.928223 
	C1077.925537,1439.219482 1077.925537,1379.376221 1077.925537,1319.267334 
	C1093.737549,1319.267334 1109.124268,1319.267334 1124.999512,1319.267334 
	C1124.999512,1321.074341 1124.999512,1322.692749 1124.999512,1324.311157 
	C1124.999390,1409.609131 1125.001587,1494.907227 1124.982056,1580.205200 
	C1124.981567,1581.848999 1124.723389,1583.492920 1124.792725,1585.568359 
	C1111.979126,1586.000000 1098.958130,1586.000000 1085.810303,1585.769165 
	C1084.885864,1584.299805 1084.179565,1582.989746 1083.276855,1581.833374 
	C1068.772705,1563.250854 1054.238525,1544.692017 1039.721558,1526.119507 
	C1019.909851,1500.773071 1000.021606,1475.485596 980.332703,1450.043945 
	C968.555908,1434.826172 957.108948,1419.353149 945.480591,1404.019897 
	C943.986816,1402.050293 942.293152,1400.232300 940.000000,1397.527710 
	C940.000000,1461.199341 940.000000,1523.599731 940.000000,1586.000000 
	C924.979126,1586.000000 909.958191,1586.000000 894.468628,1586.000000 
z"/>
<path fill="#9C9B9B" opacity="1.000000" stroke="none" 
	d="
M1732.468628,1586.000000 
	C1732.000000,1497.260376 1732.000000,1408.520752 1732.000000,1319.000244 
	C1733.903442,1319.000244 1735.648560,1319.000366 1737.393677,1319.000366 
	C1775.878540,1319.000000 1814.367920,1318.652222 1852.846313,1319.147705 
	C1871.715210,1319.390747 1890.220703,1322.758667 1907.229004,1331.687866 
	C1929.125732,1343.183594 1942.450439,1360.979004 1947.085327,1385.440308 
	C1950.535034,1403.647095 1949.314087,1421.213745 1942.281006,1438.428833 
	C1935.604004,1454.772583 1924.223267,1466.750610 1908.834229,1474.957153 
	C1901.972046,1478.616211 1894.723999,1481.551880 1887.282593,1484.986206 
	C1892.633423,1492.523926 1898.252808,1500.457275 1903.890137,1508.377808 
	C1921.195679,1532.692139 1938.522949,1556.991211 1955.771729,1581.345703 
	C1956.615723,1582.537354 1956.794556,1584.200195 1957.641602,1585.821777 
	C1939.312378,1586.000000 1920.624878,1586.000000 1901.826172,1585.775269 
	C1897.522339,1579.516602 1893.346069,1573.471191 1889.134033,1567.450562 
	C1872.202271,1543.248413 1855.301025,1519.024536 1838.220215,1494.927979 
	C1837.157715,1493.428955 1834.663086,1492.149292 1832.817261,1492.125610 
	C1816.173706,1491.911011 1799.526489,1491.992188 1782.880249,1492.016357 
	C1781.625977,1492.018188 1780.371948,1492.249756 1779.000000,1492.386230 
	C1779.000000,1523.859131 1779.000000,1554.929565 1779.000000,1586.000000 
	C1763.645752,1586.000000 1748.291504,1586.000000 1732.468628,1586.000000 
M1814.500000,1363.002441 
	C1802.744019,1363.002441 1790.987915,1363.002441 1779.404663,1363.002441 
	C1779.404663,1392.425049 1779.404663,1421.143066 1779.404663,1450.000000 
	C1802.469482,1450.000000 1825.130005,1450.054443 1847.789917,1449.954712 
	C1852.382690,1449.934448 1857.044067,1449.730347 1861.550781,1448.923828 
	C1874.697021,1446.571045 1886.209595,1441.076660 1893.822876,1429.580688 
	C1899.478516,1421.040649 1901.296143,1411.648804 1900.203979,1401.247437 
	C1899.253418,1392.195190 1896.360229,1384.389771 1890.281250,1377.849243 
	C1880.661377,1367.499023 1867.956177,1363.824585 1854.486328,1363.142456 
	C1841.521851,1362.485596 1828.497803,1363.001709 1814.500000,1363.002441 
z"/>
<path fill="#9C9B9B" opacity="1.000000" stroke="none" 
	d="
M1200.468628,1586.000000 
	C1200.000000,1497.237549 1200.000000,1408.475098 1200.000000,1319.000244 
	C1201.982178,1319.000244 1203.737305,1319.000244 1205.492554,1319.000244 
	C1234.491699,1319.000244 1263.490845,1319.010864 1292.489990,1318.996704 
	C1312.956665,1318.986816 1333.144165,1321.172607 1352.509277,1328.048462 
	C1368.114746,1333.589355 1382.332153,1341.670898 1395.101440,1352.453125 
	C1409.057129,1364.237061 1419.598877,1378.410400 1427.352417,1394.801270 
	C1432.925415,1406.582764 1436.728760,1418.882690 1438.013550,1431.905029 
	C1438.641846,1438.275024 1440.260132,1444.711182 1439.781006,1450.991455 
	C1438.875488,1462.857422 1437.618164,1474.821655 1435.005371,1486.406372 
	C1429.197388,1512.157959 1415.344360,1533.452148 1395.622803,1550.725464 
	C1379.053101,1565.237915 1359.771973,1575.144775 1338.229736,1579.825806 
	C1327.567993,1582.142456 1316.513672,1582.641846 1305.645508,1584.030640 
	C1304.267944,1584.206665 1302.942871,1584.792358 1301.796753,1585.594238 
	C1268.312378,1586.000000 1234.624878,1586.000000 1200.468628,1586.000000 
M1247.004028,1538.271362 
	C1246.615723,1541.622192 1249.036255,1540.986206 1250.928223,1540.988159 
	C1266.083984,1541.004395 1281.244385,1541.218018 1296.393799,1540.909180 
	C1304.583740,1540.742310 1312.876587,1540.340210 1320.911865,1538.880981 
	C1343.613647,1534.757690 1362.028931,1523.094482 1374.828491,1503.989502 
	C1387.241211,1485.461914 1391.675171,1464.717407 1389.184326,1442.278931 
	C1387.661133,1428.556763 1384.226074,1415.779297 1377.011963,1404.021118 
	C1360.788086,1377.578369 1336.522949,1364.661987 1306.169556,1363.159424 
	C1288.392334,1362.279419 1270.536377,1362.990356 1252.715820,1362.985962 
	C1250.940430,1362.985596 1249.164917,1362.985962 1247.001099,1362.985962 
	C1247.001099,1421.463867 1247.001099,1479.385010 1247.004028,1538.271362 
z"/>
<path fill="#9C9B9B" opacity="1.000000" stroke="none" 
	d="
M2012.468628,1586.000000 
	C2012.000000,1497.232300 2012.000000,1408.464478 2012.000000,1319.347656 
	C2077.568604,1319.347656 2142.952881,1319.347656 2208.668945,1319.347656 
	C2208.668945,1333.334839 2208.668945,1347.388306 2208.668945,1361.966797 
	C2159.226562,1361.966797 2109.842285,1361.966797 2060.230713,1361.966797 
	C2060.230713,1384.755249 2060.230713,1407.022705 2060.230713,1429.814331 
	C2103.953857,1429.814331 2147.672607,1429.814331 2191.694336,1429.814331 
	C2191.694336,1444.055054 2191.694336,1457.774780 2191.694336,1471.842651 
	C2147.958984,1471.842651 2104.359619,1471.842651 2060.380859,1471.842651 
	C2060.380859,1495.236816 2060.380859,1518.289429 2060.380859,1541.866943 
	C2110.340332,1541.866943 2160.391357,1541.866943 2210.586182,1541.866943 
	C2210.586182,1556.637451 2210.586182,1570.886841 2210.792969,1585.568115 
	C2144.979004,1586.000000 2078.958252,1586.000000 2012.468628,1586.000000 
z"/>
<path fill="#9C9B9B" opacity="1.000000" stroke="none" 
	d="
M1545.468628,1586.000000 
	C1545.000000,1511.907959 1545.000000,1437.815918 1545.000000,1363.195435 
	C1517.060181,1363.195435 1489.336792,1363.195435 1461.308594,1363.195435 
	C1461.308594,1348.282104 1461.308594,1333.895020 1461.308594,1319.252441 
	C1532.705322,1319.252441 1603.970703,1319.252441 1675.618164,1319.252441 
	C1675.618164,1333.562866 1675.618164,1347.951294 1675.618164,1362.871704 
	C1647.990845,1362.871704 1620.267334,1362.871704 1592.000000,1362.871704 
	C1592.000000,1365.335449 1592.000000,1367.279663 1592.000000,1369.223999 
	C1592.000000,1439.217285 1592.003418,1509.210693 1591.982666,1579.203979 
	C1591.982056,1581.181519 1591.723877,1583.159058 1591.792969,1585.568359 
	C1576.645752,1586.000000 1561.291504,1586.000000 1545.468628,1586.000000 
z"/>
<path fill="#000000" opacity="1.000000" stroke="none" 
	d="
M940.468628,1586.000000 
	C940.000000,1523.599731 940.000000,1461.199341 940.000000,1397.527710 
	C942.293152,1400.232300 943.986816,1402.050293 945.480591,1404.019897 
	C957.108948,1419.353149 968.555908,1434.826172 980.332703,1450.043945 
	C1000.021606,1475.485596 1019.909851,1500.773071 1039.721558,1526.119507 
	C1054.238525,1544.692017 1068.772705,1563.250854 1083.276855,1581.833374 
	C1084.179565,1582.989746 1084.885864,1584.299805 1085.341797,1585.769165 
	C1036.979126,1586.000000 988.958191,1586.000000 940.468628,1586.000000 
z"/>
<path fill="#9C9B9B" opacity="1.000000" stroke="none" 
	d="
M769.468628,1586.000000 
	C769.000000,1497.155884 769.000000,1408.311768 769.000000,1319.233643 
	C785.063660,1319.233643 800.651550,1319.233643 817.004089,1319.233643 
	C817.004089,1321.054565 817.004089,1322.807373 817.004089,1324.560181 
	C817.004089,1409.666626 817.008118,1494.773193 816.976379,1579.879639 
	C816.975708,1581.666870 816.561707,1583.453857 816.670288,1585.620483 
	C801.312439,1586.000000 785.624878,1586.000000 769.468628,1586.000000 
z"/>
<path fill="#000000" opacity="1.000000" stroke="none" 
	d="
M451.468628,1586.000000 
	C454.107117,1576.441284 457.099091,1566.843384 460.342560,1557.331177 
	C471.138519,1525.669189 482.037079,1494.042236 492.871918,1462.393433 
	C500.066437,1441.378052 507.219269,1420.348511 514.832336,1398.030762 
	C536.452942,1461.122681 557.716919,1523.173950 578.990479,1585.612671 
	C536.645752,1586.000000 494.291534,1586.000000 451.468628,1586.000000 
z"/>
<path fill="#000000" opacity="1.000000" stroke="none" 
	d="
M1779.468628,1586.000000 
	C1779.000000,1554.929565 1779.000000,1523.859131 1779.000000,1492.386230 
	C1780.371948,1492.249756 1781.625977,1492.018188 1782.880249,1492.016357 
	C1799.526489,1491.992188 1816.173706,1491.911011 1832.817261,1492.125610 
	C1834.663086,1492.149292 1837.157715,1493.428955 1838.220215,1494.927979 
	C1855.301025,1519.024536 1872.202271,1543.248413 1889.134033,1567.450562 
	C1893.346069,1573.471191 1897.522339,1579.516602 1901.357666,1585.775269 
	C1860.645752,1586.000000 1820.291504,1586.000000 1779.468628,1586.000000 
z"/>
<path fill="#FF6B00" opacity="1.000000" stroke="none" 
	d="
M1848.243164,916.748779 
	C1838.256104,899.784363 1830.376221,882.219360 1827.286011,863.116760 
	C1824.755493,847.473389 1825.197754,831.637207 1828.448242,815.913269 
	C1832.108521,798.206299 1839.231323,782.018066 1850.163452,767.863831 
	C1865.870728,747.526672 1885.821167,733.477966 1912.104492,729.959106 
	C1943.647949,725.736145 1969.997925,735.969971 1991.283325,758.990417 
	C2003.621460,772.334290 2010.565674,788.675903 2012.950562,806.742676 
	C2014.154541,815.863464 2014.791504,825.059143 2015.758057,834.971558 
	C2024.274292,834.971558 2033.397705,835.487000 2042.436401,834.831909 
	C2052.193115,834.124817 2061.965820,832.802490 2071.562256,830.897278 
	C2090.507324,827.136353 2107.603271,819.185242 2123.130859,807.522949 
	C2137.351807,796.841980 2148.718750,783.868164 2156.403076,767.956787 
	C2163.705322,752.836304 2167.799072,736.813232 2168.096436,719.811523 
	C2168.365234,704.439514 2167.906494,689.244446 2162.479492,673.658203 
	C2169.427246,674.519165 2175.603271,675.015930 2181.677979,676.086731 
	C2201.378418,679.559082 2220.863037,683.982849 2239.633301,691.036865 
	C2264.370605,700.333191 2286.473633,713.823547 2303.559326,734.248413 
	C2317.065430,750.394348 2325.348877,769.286560 2328.964844,790.063477 
	C2331.445801,804.318481 2333.728271,818.622192 2333.003174,833.193787 
	C2332.240967,848.505493 2328.632812,863.119507 2322.427734,877.126953 
	C2312.015381,900.632629 2296.902100,920.883911 2277.580811,937.513000 
	C2264.889160,948.436401 2250.762939,957.834595 2236.631104,966.906738 
	C2219.025391,978.208923 2199.779297,986.598328 2179.857178,992.729248 
	C2162.051025,998.209045 2143.759033,1002.396484 2125.429932,1005.799805 
	C2110.496338,1008.572693 2095.219482,1009.709900 2080.041748,1010.883789 
	C2068.158203,1011.802917 2056.133301,1012.571777 2044.279053,1011.784973 
	C2027.155151,1010.648315 2009.973999,1008.892639 1993.105957,1005.817810 
	C1977.502930,1002.973450 1962.033569,998.798279 1946.945557,993.863525 
	C1923.183472,986.091797 1901.877686,973.656006 1882.746582,957.383850 
	C1869.073364,945.754028 1857.772339,932.292908 1848.243164,916.748779 
z"/>
<path fill="#FF6B00" opacity="1.000000" stroke="none" 
	d="
M1851.609741,225.740601 
	C1873.367798,217.042709 1894.494507,207.672897 1916.287109,200.260651 
	C1939.608643,192.328415 1963.398682,185.614655 1987.286621,179.561951 
	C2003.978760,175.332520 2021.109863,172.638992 2038.172729,170.127640 
	C2053.889648,167.814377 2069.742188,165.994873 2085.598145,165.163452 
	C2105.323486,164.129135 2125.199219,163.021759 2144.856934,164.298340 
	C2176.975098,166.384109 2206.708496,176.386688 2232.750000,196.156036 
	C2252.058105,210.813614 2265.459961,229.318253 2271.454590,252.929886 
	C2275.247314,267.867828 2274.719727,282.843384 2271.612061,297.842010 
	C2266.490234,322.561646 2254.065674,343.060120 2235.520996,359.890442 
	C2223.487061,370.811798 2210.108154,380.112610 2195.330811,386.735046 
	C2174.433838,396.100037 2153.237549,404.908142 2131.752441,412.822662 
	C2101.083496,424.120026 2070.052490,434.365234 2040.319336,448.148193 
	C2008.625977,462.839752 1977.234619,478.028992 1948.459839,498.001495 
	C1939.206543,504.424194 1929.747925,510.965790 1921.973633,518.993286 
	C1913.511230,527.731567 1906.757080,538.158752 1899.582520,548.084229 
	C1897.889282,550.426392 1897.495239,553.707642 1896.282471,557.192017 
	C1887.430176,541.796143 1884.713745,526.403076 1892.383911,510.234894 
	C1899.894531,494.403168 1911.618652,481.857483 1925.302734,471.384338 
	C1944.730103,456.515228 1964.527710,442.101776 1984.585327,428.092041 
	C2003.291748,415.026031 2022.611084,402.840698 2041.512573,390.048859 
	C2046.648682,386.572937 2051.496094,382.571228 2056.041748,378.343781 
	C2064.170654,370.783905 2063.135254,363.181824 2052.866211,358.591675 
	C2045.517578,355.306824 2037.677612,352.406250 2029.774048,351.221649 
	C2011.807617,348.528870 1993.700562,346.580231 1975.586914,345.123199 
	C1959.773560,343.851196 1943.877808,343.278809 1928.009766,343.074219 
	C1885.253540,342.522888 1842.492310,342.385590 1799.734131,341.967346 
	C1787.134888,341.844116 1774.527222,341.574738 1761.945679,340.933960 
	C1747.800415,340.213593 1733.665405,339.168671 1719.555786,337.925964 
	C1712.241821,337.281799 1704.989380,335.926208 1697.720215,334.819366 
	C1697.155640,334.733429 1696.678589,334.072357 1695.969482,333.532928 
	C1699.836670,323.153778 1707.093262,315.141327 1715.328003,308.452454 
	C1729.669678,296.802979 1744.324707,285.421448 1759.676880,275.168152 
	C1774.148926,265.502655 1789.500610,257.089417 1804.814453,248.767776 
	C1818.985962,241.066879 1833.615356,234.208206 1848.059448,227.011307 
	C1849.061035,226.512268 1850.197632,226.284378 1851.609741,225.740601 
z"/>
<path fill="#FF6B00" opacity="1.000000" stroke="none" 
	d="
M1381.975830,680.001953 
	C1362.032104,691.899353 1341.729248,702.232117 1319.498413,708.041016 
	C1309.456543,710.664917 1299.134033,712.331055 1288.857300,713.895508 
	C1282.848999,714.810120 1276.682739,714.879333 1270.582642,714.961426 
	C1249.676147,715.242981 1229.749146,710.514099 1210.709106,702.204590 
	C1187.367065,692.017761 1166.758179,677.660217 1148.464844,659.963196 
	C1147.760986,659.282349 1147.114624,658.542114 1146.183716,657.556641 
	C1150.972168,657.017395 1155.432861,656.302368 1159.919800,656.045105 
	C1184.893433,654.613159 1208.703003,648.159302 1231.999634,639.489868 
	C1256.069946,630.532593 1278.923462,619.038635 1300.365112,604.971497 
	C1318.064941,593.359131 1335.406250,581.167480 1352.498657,568.674622 
	C1362.676758,561.235413 1372.447144,553.132019 1381.732056,544.599487 
	C1400.888794,526.995117 1419.762329,509.072968 1438.430176,490.949738 
	C1449.873291,479.840454 1460.413330,467.798096 1471.904175,456.741302 
	C1489.420410,439.886566 1507.976196,424.199036 1529.856934,413.177643 
	C1547.690063,404.194977 1566.659668,399.136139 1586.778809,401.150970 
	C1597.351440,402.209747 1607.449585,405.574707 1616.350708,413.240631 
	C1609.717407,424.115662 1603.221680,435.399139 1596.111328,446.280975 
	C1583.993652,464.826111 1571.822632,483.353943 1559.045654,501.445251 
	C1548.318359,516.634094 1537.100952,531.520447 1525.359863,545.937561 
	C1512.694702,561.489502 1499.666138,576.811523 1485.883179,591.369446 
	C1471.094849,606.989319 1455.908691,622.370422 1439.669678,636.440308 
	C1423.407227,650.530518 1405.641968,662.888245 1388.500610,675.959656 
	C1386.563721,677.436584 1384.400879,678.617188 1381.975830,680.001953 
z"/>
<path fill="#FF6B00" opacity="1.000000" stroke="none" 
	d="
M611.751282,938.748169 
	C594.755676,952.440857 578.271545,966.221985 561.195007,979.225098 
	C544.379150,992.029846 525.753418,1001.591492 505.571808,1008.251404 
	C485.277252,1014.948547 464.452057,1017.378967 443.379669,1015.818359 
	C415.306335,1013.739319 388.659088,1005.869812 363.840729,992.358643 
	C348.013702,983.742310 333.412750,973.406616 319.856995,961.463684 
	C296.210419,940.630554 275.992798,916.836548 257.689117,891.303711 
	C251.412170,882.547668 245.005951,873.884277 238.722107,865.133057 
	C238.224304,864.439819 238.223541,863.389709 238.040512,862.691284 
	C254.687897,869.123108 270.897461,876.232788 287.659943,881.623230 
	C304.323669,886.981750 321.470734,890.923889 338.544800,894.888855 
	C349.633057,897.463806 360.930511,899.244385 372.209167,900.857056 
	C380.333801,902.018677 388.575806,902.404785 396.776855,902.972595 
	C403.531036,903.440247 410.324677,904.187744 417.060791,903.893738 
	C432.037079,903.240051 447.000244,902.162781 461.946899,900.981445 
	C484.294403,899.215027 506.276855,895.131531 527.106567,886.832764 
	C540.348877,881.556946 553.111694,874.879395 565.585815,867.926758 
	C579.500977,860.170715 593.226379,851.945496 606.350891,842.929626 
	C627.043518,828.714661 647.058655,813.517883 667.561340,799.020691 
	C685.373047,786.426331 704.687561,776.750305 725.988037,771.590027 
	C732.144409,770.098633 738.575623,769.494141 744.919434,769.092590 
	C751.493347,768.676453 758.114136,769.000000 765.169678,770.050842 
	C763.663208,771.321106 762.106323,772.536621 760.657898,773.869873 
	C741.605042,791.407898 725.494202,811.517395 709.515808,831.792419 
	C701.069336,842.510254 691.670593,852.476807 682.721313,862.799377 
	C672.039124,875.120911 661.728333,887.787537 650.611206,899.702454 
	C638.967224,912.182068 626.557617,923.947266 614.482361,936.024414 
	C613.657349,936.849609 612.829712,937.672058 611.751282,938.748169 
z"/>
<path fill="#FF6B00" opacity="1.000000" stroke="none" 
	d="
M658.190063,242.684906 
	C647.893982,227.103683 650.431030,211.524231 658.785278,197.030304 
	C672.445251,173.331207 694.179443,158.947815 719.087646,149.104660 
	C732.959290,143.622910 747.400574,140.828873 762.407654,139.789185 
	C780.733582,138.519592 798.440979,140.527054 814.904663,148.254608 
	C828.643799,154.703369 840.267517,164.362900 844.419861,180.028488 
	C847.052856,189.962097 843.296326,198.915131 837.589111,206.782135 
	C822.943970,226.969742 802.237000,239.032974 779.584717,247.822174 
	C767.833740,252.381622 755.629944,256.832306 743.254395,258.445740 
	C728.975403,260.307373 714.234680,259.716064 699.785095,258.783997 
	C690.688232,258.197205 681.495300,255.778625 672.849670,252.744888 
	C667.552368,250.886078 663.208740,246.309525 658.190063,242.684906 
z"/>
<path fill="#FF6B00" opacity="1.000000" stroke="none" 
	d="
M827.684326,280.727142 
	C845.722961,267.333923 860.804321,251.856796 870.141235,231.466995 
	C874.945557,220.975266 878.208618,210.092148 878.009338,198.394058 
	C877.983826,196.898697 878.079224,195.400925 878.143250,193.905319 
	C878.146729,193.823898 878.378540,193.752274 878.893433,193.439697 
	C885.487244,202.976837 890.342407,213.419464 892.782532,224.651031 
	C894.718506,233.561722 895.940430,242.848633 895.801514,251.942856 
	C895.514954,270.706604 890.137085,288.268951 880.188049,304.287201 
	C863.023376,331.922943 838.330566,349.816498 807.441406,359.006897 
	C797.220825,362.047852 786.448120,363.422913 775.838196,364.926239 
	C753.903564,368.034149 732.790955,363.920593 712.469299,355.909332 
	C686.448792,345.651520 665.759094,328.754089 652.571899,303.798523 
	C648.141235,295.413788 645.488464,286.085632 642.105347,277.157532 
	C641.787720,276.319183 642.063049,275.256104 642.063049,274.672729 
	C649.376282,280.617767 656.418823,286.875305 664.002991,292.387604 
	C676.472229,301.450470 690.928345,306.207977 705.872986,308.802399 
	C717.151550,310.760345 728.756592,312.056793 740.167175,311.759888 
	C758.848083,311.273834 777.090576,307.095123 794.090271,299.230804 
	C805.556335,293.926392 816.316162,287.095306 827.684326,280.727142 
z"/>
<path fill="#000000" opacity="1.000000" stroke="none" 
	d="
M1815.000000,1363.002441 
	C1828.497803,1363.001709 1841.521851,1362.485596 1854.486328,1363.142456 
	C1867.956177,1363.824585 1880.661377,1367.499023 1890.281250,1377.849243 
	C1896.360229,1384.389771 1899.253418,1392.195190 1900.203979,1401.247437 
	C1901.296143,1411.648804 1899.478516,1421.040649 1893.822876,1429.580688 
	C1886.209595,1441.076660 1874.697021,1446.571045 1861.550781,1448.923828 
	C1857.044067,1449.730347 1852.382690,1449.934448 1847.789917,1449.954712 
	C1825.130005,1450.054443 1802.469482,1450.000000 1779.404663,1450.000000 
	C1779.404663,1421.143066 1779.404663,1392.425049 1779.404663,1363.002441 
	C1790.987915,1363.002441 1802.744019,1363.002441 1815.000000,1363.002441 
z"/>
<path fill="#000000" opacity="1.000000" stroke="none" 
	d="
M1247.002563,1537.788818 
	C1247.001099,1479.385010 1247.001099,1421.463867 1247.001099,1362.985962 
	C1249.164917,1362.985962 1250.940430,1362.985596 1252.715820,1362.985962 
	C1270.536377,1362.990356 1288.392334,1362.279419 1306.169556,1363.159424 
	C1336.522949,1364.661987 1360.788086,1377.578369 1377.011963,1404.021118 
	C1384.226074,1415.779297 1387.661133,1428.556763 1389.184326,1442.278931 
	C1391.675171,1464.717407 1387.241211,1485.461914 1374.828491,1503.989502 
	C1362.028931,1523.094482 1343.613647,1534.757690 1320.911865,1538.880981 
	C1312.876587,1540.340210 1304.583740,1540.742310 1296.393799,1540.909180 
	C1281.244385,1541.218018 1266.083984,1541.004395 1250.928223,1540.988159 
	C1249.036255,1540.986206 1246.615723,1541.622192 1247.002563,1537.788818 
z"/>
</svg>